<svg xmlns="http://www.w3.org/2000/svg" width="34.996" height="34.998" viewBox="0 0 34.996 34.998"><g transform="translate(34.996) rotate(90)"><g transform="translate(0)"><path d="M17.5,0A17.5,17.5,0,1,0,35,17.5,17.5,17.5,0,0,0,17.5,0Zm0,32.652A15.157,15.157,0,1,1,32.655,17.494,15.171,15.171,0,0,1,17.5,32.652Z" fill="#4d2c76"/><path d="M9.607.34a1.188,1.188,0,0,0-1.664,0l-7.6,7.6A1.172,1.172,0,0,0,2,9.6L8.775,2.822,15.55,9.6A1.172,1.172,0,0,0,17.207,7.94Z" transform="translate(8.647 11.57)" fill="#4d2c76"/></g></g></svg>