<svg xmlns="http://www.w3.org/2000/svg" width="34.996" height="34.998" viewBox="0 0 34.996 34.998"><g transform="translate(34.996) rotate(90)"><g transform="translate(0 0)"><path d="M17.5,35A17.5,17.5,0,1,1,35,17.5,17.5,17.5,0,0,1,17.5,35Zm0-32.652A15.157,15.157,0,1,0,32.655,17.5,15.171,15.171,0,0,0,17.5,2.344Z" fill="#4d2c76"/><path d="M9.607,9.6a1.188,1.188,0,0,1-1.664,0L.343,2A1.172,1.172,0,0,1,2,.343L8.775,7.118,15.55.343A1.172,1.172,0,1,1,17.207,2Z" transform="translate(8.647 13.486)" fill="#4d2c76"/></g></g></svg>