<svg xmlns="http://www.w3.org/2000/svg" width="44.786" height="36.714" viewBox="0 0 44.786 36.714"><path d="M37.531,27.894c-5.988,0-10.844,2.238-10.844,5,0-2.765-4.856-5-10.844-5S5,30.132,5,32.9V60.006H48.375V32.9c0-2.765-4.856-5-10.844-5Z" transform="translate(-4.295 -27.188)" fill="#ffe2e2"/><path d="M194.166,32.894V60h-2.645V32.894c0-2.558-4.158-4.665-9.521-4.967q.651-.037,1.322-.037C189.31,27.89,194.166,30.129,194.166,32.894Z" transform="translate(-150.086 -27.185)" fill="#ffcfcf"/><path d="M17.166,27.927c-5.364.3-9.521,2.409-9.521,4.967V60H5V32.894c0-2.765,4.856-5,10.844-5Q16.516,27.89,17.166,27.927Z" transform="translate(-4.295 -27.185)" fill="#ffefee"/><path d="M149.687,185.554c0,.063,0,.13-.009.193H128.009c-.006-.063-.009-.13-.009-.193,0-2.762,4.856-5,10.844-5S149.687,182.792,149.687,185.554Z" transform="translate(-105.607 -152.928)" fill="#ffe2e2"/><path d="M26.687,185.554c0,.063,0,.13-.009.193H5.009C5,185.684,5,185.617,5,185.554c0-2.762,4.856-5,10.844-5s10.844,2.241,10.844,5Z" transform="translate(-4.295 -152.928)" fill="#ffe2e2"/><path d="M194.166,185.554c0,.062,0,.129-.009.192h-2.645c.005-.063.009-.13.009-.192,0-2.557-4.158-4.665-9.521-4.967q.651-.037,1.322-.037C189.31,180.55,194.166,182.791,194.166,185.554Z" transform="translate(-150.086 -152.928)" fill="#ffcfcf"/><path d="M7.645,185.554c0,.062,0,.129.009.192H5.009C5,185.683,5,185.616,5,185.554c0-2.763,4.856-5,10.844-5q.672,0,1.322.037C11.8,180.889,7.645,183,7.645,185.554Z" transform="translate(-4.295 -152.928)" fill="#ffefee"/><circle cx="9.897" cy="9.897" r="9.897" transform="translate(12.496 16.219)" fill="#b6418f" opacity="0.7"/><path d="M119.52,151.268a.529.529,0,0,1,0,.916l-6.771,3.909a.529.529,0,0,1-.793-.458v-7.819a.529.529,0,0,1,.793-.458Z" transform="translate(-92.391 -125.529)" fill="#fff"/><path d="M114.595,148.426v6.6l-1.851,1.069a.529.529,0,0,1-.793-.457v-7.82a.529.529,0,0,1,.793-.458Z" transform="translate(-92.387 -125.529)" fill="#ccc"/><path d="M128.821,132.791A9.889,9.889,0,0,1,120.5,135.6a9.892,9.892,0,0,0,0-19.609,9.894,9.894,0,0,1,8.321,16.8Z" transform="translate(-99.43 -99.678)" fill="#b6418f"/><path d="M77.438,132.791a9.851,9.851,0,0,0,5.676,2.807,9.894,9.894,0,1,1,0-19.609,9.892,9.892,0,0,0-5.676,16.8Z" transform="translate(-59.399 -99.678)" fill="#b6418f" opacity="0.3"/><g transform="translate(0 0)"><path d="M34.236,23.89c-5.043,0-9.236,1.522-10.844,3.706-1.608-2.185-5.8-3.706-10.844-3.706C6.073,23.89,1,26.4,1,29.6V56.709a.716.716,0,0,0,.714.705h14.1c.028.03.056.058.086.088a10.612,10.612,0,0,0,14.994,0c.03-.03.058-.058.086-.088h14.1c.023,0,.046,0,.067,0s.044-.005.065-.009a.7.7,0,0,0,.582-.693V29.6C45.785,26.4,40.713,23.89,34.236,23.89Zm-10.844,35.3a9.187,9.187,0,1,1,8.9-6.894A9.17,9.17,0,0,1,23.393,59.193ZM2.411,29.6c0-2.033,4.163-4.3,10.138-4.3s10.138,2.266,10.138,4.3v9.832a10.582,10.582,0,0,0-9.862,11.378C9.5,50.745,4.878,51.5,2.411,53.741ZM2.5,56c.658-2,4.967-3.9,10.53-3.78A10.435,10.435,0,0,0,14.649,56Zm29.64,0a10.435,10.435,0,0,0,1.622-3.78C39.3,52.1,43.627,54,44.289,56Zm1.823-5.194A10.583,10.583,0,0,0,24.1,39.431V29.6c0-2.033,4.163-4.3,10.138-4.3s10.138,2.266,10.138,4.3V53.741C41.908,51.5,37.285,50.745,33.96,50.809Z" transform="translate(-1 -23.89)" fill="#4d2c76"/><path d="M43.353,68.441h6.9a.705.705,0,0,0,0-1.411h-6.9A.705.705,0,0,0,43.353,68.441Z" transform="translate(-35.309 -59.424)" fill="#4d2c76"/><path d="M27.823,95.151H40.2a.705.705,0,0,0,0-1.411H27.823A.705.705,0,0,0,27.823,95.151Z" transform="translate(-22.517 -81.424)" fill="#4d2c76"/><path d="M27.823,121.871h7.19a.705.705,0,0,0,0-1.411h-7.19A.705.705,0,0,0,27.823,121.871Z" transform="translate(-22.517 -103.433)" fill="#4d2c76"/><path d="M32.449,147.17H27.823a.705.705,0,0,0,0,1.411h4.627A.705.705,0,0,0,32.449,147.17Z" transform="translate(-22.517 -125.433)" fill="#4d2c76"/><path d="M197.309,147.17h-4.627a.705.705,0,0,0,0,1.411h4.627A.705.705,0,0,0,197.309,147.17Z" transform="translate(-158.309 -125.433)" fill="#4d2c76"/><path d="M166.663,68.441h6.9a.705.705,0,0,0,0-1.411h-6.9A.705.705,0,0,0,166.663,68.441Z" transform="translate(-136.877 -59.424)" fill="#4d2c76"/><path d="M163.51,93.74H151.132a.705.705,0,0,0,0,1.411H163.51A.705.705,0,0,0,163.51,93.74Z" transform="translate(-124.085 -81.424)" fill="#4d2c76"/><path d="M188,120.46h-7.136a.705.705,0,0,0,0,1.411H188A.705.705,0,0,0,188,120.46Z" transform="translate(-148.573 -103.433)" fill="#4d2c76"/><path d="M116.582,147.356l-6.772-3.909a1.232,1.232,0,0,0-1.85,1.068v7.82a1.235,1.235,0,0,0,1.234,1.236c.449,0-.047.214,7.388-4.078A1.233,1.233,0,0,0,116.582,147.356Zm-7.212,4.673V144.82l6.242,3.6Z" transform="translate(-89.101 -122.228)" fill="#4d2c76"/></g></svg>