<svg xmlns="http://www.w3.org/2000/svg" xmlns:xlink="http://www.w3.org/1999/xlink" width="57.533" height="341.66" viewBox="0 0 57.533 341.66"><defs><linearGradient id="a" x1="0.5" x2="0.5" y2="1" gradientUnits="objectBoundingBox"><stop offset="0" stop-color="#4d2c76"/><stop offset="1" stop-color="#b6418f"/></linearGradient></defs><path d="M-1816.178,441.975a20.256,20.256,0,0,1-14.277-5.99,19.782,19.782,0,0,1-5.739-14.211l2.6-301.6a19.733,19.733,0,0,1,6.187-14.312,20.29,20.29,0,0,1,6.385-4.089,19.951,19.951,0,0,1,7.483-1.46,19.869,19.869,0,0,1,10.985,3.356l23.893,15.818V424.642l-28.144,14.964A19.782,19.782,0,0,1-1816.178,441.975Z" transform="translate(1836.194 -100.315)" fill="url(#a)"/></svg>