<svg id="brain-training" xmlns="http://www.w3.org/2000/svg" width="59.513" height="35.194" viewBox="0 0 59.513 35.194">
  <path id="XMLID_42_" d="M61.247,85.2a4.7,4.7,0,0,0-1.991-4.027.357.357,0,0,1-.064-.529,5,5,0,0,0,1.049-4.6A4.922,4.922,0,0,0,55.456,72.4a.367.367,0,0,1-.343-.49,6.5,6.5,0,0,0-4.823-8.466,6.426,6.426,0,0,0-2.441-.03.356.356,0,0,1-.407-.286,8.356,8.356,0,0,0-14.7-3.54.353.353,0,0,1-.551,0,8.356,8.356,0,0,0-14.7,3.54.356.356,0,0,1-.407.286,6.421,6.421,0,0,0-2.441.03A6.5,6.5,0,0,0,9.866,72.02.284.284,0,0,1,9.6,72.4a5.038,5.038,0,0,0-5.072,4.95A4.957,4.957,0,0,0,5.75,80.641a.357.357,0,0,1-.064.529A4.694,4.694,0,0,0,3.695,85.2,4.775,4.775,0,0,0,8.5,89.714H56.439A4.775,4.775,0,0,0,61.247,85.2Z" transform="translate(-2.714 -55.496)" fill="#fff"/>
  <path id="Path_3735" data-name="Path 3735" d="M83.3,140.034H53.443a2.488,2.488,0,0,1,0-4.958H83.3a2.488,2.488,0,0,1,0,4.958Z" transform="translate(-38.614 -115.969)" fill="#ffe2e2"/>
  <path id="XMLID_13_" d="M18.229,63.122a.372.372,0,0,1-.429.286,7.144,7.144,0,0,0-2.57.03,6.482,6.482,0,0,0-5.04,8.574.288.288,0,0,1-.28.383h0a5.183,5.183,0,0,0-5.337,4.948,4.824,4.824,0,0,0,1.287,3.289.346.346,0,0,1-.068.53,4.626,4.626,0,0,0-2.1,4.028,4.926,4.926,0,0,0,5.064,4.516h3.657A4.926,4.926,0,0,1,7.347,85.19a4.626,4.626,0,0,1,2.1-4.028.346.346,0,0,0,.068-.53,4.824,4.824,0,0,1-1.287-3.289A5.183,5.183,0,0,1,13.562,72.4h0a.288.288,0,0,0,.28-.383,6.2,6.2,0,0,1-.388-2.694,6.635,6.635,0,0,1,5.427-5.88,7.144,7.144,0,0,1,2.57-.03.372.372,0,0,0,.429-.286,8.62,8.62,0,0,1,6.8-6.477A8.823,8.823,0,0,0,18.229,63.122Z" transform="translate(-2.71 -55.488)" fill="#f5f5f5"/>
  <path id="XMLID_29_" d="M172.688,81.173a.346.346,0,0,1-.068-.53,4.816,4.816,0,0,0,1.1-4.6,5.148,5.148,0,0,0-5.037-3.633.373.373,0,0,1-.383-.365.378.378,0,0,1,.022-.125,6.219,6.219,0,0,0,.346-2.587,6.635,6.635,0,0,0-5.427-5.88,7.145,7.145,0,0,0-2.57-.03.372.372,0,0,1-.429-.286,8.726,8.726,0,0,0-8.624-6.661,9.116,9.116,0,0,0-1.831.184,8.62,8.62,0,0,1,6.8,6.477.372.372,0,0,0,.429.286,7.145,7.145,0,0,1,2.57.03,6.635,6.635,0,0,1,5.427,5.88,6.218,6.218,0,0,1-.346,2.587.378.378,0,0,0-.022.125.373.373,0,0,0,.383.365,5.148,5.148,0,0,1,5.037,3.633,4.816,4.816,0,0,1-1.1,4.6.346.346,0,0,0,.068.53,4.626,4.626,0,0,1,2.1,4.028,4.926,4.926,0,0,1-5.064,4.516h3.657a4.926,4.926,0,0,0,5.064-4.516A4.626,4.626,0,0,0,172.688,81.173Z" transform="translate(-116.251 -55.5)" fill="#ccc"/>
  <g id="Group_874" data-name="Group 874" transform="translate(15.325 12.167)">
    <path id="Path_3736" data-name="Path 3736" d="M91.484,126.713h-.046A2.438,2.438,0,0,1,89,124.275v-12.76a2.438,2.438,0,0,1,2.438-2.438h.046a2.438,2.438,0,0,1,2.438,2.438v12.76A2.438,2.438,0,0,1,91.484,126.713Z" transform="translate(-84.078 -109.077)" fill="#fff"/>
    <path id="Path_3737" data-name="Path 3737" d="M71.3,131.623h-.046a2.438,2.438,0,0,1-2.438-2.438V121.1a2.438,2.438,0,0,1,2.438-2.438H71.3a2.438,2.438,0,0,1,2.438,2.438v8.087A2.438,2.438,0,0,1,71.3,131.623Z" transform="translate(-68.813 -116.323)" fill="#fff"/>
    <path id="Path_3738" data-name="Path 3738" d="M149.251,109.077h.046a2.438,2.438,0,0,1,2.438,2.438v12.76a2.438,2.438,0,0,1-2.438,2.438h-.046a2.438,2.438,0,0,1-2.438-2.438v-12.76A2.438,2.438,0,0,1,149.251,109.077Z" transform="translate(-127.795 -109.077)" fill="#fff"/>
    <path id="Path_3739" data-name="Path 3739" d="M169.439,118.66h.046a2.438,2.438,0,0,1,2.438,2.438v8.087a2.438,2.438,0,0,1-2.438,2.438h-.046A2.438,2.438,0,0,1,167,129.185V121.1A2.438,2.438,0,0,1,169.439,118.66Z" transform="translate(-143.061 -116.323)" fill="#fff"/>
  </g>
  <path id="Path_3740" data-name="Path 3740" d="M57.276,77.786A5.912,5.912,0,0,0,53.2,68.5a7.44,7.44,0,0,0-7.979-9.116A9.306,9.306,0,0,0,29.44,55.44a9.305,9.305,0,0,0-15.78,3.943,7.441,7.441,0,0,0-7.976,9.129,5.924,5.924,0,0,0-4.078,9.273,5.662,5.662,0,0,0,3.827,9.889H53.448A5.663,5.663,0,0,0,57.276,77.786Zm-3.827,8.025H5.432A3.789,3.789,0,0,1,3.2,78.893a1.87,1.87,0,0,1,1.309,2.689.934.934,0,0,0,.4,1.256c1.2.624,1.838-1.307,1.611-2.712,2.929-.677,3.705-4.565,1.954-4.565a.93.93,0,0,0-.928.932,1.864,1.864,0,0,1-1.82,1.865,3.706,3.706,0,0,0-2.348-1.321,4.066,4.066,0,0,1,3.15-6.719h0A1.217,1.217,0,0,0,7.67,68.685a5.576,5.576,0,0,1,6.2-7.39,1.274,1.274,0,0,0,1.155-.382,2.042,2.042,0,0,1,2.239-.441c-.814,1.482-.658,4.05.814,3.622a.932.932,0,0,0,.634-1.154,2.049,2.049,0,0,1,3.413-2.027.925.925,0,0,0,1.312,0c1.263-1.27-2.2-3.559-4.862-1.846a3.888,3.888,0,0,0-2.6-.583,7.439,7.439,0,0,1,12.464-1.356c.027.034.057.066.087.1A3.919,3.919,0,0,0,31.579,60.7c.677,3.1,4.737,3.944,4.737,2.149a.93.93,0,0,0-.928-.932,2.049,2.049,0,0,1-1.894-1.28c2.879-.836,3.641-4.7,1.894-4.7a.93.93,0,0,0-.928.932,2.044,2.044,0,0,1-4.068.3c4.792-5.336,11.971-2.459,13.137,3.106a1.281,1.281,0,0,0,1.48,1.012,5.576,5.576,0,0,1,6.235,7.3,1.3,1.3,0,0,0,1.22,1.726,4.024,4.024,0,0,1,3.895,2.947,4.084,4.084,0,0,1-.846,3.761c-2.135.054-2.831-.878-2.824-2.839a.928.928,0,1,0-1.855-.007,4.55,4.55,0,0,0,1.47,3.787,4.555,4.555,0,0,0-1.451,3.77.928.928,0,1,0,1.855-.007,3.019,3.019,0,0,1,.626-2.2,3.622,3.622,0,0,1,2.328-.656C59.035,81.661,56.814,85.811,53.448,85.811Z" transform="translate(0.317 -52.481)"/>
  <path id="Path_3741" data-name="Path 3741" d="M80.343,111.415H79.56v-.588a3.188,3.188,0,0,0-4.609-3.043,3.226,3.226,0,0,0-3.08-2.707,3.291,3.291,0,0,0-3.191,3.413v2.925H62.018v-2.925a3.29,3.29,0,0,0-3.191-3.413,3.226,3.226,0,0,0-3.08,2.707,3.187,3.187,0,0,0-4.609,3.043v.588a3.491,3.491,0,0,0-3.034,1.012c-1.995,2.162-.585,5.9,2.251,5.9h.783v.588a3.188,3.188,0,0,0,4.609,3.043,3.225,3.225,0,0,0,3.122,2.707,3.293,3.293,0,0,0,3.149-3.413v-2.925h6.662v2.925a3.293,3.293,0,0,0,3.149,3.413,3.225,3.225,0,0,0,3.122-2.707,3.187,3.187,0,0,0,4.609-3.043v-.588h.783a3.466,3.466,0,0,0,0-6.91Zm-29.2,4.959h-.783a1.525,1.525,0,0,1-.977-2.57c.486-.529.991-.439,1.76-.439Zm4.54,2.539a1.373,1.373,0,1,1-2.741,0v-8.086a1.373,1.373,0,1,1,2.741,0Zm4.54,2.337a1.373,1.373,0,1,1-2.741,0v-12.76a1.373,1.373,0,1,1,2.741,0Zm8.462-4.876H62.018v-3.009H68.68Zm4.54,4.876a1.411,1.411,0,0,1-1.349,1.463h-.042a1.411,1.411,0,0,1-1.349-1.463v-12.76a1.373,1.373,0,1,1,2.741,0Zm4.54-2.337a1.373,1.373,0,1,1-2.741,0v-8.086a1.373,1.373,0,1,1,2.741,0Zm2.582-2.539H79.56v-3.009h.783a1.509,1.509,0,0,1,0,3.009Z" transform="translate(-35.593 -93.884)"/>
</svg>
