<svg xmlns="http://www.w3.org/2000/svg" width="53.486" height="58.491" viewBox="0 0 53.486 58.491">
  <g id="ebook" transform="translate(-13.12 -2.37)">
    <path id="Path_10808" data-name="Path 10808" d="M17.065,60.688V8.729A2.328,2.328,0,0,1,19.393,6.4H62.265a2.328,2.328,0,0,1,2.328,2.328V60.688a2.328,2.328,0,0,1-2.328,2.328H19.393a2.328,2.328,0,0,1-2.328-2.328Z" transform="translate(-3.027 -3.093)" fill="#ffe2e2"/>
    <path id="Path_10809" data-name="Path 10809" d="M72.57,83.75H38.675a2.328,2.328,0,0,1-2.328-2.328V47.527A2.328,2.328,0,0,1,38.675,45.2h33.9A2.328,2.328,0,0,1,74.9,47.527v33.9A2.328,2.328,0,0,1,72.57,83.75Z" transform="translate(-17.82 -32.859)" fill="#b6418f" opacity="0.54"/>
    <path id="Path_10810" data-name="Path 10810" d="M202.048,8.728V60.687a2.327,2.327,0,0,1-2.328,2.328h-3.492a2.327,2.327,0,0,0,2.328-2.328V8.728A2.327,2.327,0,0,0,196.228,6.4h3.492a2.327,2.327,0,0,1,2.328,2.328Z" transform="translate(-140.482 -3.092)" fill="#ffcfcf"/>
    <path id="Path_10811" data-name="Path 10811" d="M22.888,63.015H19.4a2.327,2.327,0,0,1-2.328-2.328V8.728A2.327,2.327,0,0,1,19.4,6.4h3.492A2.327,2.327,0,0,0,20.56,8.728V60.687A2.327,2.327,0,0,0,22.888,63.015Z" transform="translate(-3.029 -3.092)" fill="#ffefee"/>
    <path id="Path_10812" data-name="Path 10812" d="M182.768,47.528V81.422a2.329,2.329,0,0,1-2.328,2.328h-3.492a2.329,2.329,0,0,0,2.328-2.328V47.528a2.329,2.329,0,0,0-2.328-2.328h3.492A2.329,2.329,0,0,1,182.768,47.528Z" transform="translate(-125.69 -32.86)" fill="#b6418f"/>
    <path id="Path_10813" data-name="Path 10813" d="M42.168,83.75H38.676a2.329,2.329,0,0,1-2.328-2.328V47.528A2.329,2.329,0,0,1,38.676,45.2h3.492a2.329,2.329,0,0,0-2.328,2.328V81.422A2.329,2.329,0,0,0,42.168,83.75Z" transform="translate(-17.821 -32.86)" fill="#b6418f"/>
    <path id="Path_10814" data-name="Path 10814" d="M78.652,70.921c-4.016,0-7.273,1.5-7.273,3.356,0-1.855-3.257-3.356-7.273-3.356s-7.273,1.5-7.273,3.356V92.46H85.925V74.277C85.925,72.422,82.669,70.921,78.652,70.921Z" transform="translate(-33.537 -52.593)" fill="#ffe2e2"/>
    <path id="Path_10815" data-name="Path 10815" d="M133.865,151.83c0,.042,0,.087-.006.129H119.325c0-.042-.006-.087-.006-.129,0-1.853,3.257-3.356,7.273-3.356S133.865,149.977,133.865,151.83Z" transform="translate(-81.477 -112.092)" fill="#ffcfcf"/>
    <path id="Path_10816" data-name="Path 10816" d="M71.378,151.83c0,.042,0,.087-.006.129H56.838c0-.042-.006-.087-.006-.129,0-1.853,3.257-3.356,7.273-3.356S71.378,149.977,71.378,151.83Z" transform="translate(-33.536 -112.092)" fill="#ffcfcf"/>
    <circle id="Ellipse_353" data-name="Ellipse 353" cx="5.742" cy="5.742" r="5.742" transform="translate(32.074 15.553)" fill="#b6418f" opacity="0.77"/>
    <path id="Path_10817" data-name="Path 10817" d="M102.029,70.211a5.742,5.742,0,1,1,0-10.939,5.741,5.741,0,0,0,0,10.939Z" transform="translate(-62.466 -43.447)" fill="#b6418f"/>
    <path id="Path_10818" data-name="Path 10818" d="M164.693,132.731v4.47a8.775,8.775,0,0,1-2.433,6.074,1.124,1.124,0,0,0-.312.782v3.811a2.049,2.049,0,0,1-2.049,2.049h-8.6a2.049,2.049,0,0,1-2.049-2.049v-4.449a1.151,1.151,0,0,0-.3-.771,33.426,33.426,0,0,0-6.134-5.4l-.175-.116a1.023,1.023,0,0,1-.282-1.42l.249-.372a2.828,2.828,0,0,1,3.92-.778l.556.372V121.818a2.159,2.159,0,0,1,4.318,0v9.889h12.263a1.024,1.024,0,0,1,1.024,1.024Z" transform="translate(-99.022 -89.986)" fill="#ffcaa6"/>
    <path id="Path_10819" data-name="Path 10819" d="M195.069,172.434v4.47a8.774,8.774,0,0,1-2.433,6.074,1.124,1.124,0,0,0-.312.782v3.811a2.049,2.049,0,0,1-2.049,2.049h-4.763v-7.4l-2.377-3.114a6.6,6.6,0,0,1-1.355-4.007V171.41h12.263a1.024,1.024,0,0,1,1.024,1.024Z" transform="translate(-129.398 -129.689)" fill="#ffbb98"/>
    <path id="Path_10820" data-name="Path 10820" d="M210.532,171.41H207.04a1.024,1.024,0,0,1,1.024,1.024v4.47a8.774,8.774,0,0,1-2.433,6.074,1.124,1.124,0,0,0-.312.782v3.811a2.049,2.049,0,0,1-2.049,2.049h3.492a2.049,2.049,0,0,0,2.049-2.049V183.76a1.124,1.124,0,0,1,.312-.782,8.774,8.774,0,0,0,2.433-6.074v-4.47A1.024,1.024,0,0,0,210.532,171.41Z" transform="translate(-145.885 -129.689)" fill="#ffaa80"/>
    <g id="Group_1316" data-name="Group 1316" transform="translate(13.12 2.37)">
      <path id="Path_10821" data-name="Path 10821" d="M108.741,226.413h-6.8a.931.931,0,1,0,0,1.862h6.8a.931.931,0,1,0,0-1.862Z" transform="translate(-80.551 -174.258)" fill="#4d2c76"/>
      <circle id="Ellipse_354" data-name="Ellipse 354" cx="1.464" cy="1.464" r="1.464" transform="translate(31.564 6.071) rotate(-67.486)" fill="#4d2c76"/>
      <path id="Path_10822" data-name="Path 10822" d="M171.327,22.934a.924.924,0,1,0-.924-.924A.924.924,0,0,0,171.327,22.934Z" transform="translate(-133.789 -16.729)" fill="#4d2c76"/>
      <path id="Path_10823" data-name="Path 10823" d="M64.651,40.79H62.511V5.629A3.263,3.263,0,0,0,59.252,2.37H16.379A3.263,3.263,0,0,0,13.12,5.629V57.588a3.263,3.263,0,0,0,3.259,3.259c41.209,0,27.735.014,44.5.014a2.983,2.983,0,0,0,2.98-2.98V54.071a.2.2,0,0,1,.055-.14,9.7,9.7,0,0,0,2.69-6.716v-4.47A1.958,1.958,0,0,0,64.651,40.79ZM16.379,58.985a1.4,1.4,0,0,1-1.4-1.4V5.629a1.4,1.4,0,0,1,1.4-1.4H59.252a1.4,1.4,0,0,1,1.4,1.4V40.79H58.023V14.661A3.263,3.263,0,0,0,54.764,11.4H20.87a3.263,3.263,0,0,0-3.259,3.259V48.556a3.263,3.263,0,0,0,3.259,3.259H47.835c.478.476.951.967,1.407,1.471a.22.22,0,0,1,.056.147v4.449a2.978,2.978,0,0,0,.212,1.1ZM43.3,17.5a6.666,6.666,0,0,0-10.958,0c-5.023-.549-9.974,1.255-9.974,4.193V39.866a.948.948,0,0,0,.938.932H47.138v2.568c-2.852-.956-5.179,1.708-4.861,3.312.241,1.218.9,1.047,3.535,3.275H20.87a1.4,1.4,0,0,1-1.4-1.4V14.661a1.4,1.4,0,0,1,1.4-1.4H54.764a1.4,1.4,0,0,1,1.4,1.4V40.79H53.318c0-.017,0-.663,0-19.105C53.321,18.717,48.3,16.935,43.3,17.5Zm-4.523,19.46V27.9a6.679,6.679,0,0,0,5.4-8.607c4.286-.269,7.28,1.292,7.28,2.394V29a3.091,3.091,0,0,0-4.321,2.832v3.746c-2.657-.333-6.1-.045-8.364,1.378Zm8.364.5v1.482h-7.91C40.605,37.654,44.029,37.006,47.138,37.452Zm-22.911-.495V21.685c0-1.092,2.952-2.651,7.228-2.4A6.664,6.664,0,0,0,36.911,27.9v9.052c-3.2-2.012-9.486-2.013-12.685,0Zm12.231,1.977H24.681C27,36.779,34.133,36.775,36.457,38.935ZM33.005,21.3a4.81,4.81,0,1,1,4.812,4.809A4.788,4.788,0,0,1,33.005,21.3ZM64.744,47.215a7.838,7.838,0,0,1-2.171,5.427A2.044,2.044,0,0,0,62,54.071v3.811A1.119,1.119,0,0,1,60.882,59c-.1,0-8.629,0-8.731-.008a1.114,1.114,0,0,1-.99-1.109V53.433c0-.95-.467-1.436-2.279-3.207h0l-.008-.008c-4.828-4.7-5.181-3.334-4.506-4.344a1.9,1.9,0,0,1,2.628-.522l.556.373A.932.932,0,0,0,49,44.95V31.832a1.228,1.228,0,0,1,2.456,0v9.889a.931.931,0,0,0,.931.931H64.651a.093.093,0,0,1,.093.093v4.469Z" transform="translate(-13.12 -2.37)" fill="#4d2c76"/>
      <path id="Path_10825" data-name="Path 10825" d="M99.761,128.834c-1.547-.713-2.081,1.142-.994,1.6q.108.045.215.094A.931.931,0,0,0,99.761,128.834Z" transform="translate(-78.39 -99.271)" fill="#4d2c76"/>
      <path id="Path_10826" data-name="Path 10826" d="M72.544,125.744a10.356,10.356,0,0,0-4.017.85.931.931,0,0,0,.807,1.679,8.636,8.636,0,0,1,3.232-.666.931.931,0,0,0-.022-1.862Z" transform="translate(-55.224 -97.024)" fill="#4d2c76"/>
    </g>
  </g>
</svg>
