<svg xmlns="http://www.w3.org/2000/svg" width="14.3" height="14.3" viewBox="0 0 14.3 14.3">
  <g id="instagram" transform="translate(-5.411 -5.412)">
    <g id="Group_1343" data-name="Group 1343" transform="translate(5.411 5.411)">
      <path id="Path_10883" data-name="Path 10883" d="M119.508,109.468h-5.78a4.265,4.265,0,0,0-4.26,4.26v5.78a4.265,4.265,0,0,0,4.26,4.26h5.78a4.265,4.265,0,0,0,4.26-4.26v-5.78a4.265,4.265,0,0,0-4.26-4.26Zm2.822,10.04a2.821,2.821,0,0,1-2.821,2.821h-5.78a2.821,2.821,0,0,1-2.821-2.821v-5.78a2.822,2.822,0,0,1,2.821-2.822h5.78a2.822,2.822,0,0,1,2.821,2.822Z" transform="translate(-109.468 -109.468)" fill="#f5f5f5"/>
      <path id="Path_10884" data-name="Path 10884" d="M183.9,180.2a3.7,3.7,0,1,0,3.7,3.7,3.7,3.7,0,0,0-3.7-3.7Zm0,5.958a2.26,2.26,0,1,1,2.26-2.26,2.26,2.26,0,0,1-2.26,2.26Z" transform="translate(-176.75 -176.75)" fill="#f5f5f5"/>
    </g>
    <g id="Group_1344" data-name="Group 1344" transform="translate(12.534 5.411)">
      <path id="Path_10885" data-name="Path 10885" d="M315.55,163.5a.886.886,0,1,1-.886-.886.886.886,0,0,1,.886.886Z" transform="translate(-310.93 -160.018)" fill="#d1d1d1"/>
      <path id="Path_10886" data-name="Path 10886" d="M258.344,109.468h-2.918v1.439h2.918a2.822,2.822,0,0,1,2.821,2.822v5.78a2.821,2.821,0,0,1-2.821,2.821h-2.918v1.439h2.918a4.265,4.265,0,0,0,4.26-4.26v-5.78A4.265,4.265,0,0,0,258.344,109.468Z" transform="translate(-255.426 -109.468)" fill="#d1d1d1"/>
      <path id="Path_10887" data-name="Path 10887" d="M255.454,180.2h-.028v1.439h.028a2.26,2.26,0,0,1,0,4.52h-.028V187.6h.028a3.7,3.7,0,0,0,0-7.4Z" transform="translate(-255.426 -176.75)" fill="#d1d1d1"/>
    </g>
  </g>
</svg>
