<svg xmlns="http://www.w3.org/2000/svg" width="52.822" height="58.491" viewBox="0 0 52.822 58.491">
  <g id="knowledge" transform="translate(-13.74 -1.477)">
    <path id="Path_10770" data-name="Path 10770" d="M55.968,87.258c-7.037,0-12.743,2.63-12.743,5.88,0-3.249-5.706-5.88-12.743-5.88s-12.743,2.63-12.743,5.88V125H68.711V93.137C68.711,89.888,63.005,87.258,55.968,87.258Z" transform="translate(-3.074 -65.953)" fill="#ffe2e2"/>
    <path id="Path_10771" data-name="Path 10771" d="M173.248,150.3H160.692a.462.462,0,0,1-.462-.462V137.287h12.555a.462.462,0,0,1,.462.462Z" transform="translate(-112.629 -104.418)" fill="#f9d335"/>
    <path id="Path_10772" data-name="Path 10772" d="M110.67,39.893a7.45,7.45,0,1,0-13.789,3.913,7.654,7.654,0,0,1,1.148,4.029V52.1h10.013V48.4a7.477,7.477,0,0,1,1.3-4.27A7.409,7.409,0,0,0,110.67,39.893Z" transform="translate(-63.069 -23.809)" fill="#f9d335"/>
    <path id="Path_10773" data-name="Path 10773" d="M111.414,124.16h-1.739a4.132,4.132,0,0,1-4.132-4.132v-2.54h10v2.54A4.132,4.132,0,0,1,111.414,124.16Z" transform="translate(-70.583 -89.196)" fill="#87828e"/>
    <path id="Path_10774" data-name="Path 10774" d="M190.107,93.133v31.859H186.64V93.133c0-2.977-4.792-5.437-11.01-5.827.566-.035,1.146-.053,1.734-.053C184.4,87.253,190.107,89.883,190.107,93.133Z" transform="translate(-124.47 -65.949)" fill="#ffcfcf"/>
    <path id="Path_10775" data-name="Path 10775" d="M32.217,87.306c-6.218.391-11.01,2.85-11.01,5.827v31.859H17.74V93.133c0-3.25,5.707-5.88,12.743-5.88C31.07,87.253,31.65,87.271,32.217,87.306Z" transform="translate(-3.075 -65.949)" fill="#ffefee"/>
    <path id="Path_10776" data-name="Path 10776" d="M153.487,229.984c0,.074,0,.152-.011.227H128.011c-.007-.074-.011-.152-.011-.227,0-3.246,5.706-5.88,12.743-5.88S153.487,226.738,153.487,229.984Z" transform="translate(-87.849 -171.168)" fill="#ffe2e2"/>
    <path id="Path_10777" data-name="Path 10777" d="M43.226,229.984c0,.074,0,.152-.011.227H17.75c-.007-.074-.011-.152-.011-.227,0-3.246,5.706-5.88,12.743-5.88S43.226,226.738,43.226,229.984Z" transform="translate(-3.075 -171.168)" fill="#ffe2e2"/>
    <path id="Path_10778" data-name="Path 10778" d="M190.107,229.983c0,.074,0,.153-.009.227H186.63c.007-.074.009-.153.009-.227,0-2.977-4.792-5.437-11.01-5.827.566-.035,1.146-.053,1.734-.053C184.4,224.1,190.107,226.736,190.107,229.983Z" transform="translate(-124.47 -171.167)" fill="#ffcfcf"/>
    <path id="Path_10779" data-name="Path 10779" d="M131.467,229.983c0,.074,0,.153.012.227h-3.467c-.007-.074-.012-.153-.012-.227,0-3.248,5.707-5.88,12.743-5.88.587,0,1.167.018,1.734.053C136.259,224.547,131.467,227.006,131.467,229.983Z" transform="translate(-87.849 -171.167)" fill="#ffefee"/>
    <path id="Path_10780" data-name="Path 10780" d="M79.847,229.983c0,.074,0,.153-.012.227H76.368c.007-.074.012-.153.012-.227,0-2.977-4.792-5.437-11.01-5.827.566-.035,1.146-.053,1.734-.053C74.14,224.1,79.847,226.736,79.847,229.983Z" transform="translate(-39.696 -171.167)" fill="#ffcfcf"/>
    <path id="Path_10781" data-name="Path 10781" d="M21.207,229.983c0,.074,0,.153.009.227H17.749c-.007-.074-.009-.153-.009-.227,0-3.248,5.707-5.88,12.743-5.88.587,0,1.167.018,1.734.053C26,224.547,21.207,227.006,21.207,229.983Z" transform="translate(-3.075 -171.167)" fill="#ffefee"/>
    <path id="Path_10782" data-name="Path 10782" d="M203.48,137.745V150.3h-3.467V137.745a.464.464,0,0,0-.462-.462h3.467a.464.464,0,0,1,.462.462Z" transform="translate(-142.861 -104.415)" fill="#f2c300"/>
    <path id="Path_10783" data-name="Path 10783" d="M164.16,150.3h-3.467a.462.462,0,0,1-.462-.462V137.283H163.7v12.556A.462.462,0,0,0,164.16,150.3Z" transform="translate(-112.629 -104.415)" fill="#f9e27d"/>
    <path id="Path_10784" data-name="Path 10784" d="M183.375,107.363a.548.548,0,0,1,.949,0l2.423,4.2,2.423,4.2a.548.548,0,0,1-.475.822H179a.548.548,0,0,1-.475-.822l2.423-4.2Z" transform="translate(-126.642 -81.201)" fill="#ff4a73"/>
    <circle id="Ellipse_352" data-name="Ellipse 352" cx="5.411" cy="5.411" r="5.411" transform="translate(44.027 39.535)" fill="#3193f3"/>
    <path id="Path_10785" data-name="Path 10785" d="M126.416,117.483v2.54a4.133,4.133,0,0,1-4.133,4.133h-1.738a4.251,4.251,0,0,1-.864-.09,4.133,4.133,0,0,0,3.268-4.043v-2.54Z" transform="translate(-81.452 -89.192)" fill="#796e84"/>
    <path id="Path_10786" data-name="Path 10786" d="M112.276,124.066a4.251,4.251,0,0,1-.864.09h-1.738a4.133,4.133,0,0,1-4.133-4.133v-2.54h3.467v2.54A4.133,4.133,0,0,0,112.276,124.066Z" transform="translate(-70.581 -89.192)" fill="#a4a4a5"/>
    <path id="Path_10787" data-name="Path 10787" d="M129.7,39.894a7.421,7.421,0,0,1-1.324,4.242,7.463,7.463,0,0,0-1.3,4.269v3.7H123.6V48.4a7.463,7.463,0,0,1,1.3-4.269,7.451,7.451,0,0,0-4.387-11.486,6.857,6.857,0,0,1,1.2-.187A7.45,7.45,0,0,1,129.7,39.894Z" transform="translate(-82.098 -23.809)" fill="#f2c300"/>
    <path id="Path_10788" data-name="Path 10788" d="M100.351,43.809a7.659,7.659,0,0,1,1.146,4.029V52.1H98.03V47.837a7.659,7.659,0,0,0-1.146-4.029,7.45,7.45,0,0,1,5.811-11.345,7.5,7.5,0,0,1,2.265.187,7.476,7.476,0,0,0-5.707,6.8A7.4,7.4,0,0,0,100.351,43.809Z" transform="translate(-63.071 -23.811)" fill="#f9e27d"/>
    <path id="Path_10789" data-name="Path 10789" d="M105.543,109.267h10.013v4.265H105.543Z" transform="translate(-70.583 -82.875)" fill="#87828e"/>
    <path id="Path_10790" data-name="Path 10790" d="M133.86,109.263h3.467v4.267H133.86Z" transform="translate(-92.355 -82.872)" fill="#796e84"/>
    <path id="Path_10791" data-name="Path 10791" d="M105.54,109.263h3.467v4.267H105.54Z" transform="translate(-70.581 -82.872)" fill="#a4a4a5"/>
    <path id="Path_10792" data-name="Path 10792" d="M200.878,116.578h-3.467a.548.548,0,0,0,.474-.823l-2.422-4.2-1.163-2.016,1.257-2.182a.549.549,0,0,1,.95,0l2.422,4.2,2.422,4.2A.548.548,0,0,1,200.878,116.578Z" transform="translate(-138.824 -81.2)" fill="#ea2a6a"/>
    <path id="Path_10793" data-name="Path 10793" d="M182,115.755a.547.547,0,0,0,.474.823H179a.547.547,0,0,1-.474-.823l2.422-4.2,2.422-4.2a.549.549,0,0,1,.95,0l1.26,2.182-1.165,2.016Z" transform="translate(-126.641 -81.2)" fill="#f973a3"/>
    <path id="Path_10794" data-name="Path 10794" d="M167.825,171.534a5.413,5.413,0,0,1-7.145,5.127,5.412,5.412,0,0,0,0-10.254,5.413,5.413,0,0,1,7.145,5.127Z" transform="translate(-112.975 -126.589)" fill="#307fed"/>
    <path id="Path_10795" data-name="Path 10795" d="M151.915,176.661a5.411,5.411,0,1,1,0-10.254,5.412,5.412,0,0,0,0,10.254Z" transform="translate(-100.743 -126.589)" fill="#35b1fc"/>
    <g id="Group_1315" data-name="Group 1315" transform="translate(13.74 1.477)">
      <path id="Path_10796" data-name="Path 10796" d="M52.894,41.113a26.087,26.087,0,0,0-5.989.666A8.377,8.377,0,1,0,31.79,36.323a9.08,9.08,0,0,0,1.537,5.439,26.075,26.075,0,0,0-5.92-.65c-7.665,0-13.668,2.989-13.668,6.8V79.777a.938.938,0,0,0,.936.925H65.626a.93.93,0,0,0,.936-.925V47.918c0-3.816-6-6.8-13.668-6.8ZM27.408,42.962a23.378,23.378,0,0,1,6.562.878h0c.081.594.062.212.062,7.725a5.062,5.062,0,0,0,5.192,5.058v19.46c-2.348-2.013-6.715-3.338-11.819-3.338s-9.47,1.324-11.819,3.338V47.918c0-2.344,4.854-4.956,11.819-4.956ZM34.6,40.244a6.524,6.524,0,1,1,10.917.289A8.317,8.317,0,0,0,44.069,44.7c-.026.388-.021.571-.021,1.5H35.884c0-.128,0-1.539,0-1.66a8.607,8.607,0,0,0-1.283-4.3ZM64.713,76.083C62.364,74.07,58,72.745,52.894,72.745s-9.47,1.324-11.819,3.338V56.616a5.063,5.063,0,0,0,4.812-5.051c0-6.956-.018-6.832.15-7.635a23.029,23.029,0,0,1,6.856-.969c6.964,0,11.819,2.612,11.819,4.956ZM44.048,48.05V48.1c0,1.6-.009,2.194-.009,2.367H35.884V48.05Zm-4.822,4.267h4.722a3.211,3.211,0,0,1-3.118,2.457h-1.6a3.22,3.22,0,0,1-3.252-2.457ZM64.574,78.852H41.214c.839-2.136,5.4-4.258,11.68-4.258S63.735,76.716,64.574,78.852Zm-48.846,0c.839-2.136,5.4-4.258,11.68-4.258s10.841,2.122,11.68,4.258Z" transform="translate(-13.74 -22.21)" fill="#4d2c76"/>
      <path id="Path_10797" data-name="Path 10797" d="M52,123.772h8.109a.925.925,0,0,0,0-1.849H52A.925.925,0,0,0,52,123.772Z" transform="translate(-42.451 -94.082)" fill="#4d2c76"/>
      <path id="Path_10798" data-name="Path 10798" d="M38.08,147.722H52.624a.925.925,0,0,0,0-1.849H38.08A.925.925,0,0,0,38.08,147.722Z" transform="translate(-31.749 -112.496)" fill="#4d2c76"/>
      <path id="Path_10799" data-name="Path 10799" d="M52.624,169.823H38.08a.925.925,0,0,0,0,1.849H52.624A.925.925,0,0,0,52.624,169.823Z" transform="translate(-31.749 -130.91)" fill="#4d2c76"/>
      <path id="Path_10800" data-name="Path 10800" d="M52.624,193.763H38.08a.925.925,0,0,0,0,1.849H52.624A.925.925,0,0,0,52.624,193.763Z" transform="translate(-31.749 -149.317)" fill="#4d2c76"/>
      <path id="Path_10801" data-name="Path 10801" d="M156.151,103.834a1.475,1.475,0,0,0-2.55,0L150,110.078h-4.727a.924.924,0,0,0-.925.925v6.377a6.335,6.335,0,1,0,8.818,7.565h5.125a.924.924,0,0,0,.925-.925v-9.583h.511a1.475,1.475,0,0,0,1.276-2.21Zm-5.469,8.754,4.193-7.265,4.2,7.265Zm-3.576,14.978a4.487,4.487,0,1,1,4.487-4.487v.016A4.5,4.5,0,0,1,147.106,127.566Zm10.256-4.47h-3.92v-.016a6.342,6.342,0,0,0-7.249-6.269v-4.884h2.734c-.9,1.556.165,2.51,1.1,2.51h7.332Z" transform="translate(-111.407 -79.611)" fill="#4d2c76"/>
      <path id="Path_10802" data-name="Path 10802" d="M63.77,100.6H63.8c.127,0,.254,0,.384,0h.021a.925.925,0,0,0,.016-1.849c-.141,0-.282,0-.421,0H63.77A.925.925,0,0,0,63.77,100.6Z" transform="translate(-51.501 -76.268)" fill="#4d2c76"/>
      <path id="Path_10803" data-name="Path 10803" d="M31.946,103.828a6.575,6.575,0,0,1,3.539-1.734.924.924,0,0,0-.4-1.8c-3.229.723-4.463,2.231-4.593,2.4A.925.925,0,0,0,31.946,103.828Z" transform="translate(-26.454 -77.43)" fill="#4d2c76"/>
      <path id="Path_10804" data-name="Path 10804" d="M125.849,5.127V2.393a.925.925,0,0,0-1.849,0V5.126a.925.925,0,0,0,1.849,0Z" transform="translate(-98.514 -1.477)" fill="#4d2c76"/>
      <path id="Path_10805" data-name="Path 10805" d="M141.342,14.17l1.932-1.932a.924.924,0,0,0-1.307-1.307l-1.932,1.932A.924.924,0,0,0,141.342,14.17Z" transform="translate(-110.621 -8.527)" fill="#4d2c76"/>
      <path id="Path_10806" data-name="Path 10806" d="M101.981,14.171a.924.924,0,0,0,1.307-1.307l-1.932-1.932a.924.924,0,0,0-1.307,1.307Z" transform="translate(-79.881 -8.528)" fill="#4d2c76"/>
      <path id="Path_10807" data-name="Path 10807" d="M116.232,58.254l1.78.233-1.96,2.023a1.047,1.047,0,0,0,1.5,1.459l3.409-3.518a1.052,1.052,0,0,0-.617-1.771l-1.8-.236,1.445-1.523a1.047,1.047,0,0,0-1.521-1.44l-2.857,3.014-.009.009A1.047,1.047,0,0,0,116.232,58.254Z" transform="translate(-91.842 -41.198)" fill="#4d2c76"/>
    </g>
  </g>
</svg>
