<svg xmlns="http://www.w3.org/2000/svg" xmlns:xlink="http://www.w3.org/1999/xlink" width="370.301" height="233.869" viewBox="0 0 370.301 233.869"><defs><clipPath id="a"><rect width="370.301" height="233.869" fill="none"/></clipPath></defs><g clip-path="url(#a)"><g transform="translate(-166.2 -147.044)"><g transform="translate(201.721 147.044)"><path d="M399.767,795.169a57.984,57.984,0,0,0-115.967,0C289.455,795.021,391.389,795.169,399.767,795.169Z" transform="translate(-283.8 -562.477)" fill="#f9f3ff"/><path d="M806.408,678.1A107.2,107.2,0,0,0,592,678.1C602.451,677.838,790.924,678.1,806.408,678.1Z" transform="translate(-500.754 -445.412)" fill="#f9f3ff"/><g transform="translate(149.778)"><path d="M884.41,323.965h-91.75A2.969,2.969,0,0,1,789.7,321V264.161a2.969,2.969,0,0,1,2.961-2.961h91.75a2.969,2.969,0,0,1,2.961,2.961V321A2.932,2.932,0,0,1,884.41,323.965Z" transform="translate(-789.7 -227.403)" fill="#f9f3ff"/><g transform="translate(9.859 25.063)"><path d="M826.665,294.873A2.653,2.653,0,0,1,824,292.208V232.7h97.108v59.508a2.653,2.653,0,0,1-2.664,2.665Z" transform="translate(-823.704 -232.404)" fill="#fff"/><path d="M920.108,232.292V291.5a2.375,2.375,0,0,1-2.368,2.368H825.961a2.375,2.375,0,0,1-2.369-2.368V232.292h96.516m.592-.592H823v59.8a2.969,2.969,0,0,0,2.961,2.961H917.74A2.969,2.969,0,0,0,920.7,291.5V231.7Z" transform="translate(-823 -231.7)" fill="#ccc"/></g><path d="M920.7,222.352H823v-6.691a2.969,2.969,0,0,1,2.961-2.961H917.74a2.969,2.969,0,0,1,2.961,2.961Z" transform="translate(-813.141 -193.262)" fill="#4d2c76"/><path d="M943.494,189.338s2.25-11.28-.474-18.5c-1.924-5.063-9.03-11.339-5.418-20.073,3.375-8.2,14.8-.5,20.576,1.066s7.964,5.566,5.98,18.237c-.711,4.5-.592,9.03,9.356,13.737s5.477,23.567-9.74,16.639C952.05,195.052,939.912,203.431,943.494,189.338Z" transform="translate(-893.104 -147.044)" fill="#4d2c76"/><path d="M980.947,232.681l-3.109,11.428L964.9,235.168l5.181-3.523-.059-3.345.03-2.013.148-7.846,9.237-5.24Z" transform="translate(-913.03 -193.614)" fill="#d793ff"/><path d="M857.8,234.968a16.616,16.616,0,0,1,9.208-.74S861.116,238.64,857.8,234.968Z" transform="translate(-837.638 -208.188)" fill="#0879f9"/><path d="M867.636,187.285l-2.4,3.494.355,6.1-7.342,1.184-.3-4.382-1.125-3.908a4.606,4.606,0,0,1-.03-.592c.118-1.184,1.3-.8,1.3-.8a2.6,2.6,0,0,1,.059-.5.42.42,0,0,1,.059-.178c.355-1.036,1.569-.355,1.569-.355a2.447,2.447,0,0,1,.03-.681c.03-.059.03-.148.059-.207.385-.977,1.658-.563,1.658-.563V185.8l-.859-7.135a1.132,1.132,0,0,1,1.066-1.273,1.162,1.162,0,0,1,1.214.977l1.51,9.533,1.243-1.6a1.156,1.156,0,0,1,1.6-.5A1.1,1.1,0,0,1,867.636,187.285Z" transform="translate(-836.934 -168.409)" fill="#d793ff"/><path d="M870.136,209.513a1.026,1.026,0,0,1-1.214-.563c0-.03-.03-.059-.03-.089l-.592-2.013h0a.729.729,0,0,1-.03-.355c.414-.977,1.688-.533,1.688-.533v-.089a1.113,1.113,0,0,1,.266.444l.592,2.013A.967.967,0,0,1,870.136,209.513Z" transform="translate(-845 -188.447)" fill="#d793ff"/><path d="M859.584,214.043a.9.9,0,0,1-1.747.148l-.237-.77a1.241,1.241,0,0,1,1.362-1.066.753.753,0,0,1,.089-.355l.5,1.688A.5.5,0,0,1,859.584,214.043Z" transform="translate(-837.497 -192.769)" fill="#d793ff"/><path d="M864.047,212.336a.979.979,0,0,1-1.155-.474c-.03-.059-.059-.148-.089-.207l-.5-1.688c.03-.059.03-.118.059-.178a1.284,1.284,0,0,1,1.747-.74l.592,2.013A.984.984,0,0,1,864.047,212.336Z" transform="translate(-840.806 -190.618)" fill="#d793ff"/><path d="M987.68,304.261c-.74-8.734-2.132-21.968-2.132-21.968a9.5,9.5,0,0,0-9.06-8.408l-11.073-.385h-.148c.178,4.263-5.152,8.527-9.829,6.691-4.411-1.688-1.214-5.832-.8-6.365-6.247.918-13.2,4-11.783,16.165.829,7.046.74,27.889.711,33.337h31.945c.03-.326.266-7.668.3-7.934,1.6.118,2.961.207,3.79.3C983.3,316.015,988.568,314.8,987.68,304.261Z" transform="translate(-897.381 -236.061)" fill="#ccc"/><path d="M894.645,246.991l-5.832.148a15.006,15.006,0,0,0-8.793,3.138l-8.971,6.987L866.9,235s-4.737,2.013-9.207.74c-.059,0,1.747,24.455,4.707,33.07,2.605,7.579,26.823-5.211,26.823-5.211l3.346-15.454Z" transform="translate(-837.565 -208.96)" fill="#ccc"/><path d="M923.428,351.459,903,350.541V322.8l20.428.918Z" transform="translate(-869.456 -270.765)" fill="#4d2c76"/><path d="M988.58,377.5s-3.257,1.688-1.6,10.1C986.981,387.566,989.853,384.1,988.58,377.5Z" transform="translate(-928.243 -309.271)" fill="#999"/><path d="M950.685,372.725l-5.714-.77a1,1,0,0,0-1.214.711h0a.984.984,0,0,0,.888,1.184l4.678.977-6.6-.711a.926.926,0,0,0-1.036.77v.03a.931.931,0,0,0,.8,1.036l6.839,1.007-4.855-.326a.847.847,0,0,0-.148,1.688l4.8.651c0,.059-3.316-.089-3.316-.089a.847.847,0,1,0-.148,1.688l7.342.089,3.049.8A11.889,11.889,0,0,0,957.109,378a14.485,14.485,0,0,0,.03-4.352l-2.487-.5-4.086-2.842A21.514,21.514,0,0,1,950.685,372.725Z" transform="translate(-896.683 -304.2)" fill="#d793ff"/><path d="M1037.8,346.971c4.026-5.8,4.944-13.471,4.944-13.471l.3,13.915S1037.8,347,1037.8,346.971Z" transform="translate(-964.347 -278.297)" fill="#999"/><path d="M989.1,411.5s14.27.918,20.695,1.392" transform="translate(-930.065 -333.205)" fill="none" stroke="#999" stroke-linecap="round" stroke-linejoin="round" stroke-miterlimit="10" stroke-width="2"/><path d="M1011.9,378.949s-18-.681-18-.651" transform="translate(-933.444 -309.832)" fill="none" stroke="#999" stroke-linecap="round" stroke-linejoin="round" stroke-miterlimit="10" stroke-width="2"/><path d="M970.7,189.19a1.972,1.972,0,0,0-2.842-.178,2.936,2.936,0,0,0-2.99-2.517c-2.635,0-12.079,2.072-15.6-4.8a53.4,53.4,0,0,0-.326,12.227c.563,4.559,1.48,8.971,8.793,10.1,9.829,1.51,10.1-7.52,10.1-7.52l.178-3.4C970.876,194.016,972.031,190.671,970.7,189.19Z" transform="translate(-901.627 -171.44)" fill="#d793ff"/><path d="M987.363,255.6s-2.22,2.753-5.063,2.576l.03-2.013A17.038,17.038,0,0,0,987.363,255.6Z" transform="translate(-925.279 -223.461)" fill="#b656ff"/><line x2="1.007" y2="3.197" transform="translate(22.856 18.491)" fill="none" stroke="#b656ff" stroke-linecap="round" stroke-linejoin="round" stroke-miterlimit="10" stroke-width="2"/><line x2="0.74" y2="2.28" transform="translate(21.198 19.705)" fill="none" stroke="#b656ff" stroke-linecap="round" stroke-linejoin="round" stroke-miterlimit="10" stroke-width="2"/><line x2="0.829" y2="2.694" transform="translate(24.573 17.484)" fill="none" stroke="#b656ff" stroke-linecap="round" stroke-linejoin="round" stroke-miterlimit="10" stroke-width="2"/></g><g transform="translate(236.05 70.835)"><g transform="translate(24.277)"><path d="M1193.772,386.3h-28.3a2.376,2.376,0,0,0-2.369,2.368v18.3a2.376,2.376,0,0,0,2.369,2.368h28.3a2.376,2.376,0,0,0,2.369-2.368v-18.3A2.357,2.357,0,0,0,1193.772,386.3Z" transform="translate(-1163.1 -386.3)" fill="#fffbf3"/></g><path d="M1127.641,427.6h-44.172a2.375,2.375,0,0,0-2.369,2.368v29.34a2.375,2.375,0,0,0,2.369,2.368h44.172a2.375,2.375,0,0,0,2.368-2.368v-29.34A2.375,2.375,0,0,0,1127.641,427.6Z" transform="translate(-1081.1 -415.373)" fill="#b6418f"/><path d="M1108.1,444.888l1.895,1.688,3.553-3.375" transform="translate(-1100.107 -426.354)" fill="none" stroke="#fff" stroke-linecap="round" stroke-linejoin="round" stroke-miterlimit="10" stroke-width="4"/><line x2="21.02" transform="translate(19.451 18.533)" fill="none" stroke="#fff" stroke-linecap="round" stroke-linejoin="round" stroke-miterlimit="10" stroke-width="4"/><path d="M1108.1,468.888l1.895,1.688,3.553-3.375" transform="translate(-1100.107 -443.249)" fill="none" stroke="#fff" stroke-linecap="round" stroke-linejoin="round" stroke-miterlimit="10" stroke-width="4"/><line x2="21.02" transform="translate(19.451 25.639)" fill="none" stroke="#fff" stroke-linecap="round" stroke-linejoin="round" stroke-miterlimit="10" stroke-width="4"/><path d="M1108.1,492.888l1.895,1.688,3.553-3.375" transform="translate(-1100.107 -460.143)" fill="none" stroke="#fff" stroke-linecap="round" stroke-linejoin="round" stroke-miterlimit="10" stroke-width="4"/><line x2="21.02" transform="translate(19.451 32.744)" fill="none" stroke="#fff" stroke-linecap="round" stroke-linejoin="round" stroke-miterlimit="10" stroke-width="4"/><path d="M1108.1,516.888l1.895,1.688,3.553-3.375" transform="translate(-1100.107 -477.038)" fill="none" stroke="#fff" stroke-linecap="round" stroke-linejoin="round" stroke-miterlimit="10" stroke-width="4"/><line x2="21.02" transform="translate(19.451 39.85)" fill="none" stroke="#fff" stroke-linecap="round" stroke-linejoin="round" stroke-miterlimit="10" stroke-width="4"/></g><g transform="translate(76.739 71.579)"><path d="M839.526,657H779.1v2.072h60.041Z" transform="translate(-709.2 -577.601)" fill="#11578a"/><path d="M817.558,657H779.1v2.072h38.429Z" transform="translate(-709.2 -577.601)" fill="#30a9fa"/><path d="M891.618,592.379H853.1l4.441-26.2a1.175,1.175,0,0,1,1.155-.977h36.12a1.159,1.159,0,0,1,1.155,1.392Z" transform="translate(-761.291 -512.979)" fill="#aee2ff"/><path d="M857.8,593.94,862,569.1h36.12l-4.2,24.84Z" transform="translate(-764.6 -515.724)" fill="#fff"/><path d="M912.427,590.094a10.205,10.205,0,0,1-9.563,7.994c-4.411,0-7.283-3.582-6.425-7.994A10.205,10.205,0,0,1,906,582.1C910.413,582.1,913.285,585.682,912.427,590.094Z" transform="translate(-791.693 -524.876)"/><path d="M919.679,599.408l-6.04-3.908-1.539,7.846Z" transform="translate(-802.824 -534.309)" fill="#fff"/><path d="M802.8,627.9s1.984,3.612.888,9.8C803.69,637.7,799.515,633.081,802.8,627.9Z" transform="translate(-724.996 -557.116)" fill="#ccc"/><path d="M830.1,643.7s-.622,1.214-2.605.622-6.069-1.836-6.632-2.043-1.48-.059-.74.474-3.612.533-2.043-1.717S828.593,641.63,830.1,643.7Z" transform="translate(-736.399 -565.783)" fill="#ff81cd"/><path d="M793.507,632.9s6.691-.474,8.615-.74,8.586,3.079,11.1,4.471,1.362,2.339-1.066,1.54-6.721-2.191-8.26-2.694c-1.243-.414-2.28,1.54-.533,1.717s2.783.918,2.783,1.362c0,1.155-1.214.888-2.665.859a34.3,34.3,0,0,1-5.862-.77,16.329,16.329,0,0,0-4.323.178Z" transform="translate(-719.196 -560.107)" fill="#ffb1df"/><path d="M702.646,617.637l-6.425.5-3.849.326-16.195,1.3a21.868,21.868,0,0,1-11.31-2.132L658,610l5.625-10.6,10.51,8.734,20.9-.207h0l6.721-.059C701.758,607.838,700.959,613.7,702.646,617.637Z" transform="translate(-623.953 -537.054)"/><path d="M777.949,638.344l-3.849.326,2.665-10.569h0Z" transform="translate(-705.68 -557.257)" fill="#f5f5f5"/><rect width="3.73" height="79.315" transform="translate(171.183 81.738)" fill="#11578a"/><rect width="3.73" height="79.315" transform="translate(135.063 81.738)" fill="#11578a"/><rect width="3.73" height="79.315" transform="translate(39.85 81.738)" fill="#11578a"/><rect width="3.73" height="77.598" transform="translate(4.53 83.426)" fill="#11578a"/><rect width="169.88" height="5.892" transform="translate(8.556 81.472)" fill="#ccc"/><rect width="136.958" height="5.892" transform="translate(0 81.472)" fill="#4d2c76"/><path d="M886.9,503.6a24.255,24.255,0,0,1,7.461,6.188S889.417,512.127,886.9,503.6Z" transform="translate(-785.084 -469.617)" fill="#11578a"/><rect width="4.737" height="40.62" transform="translate(39.228 114.039)" fill="#77589e"/><path d="M905.933,870.58l-9,4.5-3.2-6.188-.74-1.48-.977-1.924-.918-1.776,8.971-4.411.148.3.947,1.836.622,1.155Z" transform="translate(-788.041 -720.007)" fill="#ffb1df"/><path d="M841.89,760.6l-11.1,6.188-14.3-26.971-.03-.089-7.165-13.53c.237-6.928-7.076-7.727-5.832-8.527,9.3-6.01,14-5.388,16.757-2.339a3.552,3.552,0,0,1,.5.622l3.257,6.839Z" transform="translate(-726.248 -617.071)" fill="#b6418f"/><path d="M855.15,728.061c-2.753,6.336-6.839,15.632-7.461,17.024l-.089.178.03-.267,3.76-24.4a3.546,3.546,0,0,1,.5.622Z" transform="translate(-757.419 -622.371)" fill="#4d2c76"/><path d="M910,876.416a11.258,11.258,0,0,0,7.786-6.78s15.306-9.474,17.557-7.55c1.984,1.658-15.6,16.875-20.28,20.872a1.191,1.191,0,0,1-1.836-.355Z" transform="translate(-801.345 -721.787)" fill="#4d2c76"/><path d="M785.722,879.118l-9.622-2.99,2.013-6.691.474-1.569.622-2.043.563-1.924,9.533,3.049-.089.3-.563,1.984-.385,1.243Z" transform="translate(-707.088 -723.245)" fill="#ffb1df"/><path d="M740.306,747.959l12.523-40.383c2.368-7.431.859-14.359-10.54-17.231A131.441,131.441,0,0,0,718.93,687s-16.875,18.711-10.629,18.711c9.533,0,23.241.059,29.458.059l-9.74,38.962Z" transform="translate(-658.385 -598.719)" fill="#b6418f"/><path d="M657.9,691.876l.592,6.484a10.49,10.49,0,0,0,10.451,9.533h10.688l7.49-17.793Z" transform="translate(-623.883 -600.901)" fill="#b656ff"/><path d="M892.313,476.062c1.243-1.776-.888-1.717-.888-1.717a1.378,1.378,0,0,0-.859-2.339l3.7-5.033a1.054,1.054,0,0,0-.089-1.6l-.03-.03a1.313,1.313,0,0,0-1.658.474l-7.846,9.681L880.5,479.97,886.836,485l2.724-3.849,3.257-2.9C894.148,476.654,892.313,476.062,892.313,476.062Z" transform="translate(-780.579 -442.582)" fill="#ffb1df"/><path d="M708.827,445.435a3.8,3.8,0,0,1-2.013,1.332,6.7,6.7,0,0,1-4.026-.178v14.063L691.3,459.083l2.516-16.313h1.628a7.533,7.533,0,0,1-.74-1.066l-.148-.947L691.863,424l16.787,2.487S712.646,440.7,708.827,445.435Z" transform="translate(-647.394 -413.583)" fill="#ffb1df"/><path d="M684.932,566.732l1.658-41.774a9.754,9.754,0,0,0-10.3-10.1l-23.093,1.273a8.992,8.992,0,0,0-8.467,9.74l3.878,42.633S666.339,571.765,684.932,566.732Z" transform="translate(-614.588 -477.533)"/><path d="M736,495.978a3.8,3.8,0,0,1-2.013,1.332,6.7,6.7,0,0,1-4.026-.178L729.9,495.8s3.849,2.546,6.069.237A.1.1,0,0,1,736,495.978Z" transform="translate(-674.566 -464.126)" fill="#ff81cd"/><path d="M771.8,508.633l16.668,13.145L805.847,503.6a14.712,14.712,0,0,0,7.461,6.188l-18.741,22.767a8.474,8.474,0,0,1-10.3,2.221l-10.392-5.151Z" transform="translate(-704.061 -469.617)"/><path d="M690.046,406.1a40.522,40.522,0,0,1,.118,5.092c-.178,1.243-.414,1.688-1.125.681-.681-.977-1.717-1.628-2.4-.178s-.059,3.612,1.984,3.4c2.013-.237-.059,2.516-.711,3.227s-5.744,6.01-8.556.059-7.964-20.9-1.6-23.152,12.938-3.612,16.047-5.655c6.069-3.967,9.356,8.586,5.625,12.553S690.046,406.1,690.046,406.1Z" transform="translate(-635.719 -388.815)" fill="#4d2c76"/><rect width="10.333" height="3.79" transform="translate(44.232 53.168)" fill="#4d2c76"/><path d="M634.185,625.954H595.993a2.954,2.954,0,0,1-2.931-2.665l-5.3-51.633a2.949,2.949,0,0,1,2.931-3.257H625.6a2.954,2.954,0,0,1,2.931,2.665Z" transform="translate(-574.499 -515.232)" fill="#664391"/><rect width="4.885" height="4.885" transform="translate(57.406 105.838)" fill="#4d2c76"/><path d="M755.076,621.532H737.253a2.953,2.953,0,0,1-2.931-2.665l-4.915-47.9a2.953,2.953,0,0,0-2.931-2.665H724.7l5.655,54.919a2.954,2.954,0,0,0,2.931,2.665h21.82a2.154,2.154,0,0,0,2.161-2.161h0A2.205,2.205,0,0,0,755.076,621.532Z" transform="translate(-670.906 -515.161)" fill="#4d2c76"/><path d="M771.913,903.5a11.329,11.329,0,0,0,10.333.5s17.586,3.76,17.912,6.721c.266,2.576-22.945,1.362-29.1,1.007a1.19,1.19,0,0,1-1.066-1.51Z" transform="translate(-702.753 -751.121)" fill="#4d2c76"/><path d="M669.743,766.186H655.976a1.782,1.782,0,0,1-1.776-1.776V762.9h17.32v1.51A1.782,1.782,0,0,1,669.743,766.186Z" transform="translate(-621.278 -652.148)" fill="#4d2c76"/><g transform="translate(27.09 150.987)"><path d="M638.645,908.748H634.5V904.07a5.282,5.282,0,0,1,5.27-5.27h9.237v4.145H639.77a1.125,1.125,0,0,0-1.125,1.125Z" transform="translate(-634.5 -898.8)" fill="#4d2c76"/></g><g transform="translate(41.478 150.987)"><path d="M697.607,908.748h-4.145V904.07a1.125,1.125,0,0,0-1.125-1.125H683.1V898.8h9.237a5.282,5.282,0,0,1,5.27,5.27Z" transform="translate(-683.1 -898.8)" fill="#4d2c76"/></g><line x1="5.033" y1="3.049" transform="translate(66.466 57.816)" fill="none" stroke="#4d2c76" stroke-linecap="round" stroke-linejoin="round" stroke-miterlimit="10" stroke-width="2"/></g><g transform="translate(240.485 159.686)"><path d="M1230.7,760.053s7.757-4.026,9.059,6.04,13.382,3.73,13.382,3.73,1.717-13.086-9.474-15.188C1233.6,752.711,1230.7,760.053,1230.7,760.053Z" transform="translate(-1190.844 -734.21)" fill="#13e0ce"/><path d="M1227.41,772.566s-7.076-13.234-15.632-5.122-7.9,22.649-7.9,22.649" transform="translate(-1171.952 -741.6)" fill="none" stroke="#11578a" stroke-linecap="round" stroke-linejoin="round" stroke-miterlimit="10" stroke-width="2"/><path d="M1194.963,721.638s-7.668-28.54,8.083-34.2c13.708-4.915,18.8,9.3,18.8,9.3a13.211,13.211,0,0,1-11.931,2.9C1197.6,696.887,1194.963,721.638,1194.963,721.638Z" transform="translate(-1164.374 -686.41)" fill="#13e0ce"/><path d="M1118.616,807.834s-7.757-4.026-9.06,6.04-13.382,3.73-13.382,3.73-1.717-13.086,9.474-15.188C1115.685,800.462,1118.616,807.834,1118.616,807.834Z" transform="translate(-1096.08 -767.839)" fill="#13e0ce"/><path d="M1137.206,766.429s-6.543-14.951-11.31-7.046c-4,6.6-9.3,2.25-9.3,2.25s.3-11.1,8.911-11.931C1135.962,748.7,1137.206,766.429,1137.206,766.429Z" transform="translate(-1110.525 -730.934)" fill="#13e0ce"/><path d="M1221,813.24s5.388-3.908,7.49,3.523c2.132,7.431,10.481,1.273,10.481,1.273s-.178-10.036-8.852-10.362C1222.362,807.378,1221,813.24,1221,813.24Z" transform="translate(-1184.016 -771.765)" fill="#13e0ce"/><path d="M1149.819,788.24s-3.02-40.679-18.119-22.145" transform="translate(-1121.154 -739.097)" fill="none" stroke="#11578a" stroke-linecap="round" stroke-linejoin="round" stroke-miterlimit="10" stroke-width="2"/><path d="M1198.53,749.96s-3.434-52.551,18.326-43.077" transform="translate(-1168.059 -700.017)" fill="none" stroke="#11578a" stroke-linecap="round" stroke-linejoin="round" stroke-miterlimit="10" stroke-width="2"/><path d="M1117.2,818.417s11.547-17.7,20.813,3.819" transform="translate(-1110.947 -774.514)" fill="none" stroke="#11578a" stroke-linecap="round" stroke-linejoin="round" stroke-miterlimit="10" stroke-width="2"/><path d="M1213.3,825.379s2.013-16.106,13.086-8.467" transform="translate(-1178.596 -776.828)" fill="none" stroke="#11578a" stroke-linecap="round" stroke-linejoin="round" stroke-miterlimit="10" stroke-width="2"/><path d="M1187.309,851.048a24.228,24.228,0,0,1-.326,3.7,24.926,24.926,0,0,1-5.477,12.109,11.268,11.268,0,0,1-1.273,1.332h-6.987a14.611,14.611,0,0,1-1.332-1.332,23.751,23.751,0,0,1-5.714-15.721,46.249,46.249,0,0,1,1.362-10.036h18.415A38.449,38.449,0,0,1,1187.309,851.048Z" transform="translate(-1145.44 -795.302)" fill="#00468c"/><path d="M1185.829,851.048a24.244,24.244,0,0,1-.326,3.7,24.927,24.927,0,0,1-5.477,12.109,11.273,11.273,0,0,1-1.273,1.332h-5.507a14.611,14.611,0,0,1-1.332-1.332,23.751,23.751,0,0,1-5.714-15.721,46.249,46.249,0,0,1,1.362-10.036H1184.5A38.452,38.452,0,0,1,1185.829,851.048Z" transform="translate(-1145.44 -795.302)" fill="#005ad8"/></g><g transform="translate(67.68 42.117)"><path d="M512.4,367.636l3.079-9.5a12.821,12.821,0,1,1,11.043,6.306,13.047,13.047,0,0,1-4.707-.888Z" transform="translate(-512.4 -324.145)" fill="#4d2c76"/><circle cx="1.095" cy="1.095" r="1.095" transform="translate(19.096 25.935)" fill="#fff"/><circle cx="1.095" cy="1.095" r="1.095" transform="translate(13.441 25.935)" fill="#fff"/><circle cx="1.095" cy="1.095" r="1.095" transform="translate(7.757 25.935)" fill="#fff"/><path d="M594.842,318.136l-3.079-9.5a12.821,12.821,0,1,0-11.043,6.306,13.048,13.048,0,0,0,4.707-.888Z" transform="translate(-551.469 -289.3)" fill="#b6418f"/><circle cx="1.095" cy="1.095" r="1.095" transform="translate(22.086 11.31)" fill="#fff"/><circle cx="1.095" cy="1.095" r="1.095" transform="translate(27.771 11.31)" fill="#fff"/><circle cx="1.095" cy="1.095" r="1.095" transform="translate(33.425 11.31)" fill="#fff"/></g><g transform="translate(18.711 97.095)"><g transform="translate(26.231 78.249)"><rect width="10.155" height="25.343" fill="#b52886"/></g><g transform="translate(0 35.616)"><path d="M0,0H10.54V99.862H0Z" transform="translate(12.803 99.88) rotate(180)"/><g transform="translate(8.586 77.243)"><rect width="24.721" height="19.451" transform="translate(1.51)" fill="#b6418f"/><g transform="translate(1.51)"><rect width="24.721" height="4.678" fill="#cf5faa"/></g><g transform="translate(21.731)"><rect width="9.089" height="19.451" fill="#b52886"/></g><g transform="translate(21.731)"><rect width="9.089" height="4.678" fill="#ae2781"/></g><rect width="32.33" height="3.701" fill="#b6418f"/></g><path d="M496.51,595.3H485.2v99.862h11.31a1.782,1.782,0,0,0,1.776-1.776V597.076A1.782,1.782,0,0,0,496.51,595.3Z" transform="translate(-444.284 -595.3)"/><path d="M348.776,595.3A1.782,1.782,0,0,0,347,597.076v96.309a1.782,1.782,0,0,0,1.776,1.776H388.33a1.782,1.782,0,0,0,1.776-1.776V597.076a1.782,1.782,0,0,0-1.776-1.776Zm35.705,96.724H352.625a1.782,1.782,0,0,1-1.776-1.776v-22a1.782,1.782,0,0,1,1.776-1.776h31.856a1.782,1.782,0,0,1,1.776,1.776v22A1.782,1.782,0,0,1,384.481,692.023Zm0-28.718H352.625a1.782,1.782,0,0,1-1.776-1.776V634.2a1.782,1.782,0,0,1,1.776-1.776h31.856a1.782,1.782,0,0,1,1.776,1.776v27.327A1.782,1.782,0,0,1,384.481,663.305Zm0-34.047H352.625a1.782,1.782,0,0,1-1.776-1.776V600.244a1.782,1.782,0,0,1,1.776-1.776h31.856a1.782,1.782,0,0,1,1.776,1.776v27.238A1.782,1.782,0,0,1,384.481,629.258Z" transform="translate(-347 -595.3)" fill="#3e3d3d"/></g><g transform="translate(15.543)"><path d="M414.344,509.474h0a22.5,22.5,0,0,1-6.513-8.171,19.95,19.95,0,0,1-1.3-4.115,22.942,22.942,0,0,1-.444-6.188,20.913,20.913,0,0,1,8.26,18.474Z" transform="translate(-404.1 -486.263)" fill="#13e0ce"/><path d="M414.46,509.474h0c-.118-.089-8.26-18.474-8.26-18.474a20.913,20.913,0,0,1,8.26,18.474Z" transform="translate(-404.216 -486.263)" fill="#13bad2"/><path d="M431.878,486.676a25.419,25.419,0,0,1-3.109,11.517,25.742,25.742,0,0,1-2.872-11.576,25.419,25.419,0,0,1,3.109-11.517A25.59,25.59,0,0,1,431.878,486.676Z" transform="translate(-418.082 -475.07)" fill="#13e0ce"/><path d="M438.709,486.606a25.418,25.418,0,0,1-3.109,11.517L435.837,475A25.789,25.789,0,0,1,438.709,486.606Z" transform="translate(-424.912 -475)" fill="#13bad2"/><path d="M444.031,500.692a22.553,22.553,0,0,1-6.04,8.527,20.894,20.894,0,0,1,7.194-18.918A22.552,22.552,0,0,1,444.031,500.692Z" transform="translate(-426.475 -485.77)" fill="#13e0ce"/><path d="M444.44,500.762a22.552,22.552,0,0,1-6.04,8.527l7.224-18.889A23.182,23.182,0,0,1,444.44,500.762Z" transform="translate(-426.883 -485.84)" fill="#13bad2"/><path d="M449.073,519.428a15.884,15.884,0,0,1-5.773,4.737,15.826,15.826,0,0,1,2.753-6.928,16.143,16.143,0,0,1,5.773-4.737A15.825,15.825,0,0,1,449.073,519.428Z" transform="translate(-430.332 -501.398)" fill="#13e0ce"/><path d="M449.073,519.428a15.884,15.884,0,0,1-5.773,4.737l8.5-11.665A15.155,15.155,0,0,1,449.073,519.428Z" transform="translate(-430.332 -501.398)" fill="#13bad2"/><path d="M402.253,519.428a15.883,15.883,0,0,0,5.773,4.737,15.825,15.825,0,0,0-2.753-6.928A16.143,16.143,0,0,0,399.5,512.5,16.27,16.27,0,0,0,402.253,519.428Z" transform="translate(-399.5 -501.398)" fill="#13e0ce"/><path d="M408.027,524.165a15.825,15.825,0,0,0-2.753-6.928A16.143,16.143,0,0,0,399.5,512.5Z" transform="translate(-399.5 -501.398)" fill="#13bad2"/><path d="M423.12,550.8l-.5,1.865-3.079,11.31h-9.356l-3.079-11.31-.5-1.865Z" transform="translate(-404.498 -528.359)" fill="#b6418f"/><path d="M423.12,550.8l-.5,1.865H407.1l-.5-1.865Z" transform="translate(-404.498 -528.359)" fill="#b52886"/><rect width="17.675" height="2.132" transform="translate(1.451 21.228)" fill="#b6418f"/></g><rect width="7.55" height="21.968" transform="translate(20.765 103.611) rotate(180)" fill="#3f1870"/><rect width="7.55" height="21.968" transform="translate(38.144 103.611) rotate(180)" fill="#3f1870"/><rect width="4.352" height="19.214" transform="translate(17.616 84.407)" fill="#13e0ce"/><rect width="4.352" height="19.214" transform="translate(34.935 84.407)" fill="#13e0ce"/><rect width="4.352" height="15.839" transform="translate(30.613 87.753)" fill="#30a9fa"/><rect width="4.352" height="15.839" transform="translate(13.234 87.753)" fill="#30a9fa"/><rect width="4.352" height="21.968" transform="translate(26.231 81.624)" fill="#4d2c76"/><rect width="4.352" height="21.968" transform="translate(8.852 81.624)" fill="#4d2c76"/><path d="M443,664.385l4.559-19.185,2.961,19.185" transform="translate(-414.578 -594.81)" fill="#11578a"/><rect width="4.352" height="25.343" transform="translate(21.879 78.249)" fill="#b6418f"/><path d="M405.509,641.2H389.285a1.175,1.175,0,0,0-1.155.977l-3.168,18a1.2,1.2,0,0,0,1.155,1.391h16.224a1.175,1.175,0,0,0,1.155-.977l3.168-18A1.172,1.172,0,0,0,405.509,641.2Z" transform="translate(-373.712 -591.994)" fill="#13e0ce"/><path d="M390.2,663.608l3.049-17.409h15.632L405.8,663.608Z" transform="translate(-377.41 -595.514)" fill="#fff"/></g></g><line x2="368.301" transform="translate(167.2 379.913)" fill="none" stroke="#11578a" stroke-linecap="round" stroke-linejoin="round" stroke-miterlimit="10" stroke-width="2"/></g></g></svg>