<svg xmlns="http://www.w3.org/2000/svg" width="67.255" height="58.491" viewBox="0 0 67.255 58.491">
  <g id="learning-support" transform="translate(-1.91 -18.34)">
    <path id="Path_10827" data-name="Path 10827" d="M50.329,69.237c-8.177,0-14.807,3.056-14.807,6.832,0-3.776-6.63-6.832-14.807-6.832S5.907,72.293,5.907,76.069v37.018H65.136V76.069C65.136,72.293,58.505,69.237,50.329,69.237Z" transform="translate(-2.931 -37.323)" fill="#ffe2e2"/>
    <path id="Path_10828" data-name="Path 10828" d="M181.777,76.07v37.02h-4V76.07c0-3.462-5.574-6.318-12.807-6.769.653-.04,1.323-.061,2-.061C175.147,69.24,181.777,72.3,181.777,76.07Z" transform="translate(-119.573 -37.325)" fill="#ffcfcf"/>
    <path id="Path_10829" data-name="Path 10829" d="M22.717,69.3C15.484,69.752,9.91,72.608,9.91,76.07v37.02h-4V76.07c0-3.774,6.63-6.83,14.807-6.83C21.394,69.24,22.064,69.261,22.717,69.3Z" transform="translate(-2.933 -37.325)" fill="#ffefee"/>
    <path id="Path_10830" data-name="Path 10830" d="M146.564,213.885c0,.086,0,.177-.012.263h-29.59c-.008-.086-.012-.177-.012-.263,0-3.772,6.63-6.832,14.807-6.832S146.564,210.113,146.564,213.885Z" transform="translate(-84.36 -138.384)" fill="#ffe2e2"/>
    <path id="Path_10831" data-name="Path 10831" d="M35.522,213.885c0,.086,0,.177-.012.263H5.92c-.008-.086-.012-.177-.012-.263,0-3.772,6.63-6.832,14.807-6.832S35.522,210.113,35.522,213.885Z" transform="translate(-2.932 -138.384)" fill="#ffe2e2"/>
    <path id="Path_10832" data-name="Path 10832" d="M181.777,213.883c0,.085,0,.176-.011.264h-4c.008-.088.011-.179.011-.264,0-3.459-5.574-6.321-12.807-6.769.653-.043,1.323-.064,2-.064C175.147,207.05,181.777,210.112,181.777,213.883Z" transform="translate(-119.573 -138.382)" fill="#ffcfcf"/>
    <path id="Path_10833" data-name="Path 10833" d="M120.95,213.883c0,.085.005.176.013.264h-4c-.008-.088-.013-.179-.013-.264,0-3.771,6.63-6.833,14.807-6.833.677,0,1.347.021,2,.064C126.524,207.562,120.95,210.424,120.95,213.883Z" transform="translate(-84.36 -138.382)" fill="#ffefee"/>
    <path id="Path_10834" data-name="Path 10834" d="M70.737,213.883c0,.085-.005.176-.013.264h-4c.008-.088.013-.179.013-.264,0-3.459-5.574-6.321-12.807-6.769.653-.043,1.323-.064,2-.064C64.107,207.05,70.737,210.112,70.737,213.883Z" transform="translate(-38.147 -138.382)" fill="#ffcfcf"/>
    <path id="Path_10835" data-name="Path 10835" d="M9.91,213.883c0,.085,0,.176.011.264h-4c-.008-.088-.011-.179-.011-.264,0-3.771,6.63-6.833,14.807-6.833.677,0,1.347.021,2,.064C15.484,207.562,9.91,210.424,9.91,213.883Z" transform="translate(-2.933 -138.382)" fill="#ffefee"/>
    <circle id="Ellipse_355" data-name="Ellipse 355" cx="12.349" cy="12.349" r="12.349" transform="translate(43.401 19.408)" fill="#f9d335"/>
    <path id="Path_10836" data-name="Path 10836" d="M210.638,34.691A12.348,12.348,0,0,1,198.29,47.039a12.679,12.679,0,0,1-2-.16,12.353,12.353,0,0,0,0-24.379,12.678,12.678,0,0,1,2-.16,12.349,12.349,0,0,1,12.348,12.351Z" transform="translate(-142.54 -2.933)" fill="#f2c300"/>
    <path id="Path_10837" data-name="Path 10837" d="M171.838,46.879a12.679,12.679,0,0,1-2,.16,12.349,12.349,0,0,1,0-24.7,12.678,12.678,0,0,1,2,.16,12.353,12.353,0,0,0,0,24.379Z" transform="translate(-114.088 -2.933)" fill="#f9e27d"/>
    <g id="Group_1317" data-name="Group 1317" transform="translate(1.91 18.34)">
      <path id="Path_10838" data-name="Path 10838" d="M40.571,106.314h9.422a1.067,1.067,0,0,0,0-2.134H40.571A1.067,1.067,0,0,0,40.571,106.314Z" transform="translate(-29.485 -81.287)" fill="#4d2c76"/>
      <path id="Path_10839" data-name="Path 10839" d="M26.552,130.424h16.9a1.067,1.067,0,0,0,0-2.134h-16.9A1.067,1.067,0,0,0,26.552,130.424Z" transform="translate(-19.204 -98.967)" fill="#4d2c76"/>
      <path id="Path_10840" data-name="Path 10840" d="M26.551,154.544h16.9a1.067,1.067,0,0,0,0-2.134h-16.9a1.067,1.067,0,0,0,0,2.134Z" transform="translate(-19.204 -116.654)" fill="#4d2c76"/>
      <path id="Path_10841" data-name="Path 10841" d="M26.551,178.664h16.9a1.067,1.067,0,0,0,0-2.134h-16.9A1.067,1.067,0,0,0,26.551,178.664Z" transform="translate(-19.204 -134.342)" fill="#4d2c76"/>
      <path id="Path_10842" data-name="Path 10842" d="M55.75,18.34a13.43,13.43,0,0,0-13.4,12.9c-4.51.728-8.07,2.414-9.756,4.6-2.278-2.952-7.974-5-14.807-5-8.9,0-15.874,3.47-15.874,7.9v37.02a1.083,1.083,0,0,0,1.077,1.067H62.194a1.068,1.068,0,0,0,1.077-1.067v-32.9A13.414,13.414,0,0,0,55.75,18.34Zm0,24.7A11.282,11.282,0,1,1,67.031,31.757,11.3,11.3,0,0,1,55.75,43.039ZM17.784,32.982c8.1,0,13.74,3.038,13.74,5.763V71.487C28.8,69.145,23.72,67.6,17.784,67.6S6.766,69.145,4.044,71.487V38.745c0-2.726,5.643-5.763,13.74-5.763ZM4.2,74.7c.965-2.488,6.275-4.963,13.583-4.963S30.4,72.21,31.366,74.7Zm29.614,0c.965-2.488,6.275-4.963,13.583-4.963S60.015,72.21,60.98,74.7Zm27.323-3.211c-2.723-2.342-7.8-3.886-13.74-3.886s-11.017,1.544-13.74,3.886V38.745c0-2.126,3.43-4.44,8.777-5.358a13.412,13.412,0,0,0,18.7,10.654Z" transform="translate(-1.91 -18.34)" fill="#4d2c76"/>
      <path id="Path_10843" data-name="Path 10843" d="M151.893,129.484h9.425a1.067,1.067,0,0,0,0-2.134h-9.425A1.067,1.067,0,0,0,151.893,129.484Z" transform="translate(-111.118 -98.278)" fill="#4d2c76"/>
      <path id="Path_10844" data-name="Path 10844" d="M137.873,153.6h16.9a1.067,1.067,0,0,0,0-2.134h-16.9A1.067,1.067,0,0,0,137.873,153.6Z" transform="translate(-100.837 -115.965)" fill="#4d2c76"/>
      <path id="Path_10845" data-name="Path 10845" d="M154.776,175.58h-16.9a1.067,1.067,0,0,0,0,2.134h16.9A1.067,1.067,0,0,0,154.776,175.58Z" transform="translate(-100.837 -133.645)" fill="#4d2c76"/>
      <path id="Path_10846" data-name="Path 10846" d="M191.177,38.22a4.59,4.59,0,0,0-4.587,4.587,1.067,1.067,0,0,0,2.134,0,2.454,2.454,0,1,1,2.454,2.454,1.064,1.064,0,0,0-1.064,1.016.324.324,0,0,0,0,.051v4.091a1.067,1.067,0,0,0,2.134,0v-3.15a3.935,3.935,0,0,0,.5-.152,4.587,4.587,0,0,0-1.571-8.9Z" transform="translate(-137.337 -32.918)" fill="#4d2c76"/>
      <circle id="Ellipse_356" data-name="Ellipse 356" cx="1.211" cy="1.211" r="1.211" transform="matrix(0.987, -0.16, 0.16, 0.987, 52.442, 20.139)" fill="#4d2c76"/>
    </g>
  </g>
</svg>
