<svg xmlns="http://www.w3.org/2000/svg" width="33.803" height="36.711" viewBox="0 0 33.803 36.711"><path d="M17.071,40.49h-.645A1.426,1.426,0,0,1,15,39.064V6.36a1.426,1.426,0,0,1,1.426-1.426h.645A1.426,1.426,0,0,1,18.5,6.36v32.7A1.426,1.426,0,0,1,17.071,40.49Z" transform="translate(-14.422 -4.356)" fill="#fff"/><path d="M218.867,40.49h-.645a1.426,1.426,0,0,1-1.426-1.426V6.36a1.426,1.426,0,0,1,1.426-1.426h.645a1.426,1.426,0,0,1,1.426,1.426v32.7A1.426,1.426,0,0,1,218.867,40.49Z" transform="translate(-187.067 -4.356)" fill="#fff"/><g transform="translate(8.131 4.255)"><path d="M68.545,34.234H68a.713.713,0,0,1-.713-.713V31.1A.713.713,0,0,1,68,30.388h.547a.713.713,0,0,1,.713.713v2.421A.713.713,0,0,1,68.545,34.234Z" transform="translate(-67.285 -30.388)" fill="#b6418f"/><path d="M102.685,34.234h-.547a.713.713,0,0,1-.713-.713V31.1a.713.713,0,0,1,.713-.713h.547a.713.713,0,0,1,.713.713v2.421A.713.713,0,0,1,102.685,34.234Z" transform="translate(-96.493 -30.388)" fill="#b6418f"/><path d="M136.823,34.234h-.547a.713.713,0,0,1-.713-.713V31.1a.713.713,0,0,1,.713-.713h.547a.713.713,0,0,1,.713.713v2.421A.713.713,0,0,1,136.823,34.234Z" transform="translate(-125.7 -30.388)" fill="#b6418f"/><path d="M136.51,90.433h-.547a.713.713,0,0,1-.713-.713V87.3a.713.713,0,0,1,.713-.713h.547a.713.713,0,0,1,.713.713V89.72A.713.713,0,0,1,136.51,90.433Z" transform="translate(-125.432 -78.468)" fill="#b6418f"/><path d="M109.511,146.633h-.547a.713.713,0,0,1-.713-.713V143.5a.713.713,0,0,1,.713-.713h.547a.713.713,0,0,1,.713.713v2.421A.713.713,0,0,1,109.511,146.633Z" transform="translate(-102.333 -126.549)" fill="#b6418f"/><path d="M143.65,146.633H143.1a.713.713,0,0,1-.713-.713V143.5a.713.713,0,0,1,.713-.713h.547a.713.713,0,0,1,.713.713v2.421A.713.713,0,0,1,143.65,146.633Z" transform="translate(-131.54 -126.549)" fill="#b6418f"/><path d="M136.51,202.832h-.547a.713.713,0,0,1-.713-.713V199.7a.713.713,0,0,1,.713-.713h.547a.713.713,0,0,1,.713.713v2.421A.713.713,0,0,1,136.51,202.832Z" transform="translate(-125.432 -174.631)" fill="#b6418f"/><path d="M170.648,202.832H170.1a.713.713,0,0,1-.713-.713V199.7a.713.713,0,0,1,.713-.713h.547a.713.713,0,0,1,.713.713v2.421A.713.713,0,0,1,170.648,202.832Z" transform="translate(-154.638 -174.631)" fill="#b6418f"/><path d="M75.374,146.633h-.547a.713.713,0,0,1-.713-.713V143.5a.713.713,0,0,1,.713-.713h.547a.713.713,0,0,1,.713.713v2.421A.713.713,0,0,1,75.374,146.633Z" transform="translate(-73.127 -126.549)" fill="#b6418f"/><path d="M170.648,90.433H170.1a.713.713,0,0,1-.713-.713V87.3a.713.713,0,0,1,.713-.713h.547a.713.713,0,0,1,.713.713V89.72A.713.713,0,0,1,170.648,90.433Z" transform="translate(-154.638 -78.468)" fill="#b6418f"/></g><path d="M17.676,40.354a1.4,1.4,0,0,1-.6.136h-.646A1.426,1.426,0,0,1,15,39.064V6.36a1.426,1.426,0,0,1,1.426-1.426h.646a1.4,1.4,0,0,1,.6.136,1.421,1.421,0,0,0-.823,1.29v32.7A1.421,1.421,0,0,0,17.676,40.354Z" transform="translate(-14.422 -4.356)" fill="#ccc"/><path d="M225.16,6.36v32.7a1.426,1.426,0,0,1-1.426,1.426h-.646a1.4,1.4,0,0,1-.6-.136,1.425,1.425,0,0,0,.821-1.29V6.36a1.425,1.425,0,0,0-.821-1.29,1.4,1.4,0,0,1,.6-.136h.646A1.426,1.426,0,0,1,225.16,6.36Z" transform="translate(-191.934 -4.356)" fill="#ccc"/><path d="M42.8.934h-.645a2.006,2.006,0,0,0-2,2v3.6H31.544V5.9a1.292,1.292,0,0,0-1.291-1.291h-.547A1.292,1.292,0,0,0,28.416,5.9v.632h-1.8V5.9a1.292,1.292,0,0,0-1.291-1.291h-.547A1.292,1.292,0,0,0,23.484,5.9v.632h-1.8V5.9a1.292,1.292,0,0,0-1.291-1.291h-.547A1.292,1.292,0,0,0,18.553,5.9v.632h-2.9v-3.6a2.006,2.006,0,0,0-2-2H13a2.006,2.006,0,0,0-2,2v32.7a2.006,2.006,0,0,0,2,2h.645a2.006,2.006,0,0,0,2-2v-3.6H28.371v.632a1.292,1.292,0,0,0,1.291,1.291h.547A1.292,1.292,0,0,0,31.5,32.678v-.632h1.8v.632a1.292,1.292,0,0,0,1.291,1.291h.547a1.292,1.292,0,0,0,1.291-1.291v-.632h3.72v3.6a2.006,2.006,0,0,0,2,2H42.8a2.006,2.006,0,0,0,2-2V2.937a2.006,2.006,0,0,0-2-2ZM14.5,35.642a.849.849,0,0,1-.848.848H13a.849.849,0,0,1-.848-.848V2.937A.849.849,0,0,1,13,2.09h.645a.849.849,0,0,1,.848.848ZM29.572,5.9a.135.135,0,0,1,.135-.135h.547a.135.135,0,0,1,.135.135V8.323a.135.135,0,0,1-.135.135h-.547a.135.135,0,0,1-.135-.135Zm-4.931,0a.135.135,0,0,1,.135-.135h.547a.135.135,0,0,1,.135.135V8.323a.135.135,0,0,1-.135.135h-.547a.135.135,0,0,1-.135-.135Zm-4.932,0a.135.135,0,0,1,.135-.135h.547a.135.135,0,0,1,.135.135V8.323a.135.135,0,0,1-.135.135h-.547a.135.135,0,0,1-.135-.135ZM30.344,31.464s0,0,0,0,0,0,0,0v1.207a.135.135,0,0,1-.135.135h-.547a.135.135,0,0,1-.135-.135v-1.2s0,0,0-.006,0,0,0-.006v-1.2a.135.135,0,0,1,.135-.135h.547a.135.135,0,0,1,.135.135Zm4.931,0s0,0,0,.006,0,0,0,.006v1.2a.135.135,0,0,1-.135.135h-.547a.135.135,0,0,1-.135-.135V31.472s0,0,0,0,0,0,0,0V30.257a.135.135,0,0,1,.135-.135h.547a.135.135,0,0,1,.135.135Zm4.876-.572h-3.72v-.633a1.292,1.292,0,0,0-1.291-1.291h-.547A1.292,1.292,0,0,0,33.3,30.257v.633H31.5v-.633a1.292,1.292,0,0,0-1.291-1.291h-.547a1.292,1.292,0,0,0-1.291,1.291v.633H15.652V23.926h3.887v.633A1.292,1.292,0,0,0,20.83,25.85h.547a1.292,1.292,0,0,0,1.291-1.291v-.633h1.8v.633a1.292,1.292,0,0,0,1.291,1.291h.547A1.292,1.292,0,0,0,27.6,24.559v-.633h1.8v.633a1.292,1.292,0,0,0,1.291,1.291h.547a1.292,1.292,0,0,0,1.291-1.291v-.633h7.62V30.89ZM20.695,23.345V22.138A.135.135,0,0,1,20.83,22h.547a.135.135,0,0,1,.135.135v1.2s0,0,0,.006,0,0,0,.006v1.2a.135.135,0,0,1-.135.135H20.83a.135.135,0,0,1-.135-.135V23.352s0,0,0,0S20.695,23.346,20.695,23.345Zm4.931,0V22.138A.135.135,0,0,1,25.762,22h.547a.135.135,0,0,1,.135.135v2.421a.135.135,0,0,1-.135.135h-.547a.135.135,0,0,1-.135-.135v-1.21h0Zm4.932,1.212V22.138A.135.135,0,0,1,30.693,22h.547a.135.135,0,0,1,.135.135v2.421a.135.135,0,0,1-.135.135h-.547A.135.135,0,0,1,30.558,24.559Zm9.593-1.789h-7.62v-.632a1.292,1.292,0,0,0-1.291-1.291h-.547A1.292,1.292,0,0,0,29.4,22.138v.632H27.6v-.632a1.292,1.292,0,0,0-1.291-1.291h-.547a1.292,1.292,0,0,0-1.291,1.291v.632h-1.8v-.632a1.292,1.292,0,0,0-1.291-1.291H20.83a1.292,1.292,0,0,0-1.291,1.291v.632H15.652V15.809H28.371v.632a1.292,1.292,0,0,0,1.291,1.291h.547A1.292,1.292,0,0,0,31.5,16.441v-.632h1.8v.632a1.292,1.292,0,0,0,1.291,1.291h.547a1.292,1.292,0,0,0,1.291-1.291v-.632h3.72v6.962ZM29.527,15.224v-1.2a.135.135,0,0,1,.135-.135h.547a.135.135,0,0,1,.135.135v1.207s0,0,0,0,0,0,0,0v1.207a.135.135,0,0,1-.135.135h-.547a.135.135,0,0,1-.135-.135v-1.2s0,0,0-.006,0,0,0-.006Zm4.931,0V14.02a.135.135,0,0,1,.135-.135h.547a.135.135,0,0,1,.135.135v1.205s0,0,0,.006,0,0,0,.006v1.2a.135.135,0,0,1-.135.135h-.547a.135.135,0,0,1-.135-.135V15.235s0,0,0,0,0,0,0,0Zm5.693-.574h-3.72V14.02a1.292,1.292,0,0,0-1.291-1.291h-.547A1.292,1.292,0,0,0,33.3,14.02v.633H31.5V14.02a1.292,1.292,0,0,0-1.291-1.291h-.547a1.292,1.292,0,0,0-1.291,1.291v.633H15.652V7.69h2.9v.633a1.292,1.292,0,0,0,1.291,1.291h.547a1.292,1.292,0,0,0,1.291-1.291V7.69h1.8v.633a1.292,1.292,0,0,0,1.291,1.291h.547a1.292,1.292,0,0,0,1.291-1.291V7.69h1.8v.633a1.292,1.292,0,0,0,1.291,1.291h.547a1.292,1.292,0,0,0,1.291-1.291V7.69h8.606v6.963Zm3.5,20.989a.849.849,0,0,1-.848.848h-.645a.849.849,0,0,1-.848-.848V2.937a.849.849,0,0,1,.848-.848H42.8a.849.849,0,0,1,.848.848Z" transform="translate(-11 -0.934)" fill="#4d2c76"/></svg>