<svg xmlns="http://www.w3.org/2000/svg" width="286.701" height="316.818" viewBox="0 0 286.701 316.818">
  <g id="path-right" transform="translate(-1082.674 -5898.488)">
    <path id="Shape" d="M47.039.615C54.793-.836,63.257.514,71.153,2.25a8.524,8.524,0,0,1,6.726,6.664c.534,2.448.526,4.864.924,7.382a88.5,88.5,0,0,1,.75,12.061c.088,6.046.973,11.981.877,18.036-.065,4.088.063,7.458-1.336,11.287a35.622,35.622,0,0,1-9.768,14.006c-6.328,5.59-15.738,7.5-23.915,7.966-3.922.222-8.458,1.166-12.357.607a69.378,69.378,0,0,0-7.33-1.074c-3.262-.094-5.691-1.646-8.735-2.387-5.532-1.346-10.418-4.07-15.22-7.07-4.094-2.558.063-8.938,1.157-12.576C7.919,40.541,16.313,20.631,30.109,9.566,35.492,5.244,40.132,1.907,47.039.615Z" transform="translate(1082.672 6134.873)" fill="#4d2c76"/>
    <path id="Shape-2" data-name="Shape" d="M77.868.015c33-.476,62.149,10.242,88.8,28.586,3.518,2.556,15.115,8.574,13.084,14.118-3.663,10-15.806,16.874-21.907,25.255C149.894,78.9,138.508,87.09,130.4,98.221,113.667,121.19,87.249,137.3,69.484,159.543c-2.54,3.18-23.948,25.552-27.636,21.69-19.7-20.622-29.866-52.272-38.422-78.9l-.182-.562C-8.209,66.136,12.088,37.053,41.808,17.987,52.98,10.82,63.7.219,77.868.015Z" transform="translate(1158.044 5923.381)" fill="#b6418f"/>
    <path id="Shape-3" data-name="Shape" d="M73.741,128.245a37.32,37.32,0,0,1-9.83-1.374,51.825,51.825,0,0,1-9.27-3.6,104.559,104.559,0,0,1-16.506-10.687c-4.353-3.323-8.145-6.442-11.577-9.515a121,121,0,0,1-11.09-11.215A76.886,76.886,0,0,1,6.421,79.019,51.021,51.021,0,0,1,1,64.623,48.337,48.337,0,0,1,.2,50.462,46.658,46.658,0,0,1,3.436,37.319a53.033,53.033,0,0,1,6.8-11.908,65.856,65.856,0,0,1,9.919-10.456A61.29,61.29,0,0,1,39.839,3.726,66.416,66.416,0,0,1,50.826.93,69.792,69.792,0,0,1,62.2,0,72.313,72.313,0,0,1,74.445,1.051a72.849,72.849,0,0,1,34.129,15.675c3.78,3.132,6.513,5.583,8.859,7.947a54.336,54.336,0,0,1,6.83,8.24,43.179,43.179,0,0,1,4.791,9.659,59.045,59.045,0,0,1,2.764,12.142,103.188,103.188,0,0,1,.924,14.216,69.882,69.882,0,0,1-1.313,13.223,60.874,60.874,0,0,1-10.975,24.471c-4.017,5.474-10.1,10.173-18.093,13.967a93.146,93.146,0,0,1-22.559,7.1,33.191,33.191,0,0,1-6.061.558ZM62.215,1.694h0A68.094,68.094,0,0,0,51.123,2.6a64.735,64.735,0,0,0-10.7,2.722A59.584,59.584,0,0,0,21.272,16.238a64.187,64.187,0,0,0-9.658,10.176A51.3,51.3,0,0,0,5.022,37.951,45.007,45.007,0,0,0,1.906,50.645a46.66,46.66,0,0,0,.771,13.647A49.353,49.353,0,0,0,7.924,78.209a75.168,75.168,0,0,0,8.847,12.553A119.359,119.359,0,0,0,27.7,101.815c3.4,3.045,7.154,6.131,11.475,9.431a102.541,102.541,0,0,0,16.241,10.518,50.054,50.054,0,0,0,8.933,3.469,35.611,35.611,0,0,0,9.386,1.316,31.465,31.465,0,0,0,5.751-.529,91.372,91.372,0,0,0,22.133-6.956c7.73-3.671,13.6-8.192,17.448-13.437a59.239,59.239,0,0,0,10.68-23.8A68.212,68.212,0,0,0,131.032,68.9a101.562,101.562,0,0,0-.91-13.968,57.374,57.374,0,0,0-2.681-11.8,41.467,41.467,0,0,0-4.606-9.284,52.711,52.711,0,0,0-6.62-7.983c-2.306-2.325-5-4.742-8.736-7.838A71.152,71.152,0,0,0,62.217,1.694Z" transform="translate(1132.17 6029.689)"/>
    <path id="Shape-4" data-name="Shape" d="M1.563,3.89H1.5A1.442,1.442,0,0,1,.7,3.641a1.511,1.511,0,0,1-.553-.812,2.424,2.424,0,0,1-.1-1.283A1.626,1.626,0,0,1,.625.627,3.492,3.492,0,0,1,2.58,0h.033a.472.472,0,0,1,.281.092l.064.045L2.97.145A3.018,3.018,0,0,1,4.162,1.494,1.671,1.671,0,0,1,4.05,2.869a1.559,1.559,0,0,1-1.19.848c-.143.016-.286.041-.438.069l-.016,0-.169.031a4.046,4.046,0,0,1-.674.07ZM2.482.96a2.469,2.469,0,0,0-1.261.4.7.7,0,0,0-.254.4,1.556,1.556,0,0,0,.077.787.619.619,0,0,0,.2.323.513.513,0,0,0,.291.075h.044a3.026,3.026,0,0,0,.5-.056l.049-.008.039-.011.061-.011.019,0c.161-.029.344-.062.516-.082a.6.6,0,0,0,.45-.348.744.744,0,0,0,.072-.579,1.99,1.99,0,0,0-.8-.885Z" transform="translate(1353.361 6032.148)"/>
    <path id="Shape-5" data-name="Shape" d="M1.562,3.89H1.5a1.439,1.439,0,0,1-.8-.248,1.507,1.507,0,0,1-.553-.812,2.472,2.472,0,0,1-.1-1.283A1.634,1.634,0,0,1,.625.627,3.487,3.487,0,0,1,2.579,0h.034a.481.481,0,0,1,.281.09c.014.012.029.022.043.032l.021.015L2.97.145A3.018,3.018,0,0,1,4.162,1.494h0a1.673,1.673,0,0,1-.116,1.375,1.557,1.557,0,0,1-1.187.848c-.141.015-.285.041-.438.068L2.4,3.789l-.157.029a4.062,4.062,0,0,1-.676.071ZM2.483.96a2.475,2.475,0,0,0-1.263.4.7.7,0,0,0-.253.4,1.546,1.546,0,0,0,.077.787.608.608,0,0,0,.2.323.5.5,0,0,0,.289.075h.044a3.059,3.059,0,0,0,.5-.056l.091-.02h.016l.043-.008h.007c.156-.028.349-.063.528-.084a.6.6,0,0,0,.45-.35.742.742,0,0,0,.072-.577A1.978,1.978,0,0,0,2.483.96Z" transform="translate(1356.137 6046.112)"/>
    <path id="Shape-6" data-name="Shape" d="M1.565,3.89H1.5a1.447,1.447,0,0,1-.8-.248,1.511,1.511,0,0,1-.553-.812,2.472,2.472,0,0,1-.1-1.282A1.636,1.636,0,0,1,.625.627,3.5,3.5,0,0,1,2.579,0h.033a.47.47,0,0,1,.281.092l.031.02.032.022h0A3.023,3.023,0,0,1,4.162,1.494v0a1.668,1.668,0,0,1-.116,1.371,1.557,1.557,0,0,1-1.187.848c-.134.015-.267.038-.42.065l-.021,0-.183.034A3.889,3.889,0,0,1,1.565,3.89ZM2.483.96a2.487,2.487,0,0,0-1.263.4.689.689,0,0,0-.251.4,1.549,1.549,0,0,0,.075.787.608.608,0,0,0,.2.323.5.5,0,0,0,.289.075h.044a3.059,3.059,0,0,0,.5-.056l.093-.02h.013l.043-.007h0c.157-.028.352-.064.532-.084a.6.6,0,0,0,.45-.348.74.74,0,0,0,.072-.579,1.978,1.978,0,0,0-.8-.889Z" transform="translate(1333.492 6048.531)"/>
    <path id="Shape-7" data-name="Shape" d="M1.569,3.888H1.5A1.447,1.447,0,0,1,.7,3.639a1.51,1.51,0,0,1-.553-.812,2.47,2.47,0,0,1-.1-1.282A1.631,1.631,0,0,1,.625.626,3.473,3.473,0,0,1,2.579,0h.04a.454.454,0,0,1,.276.091l.02.015.044.033a3.006,3.006,0,0,1,1.2,1.354v0a1.67,1.67,0,0,1-.116,1.373,1.558,1.558,0,0,1-1.187.848c-.149.016-.3.043-.436.07l-.163.029-.02,0a3.933,3.933,0,0,1-.671.07ZM2.483.956a2.472,2.472,0,0,0-1.261.4.685.685,0,0,0-.254.4,1.551,1.551,0,0,0,.075.787.606.606,0,0,0,.2.322.513.513,0,0,0,.291.075h.046a3.037,3.037,0,0,0,.5-.056l.148-.026h.01c.155-.028.348-.062.523-.082h0a.609.609,0,0,0,.453-.348.751.751,0,0,0,.072-.579,2,2,0,0,0-.8-.893Z" transform="translate(1316.169 6051.842)"/>
    <path id="Shape-8" data-name="Shape" d="M1.562,3.89H1.5a1.447,1.447,0,0,1-.8-.248,1.519,1.519,0,0,1-.553-.814,2.461,2.461,0,0,1-.1-1.281A1.648,1.648,0,0,1,.625.625,3.51,3.51,0,0,1,2.579,0h.034a.48.48,0,0,1,.281.09c.014.012.029.022.043.032l.021.015h0a3.023,3.023,0,0,1,1.2,1.357h0a1.673,1.673,0,0,1-.116,1.375,1.552,1.552,0,0,1-1.187.844c-.12.013-.24.034-.377.056l-.064.016c-.052.01-.112.022-.182.034a4.05,4.05,0,0,1-.674.071ZM2.483.96a2.487,2.487,0,0,0-1.263.4.689.689,0,0,0-.251.4,1.549,1.549,0,0,0,.075.787.608.608,0,0,0,.2.323.5.5,0,0,0,.289.075h.044a3.059,3.059,0,0,0,.5-.056l.091-.02h.016l.043-.008.056-.01c.142-.026.319-.056.479-.075a.6.6,0,0,0,.45-.35.743.743,0,0,0,.074-.577A1.99,1.99,0,0,0,2.483.96Z" transform="translate(1326.762 6016.758)"/>
    <path id="Shape-9" data-name="Shape" d="M1.562,3.89H1.5a1.439,1.439,0,0,1-.8-.248,1.507,1.507,0,0,1-.553-.812,2.472,2.472,0,0,1-.1-1.283A1.634,1.634,0,0,1,.625.627,3.487,3.487,0,0,1,2.579,0h.034a.481.481,0,0,1,.281.09c.014.012.029.022.043.032l.021.015L2.97.145A3.018,3.018,0,0,1,4.162,1.494h0a1.673,1.673,0,0,1-.116,1.375,1.557,1.557,0,0,1-1.187.848c-.141.015-.285.041-.438.068L2.4,3.789l-.157.029a4.062,4.062,0,0,1-.676.071ZM2.483.96a2.475,2.475,0,0,0-1.263.4.7.7,0,0,0-.253.4,1.546,1.546,0,0,0,.077.787.608.608,0,0,0,.2.323.5.5,0,0,0,.289.075h.044a3.059,3.059,0,0,0,.5-.056l.091-.02h.016l.043-.008h.007c.156-.028.349-.063.528-.084a.6.6,0,0,0,.45-.35.742.742,0,0,0,.072-.577A1.978,1.978,0,0,0,2.483.96Z" transform="translate(1328.776 6000.309)"/>
    <path id="Shape-10" data-name="Shape" d="M1.569,3.888H1.5A1.447,1.447,0,0,1,.7,3.639a1.511,1.511,0,0,1-.553-.812,2.463,2.463,0,0,1-.1-1.282A1.637,1.637,0,0,1,.625.625,3.477,3.477,0,0,1,2.579,0h.038a.466.466,0,0,1,.277.091l.02.015.044.033a3.006,3.006,0,0,1,1.2,1.354v0a1.665,1.665,0,0,1-.116,1.373,1.559,1.559,0,0,1-1.187.848c-.149.016-.3.043-.436.07l-.117.019-.066.012a3.872,3.872,0,0,1-.671.071ZM2.483.956a2.472,2.472,0,0,0-1.261.4.685.685,0,0,0-.254.4,1.545,1.545,0,0,0,.075.787.608.608,0,0,0,.2.322.513.513,0,0,0,.291.075h.049a2.784,2.784,0,0,0,.495-.056l.148-.026c.158-.029.355-.064.534-.083a.619.619,0,0,0,.453-.35.751.751,0,0,0,.072-.579,1.992,1.992,0,0,0-.8-.889Z" transform="translate(1339.072 5967)"/>
    <path id="Shape-11" data-name="Shape" d="M1.575,3.888H1.5a1.428,1.428,0,0,1-.8-.246,1.515,1.515,0,0,1-.551-.815,2.448,2.448,0,0,1-.1-1.282A1.638,1.638,0,0,1,.625.625,3.492,3.492,0,0,1,2.578,0h.038a.467.467,0,0,1,.278.091l.03.022.033.024a3.029,3.029,0,0,1,1.2,1.358A1.666,1.666,0,0,1,4.05,2.869a1.56,1.56,0,0,1-1.192.847c-.123.013-.244.035-.385.061l-.052.009L2.3,3.806h0l-.059.01a3.8,3.8,0,0,1-.663.072ZM2.48.961a2.455,2.455,0,0,0-1.261.4.7.7,0,0,0-.254.4,1.556,1.556,0,0,0,.077.787.606.606,0,0,0,.2.325.556.556,0,0,0,.291.075h.035a3.015,3.015,0,0,0,.506-.056L2.12,2.88l.043-.011.061-.011c.151-.029.348-.065.535-.085a.605.605,0,0,0,.45-.35.741.741,0,0,0,.072-.579,1.994,1.994,0,0,0-.8-.883Z" transform="translate(1323.166 5979.302)"/>
    <path id="Shape-12" data-name="Shape" d="M1.562,3.89H1.5a1.447,1.447,0,0,1-.8-.248,1.519,1.519,0,0,1-.553-.814,2.461,2.461,0,0,1-.1-1.281A1.648,1.648,0,0,1,.625.625,3.512,3.512,0,0,1,2.579,0h.034a.472.472,0,0,1,.281.09c.014.012.029.022.043.032l.021.015h0a3.037,3.037,0,0,1,1.2,1.357,1.677,1.677,0,0,1-.116,1.375,1.552,1.552,0,0,1-1.187.844c-.124.013-.251.037-.387.061l-.049.009-.016,0-.169.031a4.05,4.05,0,0,1-.676.073ZM2.483.96a2.468,2.468,0,0,0-1.261.4.681.681,0,0,0-.254.4,1.549,1.549,0,0,0,.075.787.608.608,0,0,0,.2.323.513.513,0,0,0,.291.075h.043a3.094,3.094,0,0,0,.5-.056l.061-.013.037-.007.051-.009.056-.01c.157-.029.325-.056.48-.075a.607.607,0,0,0,.453-.35.746.746,0,0,0,.072-.577A1.99,1.99,0,0,0,2.483.96Z" transform="translate(1340.91 5949.426)"/>
    <path id="Shape-13" data-name="Shape" d="M1.566,3.89H1.5a1.444,1.444,0,0,1-.8-.247,1.519,1.519,0,0,1-.553-.814,2.463,2.463,0,0,1-.1-1.282A1.648,1.648,0,0,1,.625.625,3.5,3.5,0,0,1,2.579,0h.038a.474.474,0,0,1,.278.091l.03.022.032.024A3,3,0,0,1,4.162,1.495h0a1.668,1.668,0,0,1-.116,1.374,1.55,1.55,0,0,1-1.187.848c-.12.013-.239.034-.377.056l-.064.012c-.056.011-.118.023-.182.032a3.862,3.862,0,0,1-.67.073Zm.363-2.32h0l-.884.976a.607.607,0,0,0,.2.322.542.542,0,0,0,.291.075h.035a2.981,2.981,0,0,0,.506-.056l.094-.018h.013l.043-.007c.163-.031.354-.066.534-.085a.605.605,0,0,0,.45-.35.746.746,0,0,0,.074-.579,1.994,1.994,0,0,0-.8-.886,2.468,2.468,0,0,0-1.263.4.7.7,0,0,0-.251.4,1.549,1.549,0,0,0,.075.787Z" transform="translate(1355.632 5944.224)"/>
    <path id="Shape-14" data-name="Shape" d="M2.619,3.778A1.426,1.426,0,0,1,2.4,3.761c-.139-.021-.279-.032-.441-.046l-.091-.008L1.771,3.7a3.579,3.579,0,0,1-.731-.123,1.437,1.437,0,0,1-.714-.446A1.5,1.5,0,0,1,0,2.2,2.464,2.464,0,0,1,.242.936,1.628,1.628,0,0,1,1.038.2,2.606,2.606,0,0,1,2.1,0a5.489,5.489,0,0,1,.985.1.471.471,0,0,1,.281.169l.051.063a3.031,3.031,0,0,1,.809,1.62,1.672,1.672,0,0,1-.465,1.3,1.59,1.59,0,0,1-1.145.528ZM2.095.945a1.667,1.667,0,0,0-.672.116.7.7,0,0,0-.348.32,1.561,1.561,0,0,0-.129.778.6.6,0,0,0,.106.362.528.528,0,0,0,.261.149,2.8,2.8,0,0,0,.543.086c.038.005.077.008.119.011h.033c.165.012.358.029.539.056a.458.458,0,0,0,.07.005A.642.642,0,0,0,3.074,2.6a.743.743,0,0,0,.219-.539A2.013,2.013,0,0,0,2.747,1,4.2,4.2,0,0,0,2.095.945Z" transform="translate(1357.211 6018.811)"/>
    <path id="Shape-15" data-name="Shape" d="M2.284,4.2A1.531,1.531,0,0,1,1.022,3.6C.94,3.483.848,3.375.741,3.252c-.033-.04-.067-.08-.1-.122l-.017-.02a3.749,3.749,0,0,1-.427-.6A1.441,1.441,0,0,1,0,1.684,1.525,1.525,0,0,1,.432.8,2.433,2.433,0,0,1,1.494.074,1.639,1.639,0,0,1,1.976,0a1.676,1.676,0,0,1,.6.112A3.5,3.5,0,0,1,4.1,1.493a.475.475,0,0,1,.082.318c0,.028-.006.056-.008.079V1.9A3.03,3.03,0,0,1,3.6,3.611,1.665,1.665,0,0,1,2.349,4.2ZM1.976.946a.7.7,0,0,0-.205.031,1.575,1.575,0,0,0-.642.46.619.619,0,0,0-.182.331.525.525,0,0,0,.082.29,2.712,2.712,0,0,0,.319.444l.05.056.01.012q.018.023.038.046c.109.128.234.276.337.422a.591.591,0,0,0,.493.216h.037a.736.736,0,0,0,.537-.225A2.013,2.013,0,0,0,3.217,1.89,2.475,2.475,0,0,0,2.241,1,.736.736,0,0,0,1.976.946Z" transform="translate(1349.371 5999.344)"/>
    <path id="Shape-16" data-name="Shape" d="M2.218,4.229a1.2,1.2,0,0,1-.127,0A1.562,1.562,0,0,1,.834,3.487C.768,3.375.7,3.262.609,3.139L.593,3.115.554,3.059l-.067-.1a3.719,3.719,0,0,1-.362-.647,1.459,1.459,0,0,1-.1-.838A1.526,1.526,0,0,1,.539.64,2.469,2.469,0,0,1,1.672.031,1.687,1.687,0,0,1,1.99,0a1.657,1.657,0,0,1,.757.186A3.5,3.5,0,0,1,4.112,1.718a.487.487,0,0,1,.047.326l-.007.03-.011.047a3.022,3.022,0,0,1-.75,1.647A1.638,1.638,0,0,1,2.218,4.229ZM1.993.946A.735.735,0,0,0,1.854.96a1.554,1.554,0,0,0-.688.39.606.606,0,0,0-.214.31.539.539,0,0,0,.049.3,2.844,2.844,0,0,0,.272.475l.013.02.072.105.04.056c.1.139.181.266.255.394a.608.608,0,0,0,.5.273h.056a.731.731,0,0,0,.5-.172A2,2,0,0,0,3.2,2.014h0a2.447,2.447,0,0,0-.879-.984A.7.7,0,0,0,1.992.946Z" transform="translate(1365.206 6001.358)"/>
    <path id="Shape-17" data-name="Shape" d="M1.713,4.224a2.515,2.515,0,0,1-.262-.014A1.664,1.664,0,0,1,.293,3.465,1.555,1.555,0,0,1,.1,2.018c.053-.135.1-.276.144-.42C.265,1.541.284,1.482.3,1.42A3.648,3.648,0,0,1,.585.737a1.458,1.458,0,0,1,.6-.6A1.378,1.378,0,0,1,1.81,0a1.946,1.946,0,0,1,.35.033A2.457,2.457,0,0,1,3.338.552a1.625,1.625,0,0,1,.539.942,3.506,3.506,0,0,1-.367,2.02.475.475,0,0,1-.225.236c-.028.012-.051.024-.073.036l-.006,0a3.255,3.255,0,0,1-1.492.434ZM1.806.945a.417.417,0,0,0-.194.04.519.519,0,0,0-.2.221,2.721,2.721,0,0,0-.206.506c-.015.046-.031.1-.046.144-.01.029-.019.056-.029.089v0c-.045.139-.092.281-.145.417h0a.607.607,0,0,0,.1.562.75.75,0,0,0,.476.337,1.575,1.575,0,0,0,.169.009,2.223,2.223,0,0,0,.986-.294,2.486,2.486,0,0,0,.24-1.3.71.71,0,0,0-.232-.411,1.556,1.556,0,0,0-.731-.3A.994.994,0,0,0,1.806.945Z" transform="translate(1363.814 5987.863)"/>
    <path id="Shape-18" data-name="Shape" d="M2.512,3.975a1.413,1.413,0,0,1-.646-.154c-.129-.067-.269-.125-.4-.182l-.039-.016-.134-.056a3.7,3.7,0,0,1-.656-.343,1.453,1.453,0,0,1-.541-.647A1.5,1.5,0,0,1,.072,1.6,2.449,2.449,0,0,1,.691.471,1.624,1.624,0,0,1,1.675.011,1.975,1.975,0,0,1,1.883,0,3.8,3.8,0,0,1,3.652.554.469.469,0,0,1,3.87.8L3.9.873V.879a3.023,3.023,0,0,1,.266,1.788,1.664,1.664,0,0,1-.844,1.09,1.672,1.672,0,0,1-.808.219ZM1.885.947a1,1,0,0,0-.112.006.7.7,0,0,0-.427.2,1.532,1.532,0,0,0-.364.7.6.6,0,0,0-.012.377.525.525,0,0,0,.2.222,2.693,2.693,0,0,0,.488.25l.046.02.034.015.024.01.036.015c.164.068.337.142.495.221a.48.48,0,0,0,.225.052.722.722,0,0,0,.346-.1.741.741,0,0,0,.375-.446A1.972,1.972,0,0,0,3.051,1.3,2.725,2.725,0,0,0,1.885.947Z" transform="translate(1341.007 6014.696)"/>
    <path id="Shape-19" data-name="Shape" d="M2.227,4.226H2.136A1.558,1.558,0,0,1,.867,3.5C.8,3.4.724,3.284.617,3.138L.584,3.09C.562,3.057.536,3.022.512,2.985a3.544,3.544,0,0,1-.376-.638A1.429,1.429,0,0,1,.02,1.511a1.519,1.519,0,0,1,.5-.844A2.461,2.461,0,0,1,1.642.037,1.672,1.672,0,0,1,1.988,0a1.655,1.655,0,0,1,.731.173A3.48,3.48,0,0,1,4.11,1.681.472.472,0,0,1,4.164,2c0,.015-.006.029-.008.044l-.007.036a3.037,3.037,0,0,1-.721,1.663h0a1.644,1.644,0,0,1-1.2.479ZM1.987.946A.7.7,0,0,0,1.84.962a1.546,1.546,0,0,0-.681.4.6.6,0,0,0-.21.312.524.524,0,0,0,.056.3,2.658,2.658,0,0,0,.281.469c.022.033.046.067.073.1l.013.018.015.021L1.4,2.6c.091.13.2.277.281.418h0a.605.605,0,0,0,.506.263h.043A.731.731,0,0,0,2.738,3.1a1.988,1.988,0,0,0,.463-1.1h0a2.425,2.425,0,0,0-.9-.97A.724.724,0,0,0,1.987.946Z" transform="translate(1341.66 5986.733)"/>
    <path id="Shape-20" data-name="Shape" d="M1.706,4.252A1.773,1.773,0,0,1,.694,3.909,1.56,1.56,0,0,1,.019,2.615c0-.136,0-.272-.007-.43V2.169c0-.06-.006-.126-.007-.185a3.825,3.825,0,0,1,.033-.74A1.455,1.455,0,0,1,.394.48,1.515,1.515,0,0,1,1.275.046,3.3,3.3,0,0,1,1.8,0a2.116,2.116,0,0,1,.755.129,1.631,1.631,0,0,1,.827.7,3.487,3.487,0,0,1,.348,2.022.485.485,0,0,1-.132.3l-.01.01c-.016.016-.031.031-.047.049a3.054,3.054,0,0,1-1.508,1,1.4,1.4,0,0,1-.33.039ZM1.8.946a2.339,2.339,0,0,0-.37.033.624.624,0,0,0-.347.147A.525.525,0,0,0,.971,1.4a2.777,2.777,0,0,0-.019.547.864.864,0,0,0,0,.1v.164c.005.145.01.294.006.439a.6.6,0,0,0,.281.5.813.813,0,0,0,.463.164.435.435,0,0,0,.1-.01A2.011,2.011,0,0,0,2.8,2.624a2.452,2.452,0,0,0-.221-1.3.705.705,0,0,0-.357-.307A1.2,1.2,0,0,0,1.8.946Z" transform="translate(1350.715 5968.595)"/>
    <path id="Shape-21" data-name="Shape" d="M1.875,4.2a2.4,2.4,0,0,1-.8-.134,1.659,1.659,0,0,1-.962-.987A1.563,1.563,0,0,1,.257,1.621c.082-.112.156-.242.235-.377l.043-.071h0l.052-.085a3.544,3.544,0,0,1,.433-.6A1.417,1.417,0,0,1,1.734.038,1.268,1.268,0,0,1,2.041,0a1.668,1.668,0,0,1,.668.153,2.443,2.443,0,0,1,1.03.768A1.641,1.641,0,0,1,4.05,1.961a3.5,3.5,0,0,1-.808,1.886.476.476,0,0,1-.274.179l-.078.017H2.879a4.4,4.4,0,0,1-1,.151ZM2.041.946a.347.347,0,0,0-.08.009.512.512,0,0,0-.247.169,2.644,2.644,0,0,0-.316.45l-.041.069c-.012.02-.024.04-.037.061-.1.161-.189.317-.287.46A.6.6,0,0,0,1,2.735a.741.741,0,0,0,.389.433,1.431,1.431,0,0,0,.48.083,3.27,3.27,0,0,0,.713-.107,2.461,2.461,0,0,0,.526-1.214.7.7,0,0,0-.132-.45,1.547,1.547,0,0,0-.645-.458.751.751,0,0,0-.29-.076Z" transform="translate(1361.31 5954.244)"/>
    <path id="Shape-22" data-name="Shape" d="M2.577,3.861A1.406,1.406,0,0,1,2.164,3.8c-.138-.04-.281-.074-.431-.108l-.093-.02-.089-.02a3.7,3.7,0,0,1-.705-.225A1.446,1.446,0,0,1,.2,2.886a1.533,1.533,0,0,1-.193-.965A2.484,2.484,0,0,1,.422.7a1.636,1.636,0,0,1,.893-.62A2.247,2.247,0,0,1,1.937,0a4.552,4.552,0,0,1,1.42.271.475.475,0,0,1,.255.207l.005.008c.011.019.023.039.037.059a3.023,3.023,0,0,1,.574,1.718,1.668,1.668,0,0,1-.641,1.22,1.618,1.618,0,0,1-1.01.378ZM1.934.946A1.332,1.332,0,0,0,1.575.99a.7.7,0,0,0-.388.269,1.538,1.538,0,0,0-.237.752.6.6,0,0,0,.056.376.523.523,0,0,0,.238.182,2.747,2.747,0,0,0,.521.163l.147.033h.012c.144.032.341.076.513.129a.481.481,0,0,0,.138.02.667.667,0,0,0,.416-.165.744.744,0,0,0,.291-.506,1.965,1.965,0,0,0-.394-1.125A3.382,3.382,0,0,0,1.934.946Z" transform="translate(1314.357 6029.969)"/>
    <path id="Shape-23" data-name="Shape" d="M2.418,4.094A1.444,1.444,0,0,1,1.5,3.776C1.4,3.7,1.3,3.63,1.189,3.551l-.052-.037-.046-.031L.984,3.409a3.648,3.648,0,0,1-.57-.472,1.438,1.438,0,0,1-.395-.742A1.519,1.519,0,0,1,.2,1.226,2.47,2.47,0,0,1,1.039.251,1.622,1.622,0,0,1,1.912,0c.061,0,.123,0,.185.01A3.5,3.5,0,0,1,3.921.952a.483.483,0,0,1,.16.286.391.391,0,0,0,.006.043l.006.037a3.037,3.037,0,0,1-.108,1.808h0a1.666,1.666,0,0,1-1.052.89,1.752,1.752,0,0,1-.515.078ZM1.907.944a.665.665,0,0,0-.366.107,1.519,1.519,0,0,0-.5.61.6.6,0,0,0-.089.367.526.526,0,0,0,.154.259,2.776,2.776,0,0,0,.423.346l.125.085.021.015.053.037c.121.084.248.173.363.265h0a.516.516,0,0,0,.332.109.814.814,0,0,0,.235-.037.742.742,0,0,0,.462-.352,1.98,1.98,0,0,0,.056-1.194A2.445,2.445,0,0,0,2,.952.855.855,0,0,0,1.907.946Z" transform="translate(1303.801 6005.33)"/>
    <path id="Shape-24" data-name="Shape" d="M2.194,4.237A1.863,1.863,0,0,1,2,4.227,1.553,1.553,0,0,1,.774,3.444C.71,3.325.639,3.211.545,3.064L.445,2.9A3.74,3.74,0,0,1,.1,2.25a1.446,1.446,0,0,1-.071-.844A1.5,1.5,0,0,1,.578.589,2.437,2.437,0,0,1,1.73.022,1.625,1.625,0,0,1,2.8.213,3.507,3.507,0,0,1,4.11,1.793a.475.475,0,0,1,.034.325.79.79,0,0,1-.019.079v.011a3,3,0,0,1-.807,1.611A1.631,1.631,0,0,1,2.194,4.237ZM2,.946a.711.711,0,0,0-.118.01,1.529,1.529,0,0,0-.7.365.6.6,0,0,0-.225.3.521.521,0,0,0,.038.3,2.8,2.8,0,0,0,.257.484l.037.06c.013.02.029.045.042.069.084.13.192.3.281.463a.6.6,0,0,0,.493.29.915.915,0,0,0,.1.005.694.694,0,0,0,.466-.155,2.01,2.01,0,0,0,.52-1.076,2.468,2.468,0,0,0-.844-1.02A.7.7,0,0,0,2,.946Z" transform="translate(1299.35 5984.769)"/>
    <path id="Shape-25" data-name="Shape" d="M1.86,4.263a1.831,1.831,0,0,1-.84-.213A1.557,1.557,0,0,1,.176,2.862C.157,2.72.132,2.576.1,2.423l0-.016C.092,2.35.081,2.3.071,2.238A3.773,3.773,0,0,1,0,1.5,1.446,1.446,0,0,1,.249.7,1.508,1.508,0,0,1,1.06.143,2.884,2.884,0,0,1,1.912,0a1.935,1.935,0,0,1,.43.047,1.631,1.631,0,0,1,.92.579,3.5,3.5,0,0,1,.623,1.956A.487.487,0,0,1,3.8,2.9l-.032.043-.015.021-.008.012A3.017,3.017,0,0,1,2.394,4.162a1.425,1.425,0,0,1-.534.1ZM1.912.945a1.95,1.95,0,0,0-.569.1.6.6,0,0,0-.321.2.506.506,0,0,0-.075.29A2.777,2.777,0,0,0,1,2.076c.008.052.017.1.026.149l0,.019c.029.161.062.344.082.517a.6.6,0,0,0,.348.45.865.865,0,0,0,.394.1.506.506,0,0,0,.184-.031,1.98,1.98,0,0,0,.885-.8,2.483,2.483,0,0,0-.4-1.263.7.7,0,0,0-.4-.254A.971.971,0,0,0,1.912.945Z" transform="translate(1313.646 5953.76)"/>
    <path id="Shape-26" data-name="Shape" d="M1.642,4.233H1.6A1.667,1.667,0,0,1,.377,3.591,1.565,1.565,0,0,1,.061,2.164c.037-.116.065-.241.1-.373l.013-.056L.176,1.7c.011-.048.022-.1.034-.148A3.575,3.575,0,0,1,.435.847,1.433,1.433,0,0,1,.975.2,1.415,1.415,0,0,1,1.738,0c.065,0,.132,0,.2.01A2.461,2.461,0,0,1,3.155.422a1.618,1.618,0,0,1,.619.893,3.472,3.472,0,0,1-.189,2.043.466.466,0,0,1-.2.255c-.017.011-.035.022-.052.031l-.016.011A3.032,3.032,0,0,1,1.642,4.233ZM1.737.947A.5.5,0,0,0,1.475,1a.521.521,0,0,0-.182.24,2.756,2.756,0,0,0-.161.524l-.017.073L1.1,1.9,1.1,1.912v0c-.035.155-.078.348-.129.521a.607.607,0,0,0,.143.552.745.745,0,0,0,.506.293h.031a2.025,2.025,0,0,0,1.1-.394,2.491,2.491,0,0,0,.123-1.315A.692.692,0,0,0,2.6,1.187,1.537,1.537,0,0,0,1.848.951a1.078,1.078,0,0,0-.111,0Z" transform="translate(1332.223 5934.609)"/>
    <path id="Shape-27" data-name="Shape" d="M1.94,4.184a2.447,2.447,0,0,1-.971-.195,1.674,1.674,0,0,1-.89-1.054A1.562,1.562,0,0,1,.32,1.5c.09-.112.174-.233.259-.357L.61,1.093C.635,1.058.66,1.022.685.985A3.7,3.7,0,0,1,1.157.414,1.434,1.434,0,0,1,1.9.02,1.276,1.276,0,0,1,2.118,0a1.62,1.62,0,0,1,.748.2,2.458,2.458,0,0,1,.974.839A1.64,1.64,0,0,1,4.081,2.1,3.491,3.491,0,0,1,3.14,3.925a.475.475,0,0,1-.286.161l-.037.005L2.774,4.1a5.269,5.269,0,0,1-.835.087ZM2.12.947a.35.35,0,0,0-.056,0A.525.525,0,0,0,1.8,1.1a2.726,2.726,0,0,0-.344.426l-.06.085-.028.039-.048.069c-.094.136-.179.257-.272.371a.606.606,0,0,0-.072.568.742.742,0,0,0,.357.46,1.445,1.445,0,0,0,.592.12,3.964,3.964,0,0,0,.6-.061A2.435,2.435,0,0,0,3.14,2a.685.685,0,0,0-.1-.46,1.538,1.538,0,0,0-.609-.5.7.7,0,0,0-.31-.094Z" transform="translate(1356.607 5936.045)"/>
    <path id="Shape-28" data-name="Shape" d="M1.7,4.162a1.289,1.289,0,0,1-.292-.034,1.507,1.507,0,0,1-.817-.545A2.446,2.446,0,0,1,.021,2.432,1.652,1.652,0,0,1,.211,1.363,3.5,3.5,0,0,1,1.79.051.475.475,0,0,1,2,0a.445.445,0,0,1,.112.015l.041.01.039.009H2.2A3.021,3.021,0,0,1,3.815.844h0a1.664,1.664,0,0,1,.407,1.315A1.561,1.561,0,0,1,3.439,3.39c-.109.056-.218.125-.333.2l-.047.03L3,3.654l-.1.063a3.66,3.66,0,0,1-.658.341,1.554,1.554,0,0,1-.547.1ZM2.058.975a2.471,2.471,0,0,0-1.019.844.7.7,0,0,0-.085.463,1.525,1.525,0,0,0,.364.7.609.609,0,0,0,.3.228.341.341,0,0,0,.073.007.642.642,0,0,0,.225-.048A2.743,2.743,0,0,0,2.4,2.912l.1-.056.032-.022c.15-.1.31-.2.465-.281a.606.606,0,0,0,.287-.494A.731.731,0,0,0,3.134,1.5,1.991,1.991,0,0,0,2.058.975Z" transform="translate(1358.273 6058.355)"/>
    <path id="Shape-29" data-name="Shape" d="M2.588,3.828a1.421,1.421,0,0,1-.337-.042c-.112-.028-.23-.049-.355-.071L1.816,3.7l-.161-.029-.022,0a3.649,3.649,0,0,1-.716-.185,1.43,1.43,0,0,1-.671-.506A1.5,1.5,0,0,1,0,2.025,2.46,2.46,0,0,1,.348.787,1.635,1.635,0,0,1,1.207.118,2.378,2.378,0,0,1,1.98,0,4.851,4.851,0,0,1,3.258.2a.466.466,0,0,1,.264.194c.015.021.03.043.046.066l0,0a3.025,3.025,0,0,1,.663,1.68A1.676,1.676,0,0,1,3.657,3.4a1.609,1.609,0,0,1-1.069.431ZM1.98.945a1.414,1.414,0,0,0-.461.067.7.7,0,0,0-.374.286,1.548,1.548,0,0,0-.2.765.615.615,0,0,0,.073.372A.547.547,0,0,0,1.27,2.6a2.806,2.806,0,0,0,.531.133l.076.013h.012l.059.011H1.96c.154.026.346.056.521.1a.458.458,0,0,0,.112.014.667.667,0,0,0,.432-.186.749.749,0,0,0,.265-.52,2,2,0,0,0-.45-1.106A3.638,3.638,0,0,0,1.98.945Z" transform="translate(1304.656 6027.91)"/>
    <path id="Shape-30" data-name="Shape" d="M2.46,4.046A1.422,1.422,0,0,1,1.651,3.8c-.11-.074-.225-.139-.358-.215L1.27,3.575l-.082-.047L1.11,3.482a3.807,3.807,0,0,1-.61-.42,1.447,1.447,0,0,1-.457-.707,1.512,1.512,0,0,1,.1-.978A2.425,2.425,0,0,1,.891.333,1.627,1.627,0,0,1,1.9,0h.029a3.5,3.5,0,0,1,1.9.777.478.478,0,0,1,.183.272c.007.021.011.043.017.066v.012a3.045,3.045,0,0,1,.049,1.81,1.668,1.668,0,0,1-.97.98,1.744,1.744,0,0,1-.644.128ZM1.886.946a.679.679,0,0,0-.427.142,1.523,1.523,0,0,0-.447.65.611.611,0,0,0-.059.373.539.539,0,0,0,.174.246,2.975,2.975,0,0,0,.453.306l.128.073h0l.078.045c.123.07.262.15.386.235a.516.516,0,0,0,.286.082.767.767,0,0,0,.285-.059.741.741,0,0,0,.427-.4,2,2,0,0,0-.042-1.191A2.455,2.455,0,0,0,1.908.945H1.886Z" transform="translate(1313.552 5995.246)"/>
    <path id="Shape-31" data-name="Shape" d="M2.282,4.2A1.524,1.524,0,0,1,1.022,3.6C.939,3.483.843,3.37.741,3.251L.676,3.175.62,3.109a3.7,3.7,0,0,1-.427-.6A1.446,1.446,0,0,1,0,1.687,1.522,1.522,0,0,1,.43.8,2.467,2.467,0,0,1,1.493.073,1.626,1.626,0,0,1,1.969,0a1.711,1.711,0,0,1,.609.112A3.512,3.512,0,0,1,4.1,1.5a.463.463,0,0,1,.079.317.136.136,0,0,1,0,.04c0,.013,0,.026,0,.039a3.06,3.06,0,0,1-.573,1.72h0A1.658,1.658,0,0,1,2.347,4.2ZM1.975.947a.683.683,0,0,0-.206.033,1.525,1.525,0,0,0-.641.46.6.6,0,0,0-.182.329.524.524,0,0,0,.079.291,2.748,2.748,0,0,0,.321.443l.043.053.023.028.029.035c.1.112.232.272.342.422a.6.6,0,0,0,.5.218h.03a.744.744,0,0,0,.537-.225A1.98,1.98,0,0,0,3.216,1.9,2.461,2.461,0,0,0,2.239,1,.746.746,0,0,0,1.975.947Z" transform="translate(1308.688 5975.455)"/>
    <path id="Shape-32" data-name="Shape" d="M2.032,4.264a1.879,1.879,0,0,1-.57-.089A1.559,1.559,0,0,1,.424,3.15C.394,3.037.35,2.922.306,2.8L.281,2.731.252,2.652c-.012-.033-.024-.065-.036-.1a3.639,3.639,0,0,1-.2-.713A1.451,1.451,0,0,1,.124,1a1.5,1.5,0,0,1,.7-.684A2.5,2.5,0,0,1,1.977,0h.094A1.631,1.631,0,0,1,3.076.411a3.478,3.478,0,0,1,.956,1.816A.47.47,0,0,1,4,2.554c-.012.024-.024.048-.034.072A3.006,3.006,0,0,1,2.84,4.044a1.519,1.519,0,0,1-.808.219ZM1.976.945a1.614,1.614,0,0,0-.717.213.607.607,0,0,0-.281.25.528.528,0,0,0-.025.3,2.86,2.86,0,0,0,.151.528l.008.024.012.034.03.085c.056.146.125.337.178.512a.6.6,0,0,0,.422.384.9.9,0,0,0,.274.043.6.6,0,0,0,.308-.074A1.986,1.986,0,0,0,3.068,2.3a2.484,2.484,0,0,0-.61-1.176.7.7,0,0,0-.435-.18H1.979Z" transform="translate(1323.869 5953.464)"/>
    <path id="Shape-33" data-name="Shape" d="M1.682,4.248A1.752,1.752,0,0,1,.631,3.87,1.556,1.556,0,0,1,0,2.551c.008-.118.008-.241.008-.371V1.921a3.856,3.856,0,0,1,.057-.74A1.444,1.444,0,0,1,.45.434a1.514,1.514,0,0,1,.9-.4A3.327,3.327,0,0,1,1.778,0a2.175,2.175,0,0,1,.847.156,1.64,1.64,0,0,1,.806.73,3.512,3.512,0,0,1,.276,2.036.485.485,0,0,1-.144.3.663.663,0,0,0-.056.056,3.022,3.022,0,0,1-1.543.945h0a1.36,1.36,0,0,1-.277.029Zm.1-3.3A2.454,2.454,0,0,0,1.47.968a.6.6,0,0,0-.352.136.519.519,0,0,0-.124.272,2.956,2.956,0,0,0-.04.547c0,.048,0,.1,0,.151v.067c0,.169,0,.324-.01.476a.6.6,0,0,0,.265.506.8.8,0,0,0,.473.18A.426.426,0,0,0,1.766,3.3a2,2,0,0,0,1.012-.635A2.475,2.475,0,0,0,2.6,1.348a.686.686,0,0,0-.348-.317A1.2,1.2,0,0,0,1.782.946Z" transform="translate(1345.665 5937.972)"/>
    <path id="Shape-34" data-name="Shape" d="M1.916,4.169A1.554,1.554,0,0,1,1.078,3.9a2.452,2.452,0,0,1-.9-.917A1.64,1.64,0,0,1,.033,1.9,3.508,3.508,0,0,1,1.125.169a.475.475,0,0,1,.3-.137L1.507.026C1.685.013,1.868,0,2.054,0A2.507,2.507,0,0,1,3.3.293a1.667,1.667,0,0,1,.8,1.125,1.564,1.564,0,0,1-.364,1.414c-.1.1-.19.211-.291.335l-.018.021-.1.122a3.8,3.8,0,0,1-.52.528,1.441,1.441,0,0,1-.773.325A.717.717,0,0,1,1.916,4.169ZM1.67.963h0L1.585,3.1a.644.644,0,0,0,.328.122h.027a.53.53,0,0,0,.273-.129,2.855,2.855,0,0,0,.38-.394l.017-.02,0-.006c.024-.029.049-.059.074-.092l.056-.065.006-.007c.1-.112.194-.231.295-.334h0a.608.608,0,0,0,.121-.558.742.742,0,0,0-.316-.493,1.575,1.575,0,0,0-.795-.18c-.13,0-.269.008-.388.016Zm0,0A2.461,2.461,0,0,0,.961,2.081a.683.683,0,0,0,.06.467,1.546,1.546,0,0,0,.562.554L1.668.965Z" transform="translate(1362.399 6078.535)"/>
    <path id="Shape-35" data-name="Shape" d="M1.674,4.151a1.3,1.3,0,0,1-.334-.044,1.511,1.511,0,0,1-.8-.574,2.445,2.445,0,0,1-.529-1.17A1.646,1.646,0,0,1,.241,1.3,3.5,3.5,0,0,1,1.866.042.479.479,0,0,1,2.063,0a.488.488,0,0,1,.131.018l.04.012L2.27.04h.006A3.013,3.013,0,0,1,3.86.9a1.658,1.658,0,0,1,.363,1.33,1.554,1.554,0,0,1-.826,1.2c-.123.061-.243.132-.382.213l-.005,0-.028.015-.136.08a3.613,3.613,0,0,1-.667.318,1.615,1.615,0,0,1-.5.087ZM2.1.976a2.465,2.465,0,0,0-1.049.808.691.691,0,0,0-.1.46,1.554,1.554,0,0,0,.344.712.607.607,0,0,0,.294.237.337.337,0,0,0,.089.011.694.694,0,0,0,.21-.039,2.869,2.869,0,0,0,.492-.241l.093-.056.037-.022c.154-.091.318-.186.474-.263a.6.6,0,0,0,.3-.483.739.739,0,0,0-.13-.568A1.98,1.98,0,0,0,2.1.976Z" transform="translate(1335.176 6070.391)"/>
    <path id="Shape-36" data-name="Shape" d="M1.674,4.151a1.294,1.294,0,0,1-.335-.044,1.511,1.511,0,0,1-.8-.574A2.464,2.464,0,0,1,.013,2.362,1.644,1.644,0,0,1,.242,1.3,3.5,3.5,0,0,1,1.866.042.479.479,0,0,1,2.061,0a.472.472,0,0,1,.133.019l.067.018.011,0A3.027,3.027,0,0,1,3.863.9a1.664,1.664,0,0,1,.361,1.33,1.542,1.542,0,0,1-.828,1.2c-.118.059-.232.125-.364.2l-.023.013-.037.022c-.04.024-.081.048-.124.073a3.614,3.614,0,0,1-.667.318,1.6,1.6,0,0,1-.507.087ZM2.1.976a2.472,2.472,0,0,0-1.049.808.7.7,0,0,0-.1.46,1.553,1.553,0,0,0,.344.712.607.607,0,0,0,.294.237.342.342,0,0,0,.089.011.686.686,0,0,0,.211-.039,2.848,2.848,0,0,0,.49-.24l.093-.056.037-.022c.154-.091.318-.186.474-.263a.6.6,0,0,0,.3-.482.735.735,0,0,0-.13-.568A1.986,1.986,0,0,0,2.1.976Z" transform="translate(1313.479 6078.674)"/>
    <path id="Shape-37" data-name="Shape" d="M1.673,4.15a1.311,1.311,0,0,1-.337-.043,1.519,1.519,0,0,1-.8-.575A2.457,2.457,0,0,1,.013,2.362,1.646,1.646,0,0,1,.241,1.3,3.5,3.5,0,0,1,1.864.043.47.47,0,0,1,2.061,0a.457.457,0,0,1,.13.019l.035.01.042.011h.006A3.013,3.013,0,0,1,3.86.9h0a1.666,1.666,0,0,1,.361,1.328A1.561,1.561,0,0,1,3.4,3.437c-.123.06-.244.13-.383.211h0l-.028.018-.136.08a3.659,3.659,0,0,1-.669.318A1.619,1.619,0,0,1,1.673,4.15ZM1.807,1.7h0L1.294,2.959a.591.591,0,0,0,.293.235.321.321,0,0,0,.088.011.7.7,0,0,0,.21-.039,2.683,2.683,0,0,0,.49-.241L2.419,2.9l.056-.032.035-.02.056-.032c.112-.067.271-.159.418-.231A.606.606,0,0,0,3.29,2.1a.738.738,0,0,0-.13-.568A1.988,1.988,0,0,0,2.1.973a2.475,2.475,0,0,0-1.052.812.7.7,0,0,0-.1.462,1.552,1.552,0,0,0,.337.712Z" transform="translate(1316.963 6097.135)"/>
    <path id="Shape-38" data-name="Shape" d="M1.556,3.943a1.425,1.425,0,0,1-.769-.206,1.512,1.512,0,0,1-.6-.781A2.461,2.461,0,0,1,.028,1.678,1.644,1.644,0,0,1,.556.731,3.491,3.491,0,0,1,2.475,0a.457.457,0,0,1,.062,0,.48.48,0,0,1,.258.076c.022.015.046.03.068.043h0A3.028,3.028,0,0,1,4.133,1.411a1.678,1.678,0,0,1-.042,1.38A1.558,1.558,0,0,1,2.949,3.7c-.14.023-.281.056-.435.093L2.484,3.8c-.048.012-.1.024-.15.034a3.629,3.629,0,0,1-.731.109ZM2.428.967a2.475,2.475,0,0,0-1.237.466.7.7,0,0,0-.232.41,1.551,1.551,0,0,0,.119.781.614.614,0,0,0,.212.313A.523.523,0,0,0,1.57,3h.016a2.777,2.777,0,0,0,.541-.085c.043-.011.092-.022.147-.034l.026-.01h.007c.154-.037.328-.079.493-.105a.6.6,0,0,0,.433-.372.731.731,0,0,0,.042-.58A1.987,1.987,0,0,0,2.428.967Z" transform="translate(1293.69 6057.326)"/>
    <path id="Shape-39" data-name="Shape" d="M2.623,3.769a1.441,1.441,0,0,1-.2-.014c-.132-.018-.266-.028-.44-.038l-.073-.005L1.8,3.7A3.789,3.789,0,0,1,1.069,3.6a1.441,1.441,0,0,1-.722-.435A1.507,1.507,0,0,1,.01,2.238,2.45,2.45,0,0,1,.225.97,1.64,1.64,0,0,1,1.007.217,2.671,2.671,0,0,1,2.138,0a5.546,5.546,0,0,1,.917.084.47.47,0,0,1,.281.163c.018.023.035.044.053.063a3.024,3.024,0,0,1,.838,1.606,1.657,1.657,0,0,1-.443,1.306,1.575,1.575,0,0,1-1.16.547ZM2.126.945a1.718,1.718,0,0,0-.72.129.7.7,0,0,0-.341.326A1.524,1.524,0,0,0,.95,2.18a.619.619,0,0,0,.112.362.532.532,0,0,0,.265.144,2.743,2.743,0,0,0,.541.076H1.9l.118.008c.154.008.353.021.539.048a.473.473,0,0,0,.06,0,.636.636,0,0,0,.463-.235.735.735,0,0,0,.21-.543A1.981,1.981,0,0,0,2.728.991a4.371,4.371,0,0,0-.6-.044Z" transform="translate(1281.087 6031.15)"/>
    <path id="Shape-40" data-name="Shape" d="M2.526,3.951a1.412,1.412,0,0,1-.6-.132c-.123-.056-.247-.105-.411-.169l-.11-.039-.065-.025a3.661,3.661,0,0,1-.667-.319,1.434,1.434,0,0,1-.562-.624,1.507,1.507,0,0,1-.056-.984A2.482,2.482,0,0,1,.634.509,1.64,1.64,0,0,1,1.6.019,2.038,2.038,0,0,1,1.884,0,3.909,3.909,0,0,1,3.6.492a.461.461,0,0,1,.225.238l.016.037L3.857.8a3.022,3.022,0,0,1,.328,1.782A1.658,1.658,0,0,1,3.38,3.7a1.664,1.664,0,0,1-.854.247ZM1.888.946a1.077,1.077,0,0,0-.154.01.693.693,0,0,0-.42.21,1.537,1.537,0,0,0-.337.714.611.611,0,0,0,0,.377.517.517,0,0,0,.21.215,2.682,2.682,0,0,0,.5.231c.034.015.07.028.109.043l.03.01c.157.056.337.128.5.2A.488.488,0,0,0,2.531,3a.714.714,0,0,0,.362-.112.731.731,0,0,0,.359-.458,1.989,1.989,0,0,0-.231-1.173A2.821,2.821,0,0,0,1.888.946Z" transform="translate(1276.736 6002.26)"/>
    <path id="Shape-41" data-name="Shape" d="M2.39,4.127a1.474,1.474,0,0,1-1.021-.388c-.105-.1-.225-.192-.337-.281L.969,3.407C.943,3.386.913,3.364.888,3.341a3.5,3.5,0,0,1-.539-.513,1.423,1.423,0,0,1-.342-.769,1.513,1.513,0,0,1,.249-.952,2.469,2.469,0,0,1,.9-.913A1.634,1.634,0,0,1,1.931,0a1.776,1.776,0,0,1,.3.026A3.479,3.479,0,0,1,3.985,1.1a.471.471,0,0,1,.14.3c0,.026.006.052.007.078A3.037,3.037,0,0,1,3.9,3.27h0a1.672,1.672,0,0,1-1.111.813,1.773,1.773,0,0,1-.4.045ZM1.929.946a.675.675,0,0,0-.323.083,1.537,1.537,0,0,0-.544.574.605.605,0,0,0-.112.359.52.52,0,0,0,.133.268,2.663,2.663,0,0,0,.4.375c.04.034.077.064.118.094l.023.018c.118.1.265.213.394.33a.536.536,0,0,0,.376.134.835.835,0,0,0,.183-.021.749.749,0,0,0,.484-.326A2,2,0,0,0,3.2,1.649,2.467,2.467,0,0,0,2.07.956.814.814,0,0,0,1.929.946Z" transform="translate(1281.119 5973.349)"/>
    <path id="Shape-42" data-name="Shape" d="M2.219,4.229a1.184,1.184,0,0,1-.127,0A1.549,1.549,0,0,1,.835,3.487c-.056-.1-.126-.2-.2-.307L.593,3.115.537,3.03.489,2.959a3.663,3.663,0,0,1-.365-.645,1.444,1.444,0,0,1-.1-.838A1.5,1.5,0,0,1,.54.64,2.469,2.469,0,0,1,1.673.031,1.637,1.637,0,0,1,2.746.186,3.5,3.5,0,0,1,4.111,1.718a.476.476,0,0,1,.047.326l-.007.03-.011.047a3.032,3.032,0,0,1-.748,1.647,1.64,1.64,0,0,1-1.174.461ZM1.994.946A.735.735,0,0,0,1.855.96a1.54,1.54,0,0,0-.686.39.609.609,0,0,0-.215.31.532.532,0,0,0,.049.3,2.729,2.729,0,0,0,.274.475c.026.039.056.082.085.125l.005.007.008.012c.091.134.2.287.281.435a.606.606,0,0,0,.5.273h.062a.724.724,0,0,0,.5-.173A2,2,0,0,0,3.2,2.016a2.469,2.469,0,0,0-.879-.987A.707.707,0,0,0,1.992.946Z" transform="translate(1293.876 5947.045)"/>
    <path id="Shape-43" data-name="Shape" d="M1.984,4.265a1.862,1.862,0,0,1-.655-.121A1.562,1.562,0,0,1,.344,3.067C.311,2.928.267,2.787.221,2.644.212,2.611.2,2.58.193,2.547S.175,2.492.169,2.464a3.613,3.613,0,0,1-.161-.72A1.444,1.444,0,0,1,.156.911,1.505,1.505,0,0,1,.894.262,2.6,2.6,0,0,1,1.963,0a1.8,1.8,0,0,1,.191.01,1.631,1.631,0,0,1,.983.462,3.518,3.518,0,0,1,.857,1.865.472.472,0,0,1-.051.323l-.013.026c-.008.016-.016.03-.025.046a3.026,3.026,0,0,1-1.2,1.356A1.5,1.5,0,0,1,1.984,4.265ZM1.964.946a1.7,1.7,0,0,0-.681.179.6.6,0,0,0-.3.235.52.52,0,0,0-.039.3,2.772,2.772,0,0,0,.123.534l.026.087.017.059.01.026c.046.145.1.326.141.493a.61.61,0,0,0,.4.407.888.888,0,0,0,.314.06.575.575,0,0,0,.268-.06,1.982,1.982,0,0,0,.78-.905,2.481,2.481,0,0,0-.55-1.2.714.714,0,0,0-.425-.2.871.871,0,0,0-.091,0Z" transform="translate(1313.865 5937.689)"/>
    <path id="Shape-44" data-name="Shape" d="M1.684,4.249A1.757,1.757,0,0,1,.63,3.869,1.563,1.563,0,0,1,0,2.553c.009-.135.01-.269.007-.443V1.922a3.712,3.712,0,0,1,.056-.737A1.435,1.435,0,0,1,.453.433a1.525,1.525,0,0,1,.9-.4A3.4,3.4,0,0,1,1.779,0a2.16,2.16,0,0,1,.848.157,1.636,1.636,0,0,1,.8.73A3.483,3.483,0,0,1,3.7,2.921a.463.463,0,0,1-.142.3l-.038.038-.019.019a3.019,3.019,0,0,1-1.544.946,1.391,1.391,0,0,1-.279.03Zm.094-3.3A2.373,2.373,0,0,0,1.47.967a.6.6,0,0,0-.35.138A.5.5,0,0,0,1,1.378a2.709,2.709,0,0,0-.04.547v.151c0,.141,0,.35-.009.541a.609.609,0,0,0,.266.506.814.814,0,0,0,.475.181A.413.413,0,0,0,1.769,3.3a2,2,0,0,0,1.012-.635,2.475,2.475,0,0,0-.174-1.313.7.7,0,0,0-.348-.319A1.243,1.243,0,0,0,1.778.946Z" transform="translate(1339.251 5923.152)"/>
    <path id="Shape-45" data-name="Shape" d="M1.884,4.165a1.53,1.53,0,0,1-.892-.317,2.461,2.461,0,0,1-.848-.966A1.627,1.627,0,0,1,.053,1.8,3.5,3.5,0,0,1,1.237.125a.464.464,0,0,1,.3-.119h.085C1.713,0,1.8,0,1.892,0A2.756,2.756,0,0,1,3.4.362,1.678,1.678,0,0,1,4.134,1.53a1.564,1.564,0,0,1-.44,1.392c-.1.093-.193.195-.306.318-.039.04-.08.085-.127.138a3.765,3.765,0,0,1-.546.5,1.439,1.439,0,0,1-.793.285ZM1.871.946H1.736A2.46,2.46,0,0,0,.97,2.025a.691.691,0,0,0,.038.469,1.541,1.541,0,0,0,.534.585.625.625,0,0,0,.342.141h.009A.524.524,0,0,0,2.17,3.1a2.886,2.886,0,0,0,.4-.372c.033-.034.066-.072.1-.112l.03-.031.017-.019c.1-.109.215-.232.326-.337h0a.6.6,0,0,0,.151-.55.739.739,0,0,0-.291-.506A1.8,1.8,0,0,0,1.871.946Z" transform="translate(1338.729 6093.369)"/>
    <path id="Shape-46" data-name="Shape" d="M1.6,3.833a1.646,1.646,0,0,1-.2-.008,1.449,1.449,0,0,1-.793-.29A1.524,1.524,0,0,1,.1,2.7,2.465,2.465,0,0,1,.073,1.41,1.627,1.627,0,0,1,.7.523,3.5,3.5,0,0,1,2.681,0H2.69a.477.477,0,0,1,.3.106l.062.051A3.011,3.011,0,0,1,4.18,1.574,1.668,1.668,0,0,1,4,2.94a1.55,1.55,0,0,1-1.228.784c-.145.01-.3.029-.44.048l-.029,0L2.143,3.8A4.577,4.577,0,0,1,1.6,3.833ZM2.536.956a2.468,2.468,0,0,0-1.281.332.688.688,0,0,0-.272.384,1.551,1.551,0,0,0,.034.787.609.609,0,0,0,.18.334.531.531,0,0,0,.286.091c.043,0,.08.005.119.005a3.781,3.781,0,0,0,.424-.035l.03,0h.017l.1-.013c.138-.019.346-.047.539-.056a.606.606,0,0,0,.469-.326.739.739,0,0,0,.1-.573,1.987,1.987,0,0,0-.75-.927Z" transform="translate(1283.552 6067.248)"/>
    <path id="Shape-47" data-name="Shape" d="M2.563,3.881A1.411,1.411,0,0,1,2.106,3.8c-.121-.041-.244-.074-.386-.112L1.68,3.684,1.5,3.636a3.625,3.625,0,0,1-.7-.247,1.432,1.432,0,0,1-.625-.566,1.5,1.5,0,0,1-.159-.97A2.475,2.475,0,0,1,.473.65,1.643,1.643,0,0,1,1.385.061,2.194,2.194,0,0,1,1.913,0,4.365,4.365,0,0,1,3.421.322a.483.483,0,0,1,.248.214c.013.022.026.047.038.07a3.017,3.017,0,0,1,.516,1.736v0a1.666,1.666,0,0,1-.682,1.194,1.648,1.648,0,0,1-.977.34ZM1.917.946a1.248,1.248,0,0,0-.3.033.686.686,0,0,0-.4.254,1.529,1.529,0,0,0-.262.744A.61.61,0,0,0,1,2.352a.537.537,0,0,0,.232.193,2.806,2.806,0,0,0,.518.178l.146.04c.163.041.352.091.518.147h0a.469.469,0,0,0,.151.025.683.683,0,0,0,.406-.152.749.749,0,0,0,.31-.493,1.993,1.993,0,0,0-.352-1.138A3.23,3.23,0,0,0,1.917.946Z" transform="translate(1264.115 6026.775)"/>
    <path id="Shape-48" data-name="Shape" d="M2.4,4.12a1.478,1.478,0,0,1-1-.368c-.1-.089-.2-.169-.322-.263l-.022-.017L.908,3.359a3.65,3.65,0,0,1-.544-.5,1.424,1.424,0,0,1-.355-.766,1.514,1.514,0,0,1,.232-.956A2.443,2.443,0,0,1,1.13.208,1.617,1.617,0,0,1,1.923,0,1.747,1.747,0,0,1,2.2.022,3.477,3.477,0,0,1,3.971,1.057a.487.487,0,0,1,.145.294.143.143,0,0,0,0,.04c0,.013,0,.028,0,.04a3.012,3.012,0,0,1-.2,1.8,1.665,1.665,0,0,1-1.1.836A1.771,1.771,0,0,1,2.4,4.12ZM1.921.946a.662.662,0,0,0-.332.088,1.545,1.545,0,0,0-.533.583.607.607,0,0,0-.109.362.536.536,0,0,0,.139.267,2.791,2.791,0,0,0,.4.367l.078.06.024.019.019.015.038.029c.123.1.261.2.382.313a.543.543,0,0,0,.367.127.844.844,0,0,0,.2-.025.735.735,0,0,0,.475-.337,1.972,1.972,0,0,0,.123-1.188A2.456,2.456,0,0,0,2.052.956a.844.844,0,0,0-.131-.01Z" transform="translate(1261.663 5981.813)"/>
    <path id="Shape-49" data-name="Shape" d="M2.172,4.244a1.829,1.829,0,0,1-.257-.018A1.561,1.561,0,0,1,.713,3.4C.651,3.272.579,3.148.5,3.011.484,2.986.468,2.96.453,2.934v0l-.048-.08a3.645,3.645,0,0,1-.318-.668,1.435,1.435,0,0,1-.043-.844,1.5,1.5,0,0,1,.574-.8A2.439,2.439,0,0,1,1.789.013,1.687,1.687,0,0,1,2,0a1.653,1.653,0,0,1,.856.242A3.5,3.5,0,0,1,4.106,1.867a.465.465,0,0,1,.022.327c-.006.02-.015.048-.021.076v.005a3.014,3.014,0,0,1-.863,1.588h0a1.592,1.592,0,0,1-1.072.381ZM2,.946A.7.7,0,0,0,1.9.951a1.564,1.564,0,0,0-.712.343.593.593,0,0,0-.235.294.519.519,0,0,0,.028.3,2.721,2.721,0,0,0,.238.493l.022.038c.017.03.035.061.056.093l.038.066c.069.119.155.268.225.408a.609.609,0,0,0,.483.3.945.945,0,0,0,.125.008.691.691,0,0,0,.443-.139A1.987,1.987,0,0,0,3.172,2.1a2.479,2.479,0,0,0-.807-1.05A.7.7,0,0,0,2,.946Z" transform="translate(1276.674 5939.379)"/>
    <path id="Shape-50" data-name="Shape" d="M1.8,4.259A1.8,1.8,0,0,1,.893,4a1.555,1.555,0,0,1-.78-1.231C.105,2.635.088,2.5.067,2.343V2.328C.056,2.27.048,2.209.04,2.144a3.618,3.618,0,0,1-.032-.738A1.452,1.452,0,0,1,.3.612,1.519,1.519,0,0,1,1.136.1,2.986,2.986,0,0,1,1.873,0a2,2,0,0,1,.545.073A1.628,1.628,0,0,1,3.308.7,3.508,3.508,0,0,1,3.83,2.684.478.478,0,0,1,3.724,3L3.7,3.027l-.025.031A3.006,3.006,0,0,1,2.258,4.183h0a1.413,1.413,0,0,1-.455.076ZM1.874.947a2.085,2.085,0,0,0-.5.07.6.6,0,0,0-.332.18.53.53,0,0,0-.091.286,2.771,2.771,0,0,0,.028.547l0,.026c0,.04.01.082.016.125.025.185.047.366.056.539a.61.61,0,0,0,.325.469.844.844,0,0,0,.423.124.482.482,0,0,0,.15-.022,2,2,0,0,0,.927-.753,2.465,2.465,0,0,0-.332-1.282A.684.684,0,0,0,2.161.983,1.037,1.037,0,0,0,1.874.947Z" transform="translate(1306.855 5917.941)"/>
    <path id="Shape-51" data-name="Shape" d="M1.677,4.229c-.046,0-.092,0-.138,0a1.664,1.664,0,0,1-1.2-.682A1.564,1.564,0,0,1,.076,2.109c.043-.125.076-.253.116-.4L.2,1.682l.018-.067V1.61L.245,1.5A3.616,3.616,0,0,1,.493.8,1.433,1.433,0,0,1,1.055.181,1.384,1.384,0,0,1,1.762,0a1.988,1.988,0,0,1,.267.019,2.458,2.458,0,0,1,1.2.454,1.638,1.638,0,0,1,.588.913,3.494,3.494,0,0,1-.261,2.036.476.476,0,0,1-.214.25l-.036.02-.034.018A3.1,3.1,0,0,1,1.677,4.229ZM1.762.947A.469.469,0,0,0,1.529,1a.521.521,0,0,0-.191.232,2.7,2.7,0,0,0-.179.516c0,.011-.006.021-.008.033L1.144,1.8c-.006.024-.014.056-.024.089-.041.163-.089.35-.147.519h0A.609.609,0,0,0,1.1,2.97a.737.737,0,0,0,.493.31h.084a2.1,2.1,0,0,0,1.057-.354A2.5,2.5,0,0,0,2.9,1.613a.688.688,0,0,0-.254-.4A1.547,1.547,0,0,0,1.9.956a1.094,1.094,0,0,0-.141-.01Z" transform="translate(1347.244 5898.488)"/>
    <path id="Shape-52" data-name="Shape" d="M1.939,4.174a1.575,1.575,0,0,1-.8-.241,2.465,2.465,0,0,1-.93-.889A1.647,1.647,0,0,1,.021,1.975,3.5,3.5,0,0,1,1.057.2.483.483,0,0,1,1.35.056h.014A.435.435,0,0,0,1.43.05,6.331,6.331,0,0,1,2.1,0,2.461,2.461,0,0,1,3.229.251a1.657,1.657,0,0,1,.833,1.1,1.554,1.554,0,0,1-.316,1.423c-.083.094-.164.2-.25.309l-.027.035c-.032.042-.073.094-.115.148a3.61,3.61,0,0,1-.5.544,1.428,1.428,0,0,1-.763.355,1.294,1.294,0,0,1-.152.009ZM2.116.947a4.9,4.9,0,0,0-.489.031,2.482,2.482,0,0,0-.67,1.142.7.7,0,0,0,.078.463,1.549,1.549,0,0,0,.583.533.681.681,0,0,0,.327.112h.035a.549.549,0,0,0,.266-.138,2.88,2.88,0,0,0,.367-.407c.025-.031.049-.064.075-.1L2.7,2.564l.008-.012c.1-.124.213-.278.331-.41a.608.608,0,0,0,.1-.562A.726.726,0,0,0,2.812,1.1a1.484,1.484,0,0,0-.7-.155Z" transform="translate(1359.359 6112.135)"/>
  </g>
</svg>
