<svg xmlns="http://www.w3.org/2000/svg" width="261.669" height="270.28" viewBox="0 0 261.669 270.28">
  <g id="path-left" transform="translate(-19.32 -6152)">
    <path id="Shape" d="M4.539,65.256C9.319,35.6,27.144,12.406,57.765,2.814c22.9-7.172,45.454.654,66.66,9.05,10.157,4.022,20.515,7.516,30.532,11.885,10.6,4.624,21.951,9.913,31.5,16.455,4.745,3.253,5.724,8.326,5.824,13.713.079,4.327,1.056,8,0,12.342a85.726,85.726,0,0,1-5.41,15.084c-5.71,12.526-13.363,23.817-19.805,35.928-3.6,6.76-6.246,14.936-10.865,21.027-3.667,4.838-8.429,8.608-12.1,13.349-2.689,3.472-4.784,3.384-9.169,3.384-9.242,0-18.415-.16-27.645-.64-23.569-1.23-48.338.749-70.693-8.046-11.41-4.489-19.7-12.09-25.675-22.672C6.189,115.3,0,105.7,0,95.79,0,85.411,2.885,75.511,4.539,65.256Z" transform="translate(62.797 6224.184)" fill="#4d2c76"/>
    <path id="Shape-2" data-name="Shape" d="M1.183,3.281h0a.337.337,0,0,1-.232-.095L.927,3.164.9,3.143A2.58,2.58,0,0,1,.051,1.907,1.585,1.585,0,0,1,.211.734,1.206,1.206,0,0,1,1.171.078c.1,0,.205-.016.34-.034L1.653.026A3.432,3.432,0,0,1,2.035,0a1.769,1.769,0,0,1,.188.009,1.043,1.043,0,0,1,.607.26A1.344,1.344,0,0,1,3.213,1a2.346,2.346,0,0,1,.006,1.107,1.412,1.412,0,0,1-.494.753,2.467,2.467,0,0,1-1.535.42ZM1.2.89h0a.472.472,0,0,0-.366.274.7.7,0,0,0-.086.492,1.682,1.682,0,0,0,.568.809A1.735,1.735,0,0,0,2.3,2.2.59.59,0,0,0,2.52,1.87,1.476,1.476,0,0,0,2.5,1.189.55.55,0,0,0,2.37.9.38.38,0,0,0,2.151.82,1,1,0,0,0,2.035.814a2.666,2.666,0,0,0-.306.022L1.614.849l-.036,0C1.459.868,1.323.885,1.2.89Z" transform="translate(146.875 6309.902)"/>
    <path id="Shape-3" data-name="Shape" d="M1.786,3.281A3.2,3.2,0,0,1,.652,3.031a.377.377,0,0,1-.195-.178L.426,2.8A2.75,2.75,0,0,1,0,1.331v0A1.451,1.451,0,0,1,.515.3,1.207,1.207,0,0,1,1.287,0a1.015,1.015,0,0,1,.337.058c.092.033.19.059.295.087l.038.01L2.02.172,2.1.193a2.738,2.738,0,0,1,.544.2,1.152,1.152,0,0,1,.494.47,1.378,1.378,0,0,1,.136.82,2.215,2.215,0,0,1-.336,1.025,1.263,1.263,0,0,1-.7.513,1.585,1.585,0,0,1-.45.061ZM1.286.8A.5.5,0,0,0,.968.937a.635.635,0,0,0-.233.423,1.782,1.782,0,0,0,.287.962,2.411,2.411,0,0,0,.764.157.909.909,0,0,0,.255-.033.545.545,0,0,0,.305-.221,1.4,1.4,0,0,0,.2-.637.546.546,0,0,0-.037-.316.406.406,0,0,0-.183-.159A1.924,1.924,0,0,0,1.92.97L1.874.958l-.011,0L1.805.939C1.672.9,1.531.867,1.4.821A.322.322,0,0,0,1.286.8Z" transform="translate(154.258 6328.769)"/>
    <path id="Shape-4" data-name="Shape" d="M1.783,3.281a.885.885,0,0,1-.119-.005A2.7,2.7,0,0,1,.22,2.546.378.378,0,0,1,.091,2.32L.085,2.288c0-.009,0-.021-.006-.032A2.5,2.5,0,0,1,.14.8,1.318,1.318,0,0,1,.95.071,1.326,1.326,0,0,1,1.375,0a1.123,1.123,0,0,1,.707.242c.082.066.169.123.269.194l.017.012.068.046L2.489.53A2.941,2.941,0,0,1,2.943.9a1.173,1.173,0,0,1,.32.593,1.24,1.24,0,0,1-.131.779,1.946,1.946,0,0,1-.643.8A1.252,1.252,0,0,1,1.783,3.281ZM1.373.76a.609.609,0,0,0-.192.033.59.59,0,0,0-.356.295,1.644,1.644,0,0,0-.03.959,1.911,1.911,0,0,0,.929.472l.061,0a.52.52,0,0,0,.3-.091,1.239,1.239,0,0,0,.386-.5.5.5,0,0,0,.065-.295.429.429,0,0,0-.123-.205,2.163,2.163,0,0,0-.338-.271l-.03-.021-.069-.048-.018-.012C1.852,1.01,1.732.928,1.629.846h0A.4.4,0,0,0,1.376.764Z" transform="translate(149.336 6345.584)"/>
    <path id="Shape-5" data-name="Shape" d="M1.536,3.281a.35.35,0,0,1-.143-.03L1.36,3.236l-.024-.011A2.326,2.326,0,0,1,.2,2.383h0a1.383,1.383,0,0,1-.153-1.1A1.236,1.236,0,0,1,.79.41c.1-.037.2-.082.316-.133l.133-.06A2.735,2.735,0,0,1,1.78.029,1.285,1.285,0,0,1,2.044,0a.977.977,0,0,1,.384.076,1.189,1.189,0,0,1,.557.536,2.048,2.048,0,0,1,.3.984,1.341,1.341,0,0,1-.275.824,2.674,2.674,0,0,1-1.358.844A.354.354,0,0,1,1.536,3.281Zm.5-2.522a.588.588,0,0,0-.119.014,2.138,2.138,0,0,0-.4.143L1.417.964c-.131.059-.26.116-.388.164a.48.48,0,0,0-.278.355A.615.615,0,0,0,.8,1.948a1.548,1.548,0,0,0,.755.548,1.9,1.9,0,0,0,.879-.542A.574.574,0,0,0,2.551,1.6a1.292,1.292,0,0,0-.2-.6.472.472,0,0,0-.2-.217.274.274,0,0,0-.113-.02Z" transform="translate(145.646 6288.166)"/>
    <path id="Shape-6" data-name="Shape" d="M1.184,3.281h0A.345.345,0,0,1,.95,3.186L.9,3.141A2.581,2.581,0,0,1,.052,1.908v0A1.574,1.574,0,0,1,.212.735,1.2,1.2,0,0,1,1.17.079c.091,0,.185-.016.284-.027L1.511.044,1.588.035,1.654.027A3.415,3.415,0,0,1,2.035,0a1.61,1.61,0,0,1,.189.01,1.045,1.045,0,0,1,.607.26A1.33,1.33,0,0,1,3.212,1a2.329,2.329,0,0,1,.006,1.1,1.405,1.405,0,0,1-.492.755,2.471,2.471,0,0,1-1.536.42ZM2.035.813A2.7,2.7,0,0,0,1.73.835l-.078.01h0l-.036,0c-.15.018-.284.034-.415.041a.468.468,0,0,0-.369.273.7.7,0,0,0-.086.492,1.7,1.7,0,0,0,.571.808A1.753,1.753,0,0,0,2.306,2.2a.6.6,0,0,0,.216-.325A1.476,1.476,0,0,0,2.5,1.189.545.545,0,0,0,2.37.9.383.383,0,0,0,2.151.82,1.016,1.016,0,0,0,2.035.813Z" transform="translate(157.948 6305.391)"/>
    <path id="Shape-7" data-name="Shape" d="M1.757,3.281A3.366,3.366,0,0,1,.732,3.092a.372.372,0,0,1-.205-.168C.515,2.9.5,2.884.493,2.867A2.734,2.734,0,0,1,0,1.416,1.485,1.485,0,0,1,.463.354,1.184,1.184,0,0,1,1.275,0a1,1,0,0,1,.284.041c.089.027.184.046.284.067l.052.011.027,0,.114.025a2.666,2.666,0,0,1,.552.171A1.134,1.134,0,0,1,3.1.762a1.405,1.405,0,0,1,.176.82,2.283,2.283,0,0,1-.287,1.053,1.271,1.271,0,0,1-.673.555A1.647,1.647,0,0,1,1.757,3.281ZM1.276.809A.484.484,0,0,0,.947.963a.656.656,0,0,0-.212.44,1.807,1.807,0,0,0,.331.953,2.526,2.526,0,0,0,.691.118.984.984,0,0,0,.334-.051.549.549,0,0,0,.293-.24,1.447,1.447,0,0,0,.164-.652A.57.57,0,0,0,2.5,1.214a.41.41,0,0,0-.191-.148A2.076,2.076,0,0,0,1.9.943L1.781.919C1.646.892,1.5.863,1.371.824a.328.328,0,0,0-.1-.015Z" transform="translate(164.921 6325.898)"/>
    <path id="Shape-8" data-name="Shape" d="M1.806,3.281A2.69,2.69,0,0,1,.33,2.7a.384.384,0,0,1-.152-.216.1.1,0,0,0,0-.03L.166,2.424A2.549,2.549,0,0,1,.077.951,1.337,1.337,0,0,1,.806.123,1.3,1.3,0,0,1,1.35,0a1.072,1.072,0,0,1,.595.175c.094.06.19.114.3.176.047.024.089.048.128.071a2.816,2.816,0,0,1,.487.323,1.162,1.162,0,0,1,.377.563,1.276,1.276,0,0,1-.049.8,2.022,2.022,0,0,1-.557.872,1.248,1.248,0,0,1-.8.3ZM1.344.771a.574.574,0,0,0-.237.057.6.6,0,0,0-.322.336,1.7,1.7,0,0,0,.068.97,1.91,1.91,0,0,0,.955.376h.013a.529.529,0,0,0,.347-.129A1.275,1.275,0,0,0,2.5,1.838a.519.519,0,0,0,.034-.305.431.431,0,0,0-.143-.2A2.136,2.136,0,0,0,2.028,1.1l-.062-.034-.023-.013-.02-.011-.009,0C1.807.98,1.672.907,1.553.83A.371.371,0,0,0,1.344.771Z" transform="translate(166.15 6346.815)"/>
    <path id="Shape-9" data-name="Shape" d="M1.74,3.281a1.379,1.379,0,0,1-.369-.052A2.754,2.754,0,0,1,.083,2.251.374.374,0,0,1,0,2.007V1.944A2.391,2.391,0,0,1,.329.558h0A1.312,1.312,0,0,1,1.267.011,1.42,1.42,0,0,1,1.439,0a1.18,1.18,0,0,1,.91.395c.076.085.162.17.243.25.034.032.068.066.1.1a2.851,2.851,0,0,1,.379.443,1.134,1.134,0,0,1,.205.632,1.189,1.189,0,0,1-.274.721,1.928,1.928,0,0,1-.783.641A1.271,1.271,0,0,1,1.74,3.281ZM1.445.744A.69.69,0,0,0,1.359.75a.58.58,0,0,0-.4.214,1.565,1.565,0,0,0-.21.917,1.933,1.933,0,0,0,.829.632.6.6,0,0,0,.164.024A.533.533,0,0,0,1.943,2.5a1.239,1.239,0,0,0,.474-.4.475.475,0,0,0,.119-.272A.42.42,0,0,0,2.453,1.6a2.161,2.161,0,0,0-.283-.324L2.129,1.23l-.041-.041c-.123-.12-.218-.217-.3-.3h0A.442.442,0,0,0,1.445.744Z" transform="translate(160.412 6366.912)"/>
    <path id="Shape-10" data-name="Shape" d="M1.694,3.281a1.331,1.331,0,0,1-.738-.223,2.689,2.689,0,0,1-.929-1.3A.35.35,0,0,1,.02,1.5l.014-.041.006-.018v0A2.313,2.313,0,0,1,.792.253h0A1.292,1.292,0,0,1,1.587,0a1.523,1.523,0,0,1,.276.025,1.24,1.24,0,0,1,.92.686c.039.087.082.171.134.267l.021.041c.025.045.047.087.068.128a2.7,2.7,0,0,1,.226.529,1.072,1.072,0,0,1,0,.65,1.177,1.177,0,0,1-.489.591,1.984,1.984,0,0,1-.952.361A.958.958,0,0,1,1.694,3.281ZM1.586.73A.548.548,0,0,0,1.264.82a1.531,1.531,0,0,0-.487.792,1.908,1.908,0,0,0,.6.841.566.566,0,0,0,.319.1h.041a1.271,1.271,0,0,0,.582-.235.477.477,0,0,0,.2-.217.407.407,0,0,0-.01-.232,2.044,2.044,0,0,0-.17-.391l-.019-.035-.037-.068c-.068-.129-.135-.254-.188-.375h0A.481.481,0,0,0,1.725.743.757.757,0,0,0,1.586.73Z" transform="translate(148.926 6384.958)"/>
    <path id="Shape-11" data-name="Shape" d="M1.495,3.281a.35.35,0,0,1-.154-.035l-.029-.014-.028-.014h0a2.338,2.338,0,0,1-1.1-.889h0A1.4,1.4,0,0,1,.063,1.222,1.235,1.235,0,0,1,.833.369C.922.34,1.012.3,1.107.265L1.155.244,1.287.189A2.865,2.865,0,0,1,1.835.02,1.312,1.312,0,0,1,2.055,0a1,1,0,0,1,.425.091A1.191,1.191,0,0,1,3.018.65a2.047,2.047,0,0,1,.263,1,1.351,1.351,0,0,1-.3.82,2.659,2.659,0,0,1-1.386.8A.355.355,0,0,1,1.495,3.281ZM2.057.764a.67.67,0,0,0-.105.009,2.219,2.219,0,0,0-.4.128L1.493.925,1.476.931,1.438.947,1.411.958l-.005,0c-.112.046-.24.1-.359.136h0a.483.483,0,0,0-.29.347.632.632,0,0,0,.031.469,1.553,1.553,0,0,0,.738.579,1.873,1.873,0,0,0,.893-.512.562.562,0,0,0,.134-.353,1.312,1.312,0,0,0-.175-.613A.479.479,0,0,0,2.184.79.287.287,0,0,0,2.057.764Z" transform="translate(146.876 6270.938)"/>
    <path id="Shape-12" data-name="Shape" d="M1.566,3.281a4.088,4.088,0,0,1-.593-.047A.361.361,0,0,1,.75,3.1L.729,3.074.707,3.049A2.763,2.763,0,0,1,.015,1.671v0A1.594,1.594,0,0,1,.323.516,1.171,1.171,0,0,1,1.242,0a.981.981,0,0,1,.112.007c.1.013.208.016.342.02h.059l.086,0a2.639,2.639,0,0,1,.57.076A1.089,1.089,0,0,1,2.98.463a1.413,1.413,0,0,1,.29.8,2.431,2.431,0,0,1-.133,1.114,1.369,1.369,0,0,1-.585.681,1.954,1.954,0,0,1-.986.227ZM1.244.828a.466.466,0,0,0-.36.219.7.7,0,0,0-.148.482,1.816,1.816,0,0,0,.463.9,3.117,3.117,0,0,0,.369.024,1.312,1.312,0,0,0,.649-.136.588.588,0,0,0,.256-.294,1.529,1.529,0,0,0,.07-.686.566.566,0,0,0-.1-.313A.381.381,0,0,0,2.238.908,1.86,1.86,0,0,0,1.817.857c-.046,0-.082,0-.117,0H1.664c-.126,0-.26-.01-.382-.023l-.038,0Z" transform="translate(168.202 6296.369)"/>
    <path id="Shape-13" data-name="Shape" d="M1.816,3.281A2.835,2.835,0,0,1,.417,2.8.387.387,0,0,1,.253,2.6C.245,2.576.237,2.555.231,2.535v0A2.617,2.617,0,0,1,.043,1.054,1.369,1.369,0,0,1,.716.168,1.255,1.255,0,0,1,1.329,0a1.053,1.053,0,0,1,.522.137c.1.055.208.1.314.153l.1.048L2.3.352a2.852,2.852,0,0,1,.507.292,1.173,1.173,0,0,1,.412.54,1.318,1.318,0,0,1,0,.809,2.039,2.039,0,0,1-.5.92,1.236,1.236,0,0,1-.774.361A1.059,1.059,0,0,1,1.816,3.281ZM1.327.779a.554.554,0,0,0-.265.075.6.6,0,0,0-.3.363A1.734,1.734,0,0,0,.9,2.191a2.012,2.012,0,0,0,.918.31.523.523,0,0,0,.072,0,.533.533,0,0,0,.336-.154,1.316,1.316,0,0,0,.293-.574.536.536,0,0,0,.013-.31.443.443,0,0,0-.155-.186A2.182,2.182,0,0,0,2,1.062l-.109-.048L1.833.988l-.008,0c-.106-.05-.216-.1-.318-.157a.356.356,0,0,0-.18-.048Z" transform="translate(178.044 6327.538)"/>
    <path id="Shape-14" data-name="Shape" d="M1.737,3.281a1.319,1.319,0,0,1-.41-.067A2.741,2.741,0,0,1,.076,2.2.374.374,0,0,1,0,1.951V1.888A2.369,2.369,0,0,1,.382.519,1.312,1.312,0,0,1,1.335.006.921.921,0,0,1,1.46,0,1.2,1.2,0,0,1,2.4.424c.061.075.129.147.2.223l.033.035.041.041c.02.021.041.041.061.064a2.774,2.774,0,0,1,.361.456,1.124,1.124,0,0,1,.181.637,1.2,1.2,0,0,1-.3.712,1.938,1.938,0,0,1-.8.611A1.3,1.3,0,0,1,1.737,3.281ZM1.464.741a.471.471,0,0,0-.062,0,.584.584,0,0,0-.41.2,1.559,1.559,0,0,0-.241.906,1.939,1.939,0,0,0,.8.659.6.6,0,0,0,.183.03.533.533,0,0,0,.187-.034,1.21,1.21,0,0,0,.486-.387.468.468,0,0,0,.128-.266.4.4,0,0,0-.074-.224,2.169,2.169,0,0,0-.271-.334.43.43,0,0,0-.041-.041l-.009-.011-.033-.034L2.1,1.2C2.011,1.1,1.91,1,1.827.892h0A.451.451,0,0,0,1.464.741Z" transform="translate(173.534 6359.939)"/>
    <path id="Shape-15" data-name="Shape" d="M1.678,3.281H1.63a1.35,1.35,0,0,1-.82-.3,2.657,2.657,0,0,1-.8-1.386.354.354,0,0,1,.021-.252l.014-.029.014-.028A2.328,2.328,0,0,1,.952.178h0A1.278,1.278,0,0,1,1.623,0a1.584,1.584,0,0,1,.435.062,1.234,1.234,0,0,1,.854.772c.031.094.068.186.112.292l.012.03c.008.021.017.041.026.065s.018.045.027.067a2.654,2.654,0,0,1,.171.548,1.061,1.061,0,0,1-.07.645,1.191,1.191,0,0,1-.559.537,2.084,2.084,0,0,1-.954.263ZM1.628.728a.523.523,0,0,0-.26.061,1.554,1.554,0,0,0-.579.738A1.876,1.876,0,0,0,1.3,2.42a.574.574,0,0,0,.354.134h.021a1.353,1.353,0,0,0,.592-.175.483.483,0,0,0,.224-.195.39.39,0,0,0,.016-.232,2.22,2.22,0,0,0-.129-.4c-.011-.024-.021-.048-.031-.075l-.007-.016L2.334,1.44c-.054-.128-.11-.265-.15-.392h0a.484.484,0,0,0-.347-.29.749.749,0,0,0-.21-.031Z" transform="translate(157.949 6389.469)"/>
    <path id="Shape-16" data-name="Shape" d="M87.081,108.874c-3.281,2.83-9.921,1.3-14.7,3.158-20.051,7.8-37.4-1-41.621-22.033C29.033,81.364,6.5,68.353,1.474,52.417c-6.647-21.07,10.987-29.48,17.247-40.728C21.655,6.414,26.69,1.875,32.494.31c9.125-2.461,16.729,10.726,28.392,5.275,6.187-2.893,15.667,8.329,21.723,2.748,11.669-10.757,52.25,7.253,40.694,29.441-8.147,15.644,19.79,20.962,16.728,37.03-3.27,17.168-7.082,33.706-24.109,37.715C103.881,115.355,93.169,103.622,87.081,108.874Z" transform="translate(25.064 6190.553)" fill="#4d2c76" opacity="0.68"/>
    <path id="Shape-17" data-name="Shape" d="M72.422,105.815c-1.33,0-2.71-.019-4.343-.061-4.743-.12-8.99-.369-12.983-.764a114.316,114.316,0,0,1-13.8-2.163,74.106,74.106,0,0,1-13.617-4.391,54.6,54.6,0,0,1-6.424-3.35,45.923,45.923,0,0,1-5.906-4.281A45.178,45.178,0,0,1,6.537,80.7a41.654,41.654,0,0,1-5.02-11.453A45.443,45.443,0,0,1,0,56.931,54.435,54.435,0,0,1,1.7,44.24a52.347,52.347,0,0,1,8.516-18.032,58.071,58.071,0,0,1,6.576-7.547,62.728,62.728,0,0,1,7.837-6.424,66.921,66.921,0,0,1,8.884-5.188,69.848,69.848,0,0,1,9.714-3.843A70.809,70.809,0,0,1,64.3,0c1.46,0,2.938.046,4.392.137,4.306.27,7.54.593,10.482,1.05a54.516,54.516,0,0,1,9.807,2.384A48.036,48.036,0,0,1,107.2,15.407a38.2,38.2,0,0,1,4.6,5.51,40.878,40.878,0,0,1,3.384,5.967,47.827,47.827,0,0,1,2.358,6.25,59.612,59.612,0,0,1,1.525,6.357,91.34,91.34,0,0,1,1.322,12.369c.189,4.092.188,8.143.187,11.718v.477a63.776,63.776,0,0,1-.472,8.464,33.852,33.852,0,0,1-1.945,7.826,32.335,32.335,0,0,1-3.969,7.253,54,54,0,0,1-5.961,6.842,33.955,33.955,0,0,1-8.213,5.956,42.777,42.777,0,0,1-9.168,3.445,60.666,60.666,0,0,1-9.43,1.588C78.671,105.689,75.728,105.815,72.422,105.815Zm-8.2-92.076a56.563,56.563,0,0,0-16.982,2.594,53.623,53.623,0,0,0-14.62,7.142,49.189,49.189,0,0,0-6.058,4.978,44.986,44.986,0,0,0-5.027,5.755,38.659,38.659,0,0,0-6.374,13.364A35.546,35.546,0,0,0,14.923,65.7,29.327,29.327,0,0,0,24.438,80.42a35.911,35.911,0,0,0,8.9,5.468,60.175,60.175,0,0,0,11.04,3.54,100.253,100.253,0,0,0,12.1,1.889c3.653.36,7.566.589,11.963.7,1.312.033,2.52.049,3.689.049,2.921,0,5.482-.1,7.83-.315a47.9,47.9,0,0,0,7.131-1.136,28.993,28.993,0,0,0,6.225-2.247,20.32,20.32,0,0,0,5.112-3.646,40.627,40.627,0,0,0,4.458-5.08,18.861,18.861,0,0,0,2.324-4.207c1.066-2.759,1.5-6.055,1.5-11.378,0-3.737,0-7.6-.164-11.33a78.189,78.189,0,0,0-1.121-10.763,38.817,38.817,0,0,0-2.848-9.355,27.205,27.205,0,0,0-2.26-3.986,24.381,24.381,0,0,0-2.921-3.5,41.722,41.722,0,0,0-6.659-5.466,29.777,29.777,0,0,0-6.388-3.14,40.617,40.617,0,0,0-7.312-1.757c-2.487-.384-5.414-.674-9.215-.912C66.626,13.777,65.416,13.74,64.224,13.74Z" transform="translate(106.683 6161.434)" fill="#fff"/>
    <path id="Shape-18" data-name="Shape" d="M23.606,38.837C13.036,31.9-.479,28.821.013,16.154.227,10.68,1.03,7.049,5.1,3.045,7.526.656,14.174,0,17.4,0a29.081,29.081,0,0,1,17.77,5.711,23.793,23.793,0,0,1,9.865,13.625,22.02,22.02,0,0,1,.719,9.847c-.629,4.429,1.949,8.341.612,12.522-.788,2.467-4.56,1.9-7.661,2.137C32.5,44.323,26.314,40.612,23.606,38.837Z" transform="translate(234.234 6215.161)" fill="#b6418f"/>
    <path id="Shape-19" data-name="Shape" d="M37.87,65.212c-.717,0-1.474-.013-2.314-.039-2.621-.082-4.963-.249-7.152-.512a51.7,51.7,0,0,1-7.484-1.428,34.236,34.236,0,0,1-7.165-2.811,24.837,24.837,0,0,1-6.2-4.663,26.722,26.722,0,0,1-6.811-12.9A32.944,32.944,0,0,1,0,35.411a40.628,40.628,0,0,1,.867-7.793,35.661,35.661,0,0,1,4.318-11.1,34.927,34.927,0,0,1,7.4-8.74,33.18,33.18,0,0,1,9.646-5.728A30.96,30.96,0,0,1,33.3,0c.772,0,1.555.03,2.326.089A51.32,51.32,0,0,1,41.3.779a23.771,23.771,0,0,1,5.007,1.479,20.245,20.245,0,0,1,4.621,2.767,30.186,30.186,0,0,1,4.52,4.508A57.157,57.157,0,0,1,63.6,21.873,33.634,33.634,0,0,1,66.851,36.33,20.124,20.124,0,0,1,65.84,42.4a32.722,32.722,0,0,1-2.576,5.849,69.111,69.111,0,0,1-7.222,10.233,16.6,16.6,0,0,1-3.948,3.467A18.9,18.9,0,0,1,47.559,64,32.717,32.717,0,0,1,37.87,65.212ZM33.3,1.227h0A29.743,29.743,0,0,0,22.672,3.2a31.959,31.959,0,0,0-9.289,5.512,33.665,33.665,0,0,0-7.136,8.428,34.447,34.447,0,0,0-4.17,10.723,39.414,39.414,0,0,0-.842,7.557A31.686,31.686,0,0,0,1.953,42.6a25.522,25.522,0,0,0,6.5,12.315,23.611,23.611,0,0,0,5.906,4.44,32.983,32.983,0,0,0,6.89,2.7,50.451,50.451,0,0,0,7.279,1.388c2.167.261,4.479.427,7.069.507.82.025,1.559.038,2.266.038a31.586,31.586,0,0,0,9.32-1.155,17.674,17.674,0,0,0,4.249-1.91A15.377,15.377,0,0,0,55.093,57.7,67.718,67.718,0,0,0,62.185,47.66a31.5,31.5,0,0,0,2.481-5.628,18.9,18.9,0,0,0,.954-5.7A32.438,32.438,0,0,0,62.487,22.39,56.008,56.008,0,0,0,54.5,10.316a28.994,28.994,0,0,0-4.338-4.328,19.036,19.036,0,0,0-4.343-2.6A31.732,31.732,0,0,0,35.529,1.313c-.738-.056-1.487-.085-2.227-.085Z" transform="translate(171.074 6152)"/>
    <path id="Shape-20" data-name="Shape" d="M1.8,3.281a1.893,1.893,0,0,1-.2-.011A2.208,2.208,0,0,1,.576,2.936a1.269,1.269,0,0,1-.513-.7A2.493,2.493,0,0,1,.252.653a.38.38,0,0,1,.176-.2L.488.425A2.786,2.786,0,0,1,1.875,0h.077A1.456,1.456,0,0,1,2.978.514a1.137,1.137,0,0,1,.246,1.107c-.03.084-.055.173-.082.268v0l-.017.061c-.011.044-.023.089-.035.135v.005a2.738,2.738,0,0,1-.2.548,1.148,1.148,0,0,1-.47.493,1.277,1.277,0,0,1-.623.147ZM1.871.734a1.833,1.833,0,0,0-.91.291,1.772,1.772,0,0,0-.123,1.02.543.543,0,0,0,.221.305,1.4,1.4,0,0,0,.635.192c.036,0,.07.005.1.005A.448.448,0,0,0,2.012,2.5a.4.4,0,0,0,.159-.182,1.954,1.954,0,0,0,.144-.4l.007-.026c.007-.029.015-.058.024-.088.037-.141.073-.278.119-.4A.448.448,0,0,0,2.349.967.64.64,0,0,0,1.926.735Z" transform="translate(109.14 6352.967)"/>
    <path id="Shape-21" data-name="Shape" d="M1.732,3.281a1.611,1.611,0,0,1-.381-.049,2.061,2.061,0,0,1-.943-.463A1.241,1.241,0,0,1,.015,2.01,2.584,2.584,0,0,1,.433.46a.388.388,0,0,1,.2-.173L.7.263h0A3.037,3.037,0,0,1,1.822,0a2.169,2.169,0,0,1,.354.03,1.374,1.374,0,0,1,.915.64A1.148,1.148,0,0,1,3.165,1.8c-.052.1-.1.208-.142.318l-.058.135a2.814,2.814,0,0,1-.274.515,1.167,1.167,0,0,1-.527.429,1.167,1.167,0,0,1-.433.08ZM1.821.735a2.128,2.128,0,0,0-.756.183,1.819,1.819,0,0,0-.273,1,.528.528,0,0,0,.169.331,1.3,1.3,0,0,0,.586.272.8.8,0,0,0,.185.025.348.348,0,0,0,.127-.021.427.427,0,0,0,.182-.164,2.259,2.259,0,0,0,.2-.382l.022-.053.023-.056.024-.056,0-.009c.046-.108.094-.219.147-.323a.448.448,0,0,0-.047-.443A.615.615,0,0,0,2.039.75,1.326,1.326,0,0,0,1.821.735Z" transform="translate(109.55 6378.396)"/>
    <path id="Shape-22" data-name="Shape" d="M1.533,3.281a1.989,1.989,0,0,1-.707-.127h0a1.315,1.315,0,0,1-.748-.8A1.2,1.2,0,0,1,.23,1.223c.07-.091.132-.187.2-.287L.512.812A2.878,2.878,0,0,1,.874.351,1.164,1.164,0,0,1,1.462.023,1.047,1.047,0,0,1,1.673,0a1.363,1.363,0,0,1,.572.139,1.979,1.979,0,0,1,.809.628,1.262,1.262,0,0,1,.224.824,2.7,2.7,0,0,1-.705,1.453.377.377,0,0,1-.225.133c-.021,0-.041.009-.064.012a3.9,3.9,0,0,1-.75.094ZM1.674.741a.24.24,0,0,0-.055.006.41.41,0,0,0-.205.126,2.027,2.027,0,0,0-.265.342L1.1,1.286l-.018.027c-.072.111-.157.24-.242.351h0A.464.464,0,0,0,.8,2.109a.577.577,0,0,0,.3.351,1.192,1.192,0,0,0,.43.079,2.947,2.947,0,0,0,.533-.065,1.906,1.906,0,0,0,.456-.935.525.525,0,0,0-.1-.357A1.236,1.236,0,0,0,1.916.806.6.6,0,0,0,1.674.741Z" transform="translate(109.143 6268.479)"/>
    <path id="Shape-23" data-name="Shape" d="M1.471,3.28a1.189,1.189,0,0,1-.71-.261A1.922,1.922,0,0,1,.1,2.247a1.284,1.284,0,0,1-.058-.853A2.743,2.743,0,0,1,1,.088.369.369,0,0,1,1.245,0H1.4A2.26,2.26,0,0,1,2.7.3h0a1.312,1.312,0,0,1,.565.929A1.233,1.233,0,0,1,2.9,2.324c-.079.073-.155.152-.246.246l-.1.106a2.855,2.855,0,0,1-.438.386,1.122,1.122,0,0,1-.628.218ZM1.385.744a1.952,1.952,0,0,0-.618.839.547.547,0,0,0,.024.371,1.2,1.2,0,0,0,.412.464.479.479,0,0,0,.269.115h.005a.4.4,0,0,0,.22-.087,2.251,2.251,0,0,0,.32-.287L2.1,2.073c.087-.091.2-.205.3-.3h0a.476.476,0,0,0,.127-.432A.6.6,0,0,0,2.3.938a1.578,1.578,0,0,0-.92-.194Z" transform="translate(111.604 6366.914)"/>
    <path id="Shape-24" data-name="Shape" d="M1.786,3.281A3.2,3.2,0,0,1,.652,3.031a.377.377,0,0,1-.195-.178L.426,2.8A2.738,2.738,0,0,1,0,1.331v0A1.451,1.451,0,0,1,.515.3,1.207,1.207,0,0,1,1.287,0a1.015,1.015,0,0,1,.337.058c.1.034.192.059.3.089l.03.008L2.02.172,2.1.193a2.739,2.739,0,0,1,.546.2,1.158,1.158,0,0,1,.493.47,1.378,1.378,0,0,1,.136.82,2.174,2.174,0,0,1-.336,1.025,1.263,1.263,0,0,1-.7.513,1.585,1.585,0,0,1-.45.061ZM1.287.8A.5.5,0,0,0,.968.937a.635.635,0,0,0-.233.423,1.81,1.81,0,0,0,.287.962,2.413,2.413,0,0,0,.765.157.92.92,0,0,0,.256-.033.539.539,0,0,0,.3-.221,1.385,1.385,0,0,0,.2-.637.546.546,0,0,0-.037-.316.406.406,0,0,0-.183-.159A1.873,1.873,0,0,0,1.92.97l-.013,0-.02,0h0L1.8.941C1.678.908,1.533.869,1.4.822A.331.331,0,0,0,1.287.8Z" transform="translate(117.345 6321.797)"/>
    <path id="Shape-25" data-name="Shape" d="M1.7,3.281a1.322,1.322,0,0,1-.656-.176A2.714,2.714,0,0,1,.036,1.867a.361.361,0,0,1-.024-.253c0-.011.006-.022.009-.034s0-.018.007-.027A2.319,2.319,0,0,1,.687.31,1.305,1.305,0,0,1,1.558,0a1.488,1.488,0,0,1,.174.01,1.214,1.214,0,0,1,.96.623c.049.092.106.185.176.3l0,0,.074.12a2.868,2.868,0,0,1,.26.512,1.093,1.093,0,0,1,.046.652,1.16,1.16,0,0,1-.442.624,1.952,1.952,0,0,1-.917.426,1.354,1.354,0,0,1-.187.013ZM1.555.732A.555.555,0,0,0,1.2.846a1.535,1.535,0,0,0-.427.825,1.917,1.917,0,0,0,.652.8.565.565,0,0,0,.283.08.576.576,0,0,0,.082-.006,1.236,1.236,0,0,0,.557-.274.466.466,0,0,0,.182-.231A.4.4,0,0,0,2.5,1.807a2.109,2.109,0,0,0-.2-.378c-.02-.033-.041-.066-.063-.1l-.029-.043L2.2,1.271c-.061-.1-.123-.2-.177-.3a.477.477,0,0,0-.385-.23A.779.779,0,0,0,1.555.732Z" transform="translate(118.986 6339.843)"/>
    <path id="Shape-26" data-name="Shape" d="M1.737,3.281a1.341,1.341,0,0,1-.389-.059,2.753,2.753,0,0,1-1.267-1A.369.369,0,0,1,0,1.978V1.916A2.388,2.388,0,0,1,.356.538h0A1.312,1.312,0,0,1,1.3.009,1.417,1.417,0,0,1,1.451,0a1.193,1.193,0,0,1,.927.41c.064.075.132.144.21.224l.029.03c.019.021.041.041.061.064L2.72.769a2.852,2.852,0,0,1,.369.449,1.125,1.125,0,0,1,.192.632,1.182,1.182,0,0,1-.287.717,1.937,1.937,0,0,1-.792.627,1.292,1.292,0,0,1-.464.087ZM1.456.743a.656.656,0,0,0-.075,0A.583.583,0,0,0,.97.953a1.575,1.575,0,0,0-.225.912,1.941,1.941,0,0,0,.818.646.591.591,0,0,0,.176.028A.516.516,0,0,0,1.934,2.5a1.2,1.2,0,0,0,.479-.395.463.463,0,0,0,.123-.269.414.414,0,0,0-.079-.223,2.233,2.233,0,0,0-.276-.328l-.044-.046L2.1,1.2l0,0c-.088-.089-.2-.2-.287-.308A.451.451,0,0,0,1.456.743Z" transform="translate(114.475 6331.639)"/>
    <path id="Shape-27" data-name="Shape" d="M1.815,3.281H1.8A2.314,2.314,0,0,1,.726,3.045a1.317,1.317,0,0,1-.6-.646A2.44,2.44,0,0,1,.135.81.369.369,0,0,1,.292.6L.323.579.347.563A2.743,2.743,0,0,1,1.778,0c.026,0,.052,0,.078,0a1.549,1.549,0,0,1,1.02.414,1.136,1.136,0,0,1,.379,1.078c-.025.109-.041.222-.059.338-.005.037-.011.075-.018.114l0,.029a2.581,2.581,0,0,1-.138.56,1.143,1.143,0,0,1-.418.533,1.416,1.416,0,0,1-.8.215ZM1.852.731H1.836a1.824,1.824,0,0,0-.941.379A1.723,1.723,0,0,0,.889,2.136a.561.561,0,0,0,.257.281,1.47,1.47,0,0,0,.667.132h.01a.547.547,0,0,0,.3-.067.4.4,0,0,0,.14-.2,1.964,1.964,0,0,0,.1-.415c0-.014,0-.029.007-.045V1.812l.006-.021a.232.232,0,0,1,.006-.037l0-.017c.016-.111.039-.264.071-.4A.443.443,0,0,0,2.291.923.69.69,0,0,0,1.852.731Z" transform="translate(111.604 6344.354)"/>
    <path id="Shape-28" data-name="Shape" d="M1.6,3.281a3.913,3.913,0,0,1-.656-.06.356.356,0,0,1-.223-.137L.7,3.054.684,3.031A2.751,2.751,0,0,1,.013,1.643,1.577,1.577,0,0,1,.337.5,1.169,1.169,0,0,1,1.246,0a.984.984,0,0,1,.133.009c.1.014.195.018.307.024h.036c.046,0,.093,0,.145.008a2.548,2.548,0,0,1,.567.086A1.09,1.09,0,0,1,3,.5a1.4,1.4,0,0,1,.276.8A2.362,2.362,0,0,1,3.123,2.4a1.343,1.343,0,0,1-.6.669,1.9,1.9,0,0,1-.928.21ZM1.25.824a.472.472,0,0,0-.359.212.7.7,0,0,0-.155.477,1.812,1.812,0,0,0,.451.911,3.094,3.094,0,0,0,.413.031,1.26,1.26,0,0,0,.607-.123.567.567,0,0,0,.259-.287,1.522,1.522,0,0,0,.078-.686.56.56,0,0,0-.092-.312A.39.39,0,0,0,2.247.927a1.812,1.812,0,0,0-.42-.059l-.046,0H1.754l-.045,0H1.682C1.559.855,1.419.848,1.291.829l-.041,0Z" transform="translate(117.345 6308.672)"/>
    <path id="Shape-29" data-name="Shape" d="M1.6,3.281a3.913,3.913,0,0,1-.656-.06.349.349,0,0,1-.223-.137C.709,3.067.7,3.051.68,3.031l0,0A2.753,2.753,0,0,1,.013,1.643,1.584,1.584,0,0,1,.337.495,1.172,1.172,0,0,1,1.246,0a.984.984,0,0,1,.133.009c.1.014.195.018.307.024h.036c.046,0,.093,0,.145.008a2.548,2.548,0,0,1,.567.086A1.09,1.09,0,0,1,3,.5a1.4,1.4,0,0,1,.276.8A2.36,2.36,0,0,1,3.123,2.4a1.346,1.346,0,0,1-.6.669,1.9,1.9,0,0,1-.928.21ZM1.25.824a.472.472,0,0,0-.359.212.687.687,0,0,0-.155.477,1.812,1.812,0,0,0,.451.911,3.094,3.094,0,0,0,.413.031,1.26,1.26,0,0,0,.607-.123.567.567,0,0,0,.259-.287,1.522,1.522,0,0,0,.077-.686.56.56,0,0,0-.092-.312A.4.4,0,0,0,2.247.924a1.9,1.9,0,0,0-.42-.057h0l-.041,0H1.766c-.018,0-.038,0-.057,0C1.578.855,1.428.846,1.291.828l-.041,0Z" transform="translate(124.317 6312.363)"/>
    <path id="Shape-30" data-name="Shape" d="M1.773,3.281a1.415,1.415,0,0,1-.166-.01,2.725,2.725,0,0,1-1.42-.778.378.378,0,0,1-.123-.23l0-.032,0-.032v0A2.458,2.458,0,0,1,.166.755v0A1.317,1.317,0,0,1,1,.056,1.353,1.353,0,0,1,1.386,0a1.132,1.132,0,0,1,.746.268c.084.073.178.141.278.213L2.5.544l.032.023A2.864,2.864,0,0,1,2.97.954a1.144,1.144,0,0,1,.3.6,1.218,1.218,0,0,1-.156.77,1.959,1.959,0,0,1-.671.769,1.259,1.259,0,0,1-.668.189ZM1.384.755A.615.615,0,0,0,1.21.782a.592.592,0,0,0-.367.28,1.628,1.628,0,0,0-.062.954,1.919,1.919,0,0,0,.914.5.644.644,0,0,0,.082.005.509.509,0,0,0,.28-.082,1.214,1.214,0,0,0,.4-.48.484.484,0,0,0,.074-.292.413.413,0,0,0-.115-.209,2.046,2.046,0,0,0-.328-.281l-.027-.02-.069-.051c-.113-.082-.233-.171-.34-.26A.407.407,0,0,0,1.384.755Z" transform="translate(129.24 6328.769)"/>
    <path id="Shape-31" data-name="Shape" d="M1.677,3.281H1.63a1.349,1.349,0,0,1-.82-.3,2.646,2.646,0,0,1-.8-1.385.351.351,0,0,1,.021-.251c.009-.018.018-.037.027-.055l0-.009A2.335,2.335,0,0,1,.952.178h0A1.29,1.29,0,0,1,1.626,0a1.567,1.567,0,0,1,.433.061,1.236,1.236,0,0,1,.853.773c.031.093.068.184.111.29l.013.031c.017.041.036.088.055.134a2.853,2.853,0,0,1,.169.546,1.057,1.057,0,0,1-.072.645,1.193,1.193,0,0,1-.558.539,2.1,2.1,0,0,1-.954.263ZM1.629.728a.516.516,0,0,0-.261.061,1.543,1.543,0,0,0-.58.735,1.876,1.876,0,0,0,.513.9.574.574,0,0,0,.354.132h.02a1.324,1.324,0,0,0,.591-.173.468.468,0,0,0,.224-.195.369.369,0,0,0,.016-.23,2.062,2.062,0,0,0-.128-.4c-.012-.032-.027-.066-.041-.1l0-.01c-.048-.115-.106-.258-.15-.392A.485.485,0,0,0,1.835.757.758.758,0,0,0,1.629.728Z" transform="translate(125.958 6346.406)"/>
    <path id="Shape-32" data-name="Shape" d="M1.815,3.281c-.037,0-.075,0-.113,0A2.25,2.25,0,0,1,.648,2.991,1.288,1.288,0,0,1,.092,2.32,2.473,2.473,0,0,1,.19.731.38.38,0,0,1,.358.526L.384.513.415.492h0A2.744,2.744,0,0,1,1.866,0h.015A1.493,1.493,0,0,1,2.929.463a1.132,1.132,0,0,1,.313,1.1c-.03.107-.054.223-.078.335-.009.046-.019.092-.029.142a2.63,2.63,0,0,1-.171.552,1.127,1.127,0,0,1-.445.514,1.324,1.324,0,0,1-.7.179ZM1.879.733a1.82,1.82,0,0,0-.952.333A1.729,1.729,0,0,0,.86,2.092a.546.546,0,0,0,.24.293,1.405,1.405,0,0,0,.651.164h.064a.481.481,0,0,0,.253-.055.4.4,0,0,0,.15-.189,1.875,1.875,0,0,0,.123-.41c.007-.032.015-.069.023-.106V1.78c.025-.126.055-.273.1-.41a.438.438,0,0,0-.14-.427A.666.666,0,0,0,1.882.731Z" transform="translate(118.575 6356.249)"/>
    <path id="Shape-33" data-name="Shape" d="M1.444,3.282c-.123,0-.251-.006-.39-.018a.346.346,0,0,1-.229-.123L.8,3.109.78,3.093a2.707,2.707,0,0,1-.754-1.34A1.617,1.617,0,0,1,.279.578,1.159,1.159,0,0,1,1.228.005h.059l.118,0c.066,0,.135,0,.205,0h.269a2.26,2.26,0,0,1,.464.038,1.066,1.066,0,0,1,.586.325,1.408,1.408,0,0,1,.324.782,2.446,2.446,0,0,1-.082,1.124,1.394,1.394,0,0,1-.551.717,2.092,2.092,0,0,1-1.177.292ZM1.231.835a.467.467,0,0,0-.369.242.723.723,0,0,0-.123.491,1.785,1.785,0,0,0,.5.878c.066,0,.135.006.2.006a1.485,1.485,0,0,0,.808-.18.591.591,0,0,0,.241-.31,1.546,1.546,0,0,0,.037-.692A.567.567,0,0,0,2.42.963.394.394,0,0,0,2.207.857,1.686,1.686,0,0,0,1.876.831h-.09c-.033,0-.07,0-.117,0-.082,0-.16,0-.24,0s-.127,0-.178,0Z" transform="translate(121.036 6296.367)"/>
    <path id="Shape-34" data-name="Shape" d="M1.815,3.281a2.9,2.9,0,0,1-1.33-.408.373.373,0,0,1-.175-.2c0-.01-.009-.022-.013-.032L.285,2.614v0A2.651,2.651,0,0,1,.028,1.134h0A1.376,1.376,0,0,1,.653.205,1.238,1.238,0,0,1,1.317,0a1.04,1.04,0,0,1,.466.11c.1.048.2.088.313.134l.006,0,.073.03L2.239.3a2.767,2.767,0,0,1,.519.266,1.152,1.152,0,0,1,.438.519,1.337,1.337,0,0,1,.046.816,2.119,2.119,0,0,1-.451.954,1.246,1.246,0,0,1-.755.41A1.482,1.482,0,0,1,1.815,3.281Zm-.5-2.5a.525.525,0,0,0-.282.093.608.608,0,0,0-.279.38,1.756,1.756,0,0,0,.179.974,2.112,2.112,0,0,0,.883.263.822.822,0,0,0,.119-.009.533.533,0,0,0,.328-.174,1.326,1.326,0,0,0,.262-.594.516.516,0,0,0,0-.313.417.417,0,0,0-.164-.179,2.168,2.168,0,0,0-.386-.192l-.027-.01-.011,0L1.865.992C1.736.94,1.6.885,1.475.824h0A.35.35,0,0,0,1.315.785Z" transform="translate(132.518 6311.954)"/>
    <path id="Shape-35" data-name="Shape" d="M1.74,3.281a1.345,1.345,0,0,1-.347-.047,2.742,2.742,0,0,1-1.3-.957A.369.369,0,0,1,0,2.036V1.972A2.4,2.4,0,0,1,.3.577,1.308,1.308,0,0,1,1.233.013,1.42,1.42,0,0,1,1.429,0a1.181,1.181,0,0,1,.893.379c.075.082.157.16.246.246l.049.046.058.055a2.926,2.926,0,0,1,.386.438,1.146,1.146,0,0,1,.218.628,1.2,1.2,0,0,1-.261.729,1.933,1.933,0,0,1-.773.656A1.278,1.278,0,0,1,1.74,3.281ZM1.433.744a.674.674,0,0,0-.1.007.588.588,0,0,0-.4.222A1.569,1.569,0,0,0,.742,1.9a1.95,1.95,0,0,0,.841.619.594.594,0,0,0,.155.021.533.533,0,0,0,.215-.046,1.2,1.2,0,0,0,.465-.413A.492.492,0,0,0,2.534,1.8a.415.415,0,0,0-.088-.22,2.082,2.082,0,0,0-.287-.321l-.041-.038c-.015-.013-.032-.03-.047-.046l-.017-.016C1.968,1.082,1.86.979,1.77.88h0A.436.436,0,0,0,1.433.744Z" transform="translate(137.444 6330)"/>
    <path id="Shape-36" data-name="Shape" d="M1.677,3.281a1.337,1.337,0,0,1-.816-.274A2.672,2.672,0,0,1,.018,1.649.355.355,0,0,1,.03,1.394l.013-.03.011-.027,0-.009A2.325,2.325,0,0,1,.9.2h0A1.287,1.287,0,0,1,1.613,0a1.546,1.546,0,0,1,.381.048,1.248,1.248,0,0,1,.877.744c.034.1.077.191.126.3L3,1.11l.05.11.009.021a2.889,2.889,0,0,1,.188.541A1.074,1.074,0,0,1,3.2,2.43a1.175,1.175,0,0,1-.533.557,2.03,2.03,0,0,1-.986.294ZM1.613.729A.518.518,0,0,0,1.333.8a1.523,1.523,0,0,0-.548.755,1.887,1.887,0,0,0,.543.877.562.562,0,0,0,.349.123h.006a1.26,1.26,0,0,0,.6-.194.48.48,0,0,0,.217-.2.4.4,0,0,0,.006-.232,1.919,1.919,0,0,0-.143-.4l-.02-.046-.005-.021L2.319,1.42,2.311,1.4c-.049-.11-.111-.246-.155-.369h0A.48.48,0,0,0,1.8.756.734.734,0,0,0,1.613.729Z" transform="translate(135.391 6350.506)"/>
    <path id="Shape-37" data-name="Shape" d="M1.709,3.281a2.118,2.118,0,0,1-.7-.11A1.39,1.39,0,0,1,.29,2.619,2.4,2.4,0,0,1,.016,1.054.345.345,0,0,1,.136.823l0,0L.185.779A2.709,2.709,0,0,1,1.525.025,1.415,1.415,0,0,1,1.792,0,1.691,1.691,0,0,1,2.7.278a1.169,1.169,0,0,1,.574,1.008c-.007.1,0,.208,0,.328V1.65c0,.041,0,.08,0,.123a2.511,2.511,0,0,1-.041.571,1.072,1.072,0,0,1-.324.584,1.413,1.413,0,0,1-.779.324,3.24,3.24,0,0,1-.424.028ZM1.791.73a.451.451,0,0,0-.082.007,1.793,1.793,0,0,0-.876.505,1.713,1.713,0,0,0,.174,1.011.6.6,0,0,0,.31.241,1.2,1.2,0,0,0,.393.057,2.394,2.394,0,0,0,.3-.021.589.589,0,0,0,.307-.111.386.386,0,0,0,.1-.213,1.852,1.852,0,0,0,.024-.422c0-.017,0-.035,0-.054V1.667c0-.118-.009-.273,0-.418A.456.456,0,0,0,2.2.861.777.777,0,0,0,1.791.73Z" transform="translate(124.321 6366.912)"/>
    <path id="Shape-38" data-name="Shape" d="M2.036,3.281H1.959A2.392,2.392,0,0,1,.578,2.974h0a1.309,1.309,0,0,1-.565-.928A1.226,1.226,0,0,1,.377.955C.456.885.53.808.615.718l.01-.01L.689.641.726.6A2.907,2.907,0,0,1,1.163.216,1.142,1.142,0,0,1,1.792,0H1.8A1.2,1.2,0,0,1,2.52.261a1.937,1.937,0,0,1,.656.772,1.3,1.3,0,0,1,.058.854,2.77,2.77,0,0,1-.957,1.305A.369.369,0,0,1,2.036,3.281ZM1.8.745a.423.423,0,0,0-.221.087,2.143,2.143,0,0,0-.322.287l-.027.03-.055.058-.014.015c-.088.092-.188.2-.287.287a.479.479,0,0,0-.127.434.579.579,0,0,0,.222.4,1.559,1.559,0,0,0,.921.194,1.944,1.944,0,0,0,.619-.84.546.546,0,0,0-.023-.369A1.225,1.225,0,0,0,2.076.861.477.477,0,0,0,1.8.745Z" transform="translate(117.346 6286.525)"/>
    <path id="Shape-39" data-name="Shape" d="M1.6,3.281a.345.345,0,0,1-.123-.023l-.035-.013-.024-.009A2.33,2.33,0,0,1,.239,2.461h0A1.359,1.359,0,0,1,.034,1.386a1.237,1.237,0,0,1,.7-.91c.1-.041.189-.089.3-.144L1.04.325,1.133.278,1.17.26A2.775,2.775,0,0,1,1.7.043,1.276,1.276,0,0,1,2.021,0a.984.984,0,0,1,.328.055,1.172,1.172,0,0,1,.583.5,2.014,2.014,0,0,1,.349.962,1.339,1.339,0,0,1-.233.831,2.681,2.681,0,0,1-1.318.908A.358.358,0,0,1,1.6,3.281ZM2.019.754a.558.558,0,0,0-.139.02,2.143,2.143,0,0,0-.393.164l-.006,0-.005,0L1.385.991c-.116.06-.251.128-.379.183a.479.479,0,0,0-.261.369A.606.606,0,0,0,.815,2a1.53,1.53,0,0,0,.782.5,1.9,1.9,0,0,0,.851-.585.555.555,0,0,0,.1-.358A1.246,1.246,0,0,0,2.325.972.463.463,0,0,0,2.112.767.287.287,0,0,0,2.019.754Z" transform="translate(134.161 6296.369)"/>
    <path id="Shape-40" data-name="Shape" d="M1.721,3.281a1.33,1.33,0,0,1-.554-.123A2.722,2.722,0,0,1,.052,2a.358.358,0,0,1-.046-.251.187.187,0,0,1,0-.03c0-.01,0-.021.005-.031A2.358,2.358,0,0,1,.559.39h0A1.309,1.309,0,0,1,1.52,0h.048A1.225,1.225,0,0,1,2.574.542c.052.079.11.159.171.243l.029.041c.03.038.059.078.086.116a2.837,2.837,0,0,1,.3.492,1.1,1.1,0,0,1,.1.647,1.176,1.176,0,0,1-.382.665,1.947,1.947,0,0,1-.872.5,1.312,1.312,0,0,1-.294.034ZM1.521.736a.572.572,0,0,0-.41.147,1.535,1.535,0,0,0-.348.861,1.912,1.912,0,0,0,.714.746.563.563,0,0,0,.241.056.574.574,0,0,0,.128-.015,1.219,1.219,0,0,0,.529-.322.48.48,0,0,0,.16-.246.418.418,0,0,0-.048-.23,2.284,2.284,0,0,0-.227-.36l-.046-.065-.023-.031-.039-.052c-.07-.095-.142-.193-.205-.292a.475.475,0,0,0-.4-.2Z" transform="translate(141.954 6365.681)"/>
    <path id="Shape-41" data-name="Shape" d="M1.668,3.281a1.615,1.615,0,0,1-.18-.01,1.372,1.372,0,0,1-.8-.369,2.606,2.606,0,0,1-.68-1.444.342.342,0,0,1,.045-.249l.015-.024.018-.03a2.388,2.388,0,0,1,1-1.029h0A1.312,1.312,0,0,1,1.663,0a1.606,1.606,0,0,1,.559.1,1.239,1.239,0,0,1,.795.842c.025.1.056.205.095.328l.012.041c.01.032.02.065.031.1a2.637,2.637,0,0,1,.123.557,1.041,1.041,0,0,1-.136.636,1.223,1.223,0,0,1-.615.489,2.31,2.31,0,0,1-.86.187Zm0-2.553a.494.494,0,0,0-.212.041A1.568,1.568,0,0,0,.8,1.453a1.859,1.859,0,0,0,.437.935.591.591,0,0,0,.348.161.8.8,0,0,0,.086,0,1.5,1.5,0,0,0,.55-.128.492.492,0,0,0,.246-.175.379.379,0,0,0,.038-.23,2,2,0,0,0-.094-.41L2.4,1.585l0-.009v0c-.007-.02-.015-.047-.023-.074-.041-.132-.086-.272-.116-.4A.479.479,0,0,0,1.933.778a.774.774,0,0,0-.268-.05Z" transform="translate(139.903 6379.215)"/>
    <path id="Shape-42" data-name="Shape" d="M1.761,3.281a2.2,2.2,0,0,1-.917-.172A1.344,1.344,0,0,1,.188,2.5,2.412,2.412,0,0,1,.071.919.358.358,0,0,1,.213.7L.222.69A.463.463,0,0,0,.263.658l.007,0A2.753,2.753,0,0,1,1.663.009h0A1.317,1.317,0,0,1,1.823,0,1.607,1.607,0,0,1,2.8.351,1.151,1.151,0,0,1,3.267,1.4c-.017.109-.025.219-.033.341V1.76c0,.041-.006.082-.01.126a2.5,2.5,0,0,1-.1.568,1.088,1.088,0,0,1-.377.557,1.426,1.426,0,0,1-.8.265C1.884,3.281,1.821,3.281,1.761,3.281ZM1.819.731l-.041,0a1.83,1.83,0,0,0-.919.438A1.7,1.7,0,0,0,.933,2.192a.574.574,0,0,0,.282.265,1.358,1.358,0,0,0,.547.093c.047,0,.093,0,.138,0a.566.566,0,0,0,.313-.088.384.384,0,0,0,.124-.2,1.964,1.964,0,0,0,.068-.42c0-.033,0-.069.008-.107V1.719c.007-.108.018-.268.041-.415h0A.451.451,0,0,0,2.251.9.733.733,0,0,0,1.819.731Z" transform="translate(119.398 6388.649)"/>
    <path id="Shape-43" data-name="Shape" d="M1.9,3.281H1.866l-.033,0L1.8,3.272A2.353,2.353,0,0,1,.463,2.823h0A1.312,1.312,0,0,1,0,1.846,1.225,1.225,0,0,1,.473.8C.561.738.649.663.742.584.781.55.814.52.853.489A2.9,2.9,0,0,1,1.324.153,1.15,1.15,0,0,1,1.876,0a.647.647,0,0,1,.089,0,1.176,1.176,0,0,1,.691.334,1.9,1.9,0,0,1,.568.834,1.282,1.282,0,0,1-.032.851A2.748,2.748,0,0,1,2.114,3.215.369.369,0,0,1,1.9,3.281ZM1.878.742a.451.451,0,0,0-.205.063,2.36,2.36,0,0,0-.345.252l-.059.05-.016.013-.016.013-.011.009-.014.011c-.094.082-.2.171-.3.246h0a.475.475,0,0,0-.168.414.587.587,0,0,0,.177.421,1.545,1.545,0,0,0,.888.287,1.918,1.918,0,0,0,.7-.767.545.545,0,0,0,.016-.369,1.218,1.218,0,0,0-.36-.5A.464.464,0,0,0,1.9.742Z" transform="translate(129.24 6275.451)"/>
    <path id="Shape-44" data-name="Shape" d="M1.669,3.281a1.786,1.786,0,0,1-.363-.036A1.4,1.4,0,0,1,.526,2.8,2.534,2.534,0,0,1,0,1.3a.337.337,0,0,1,.073-.243c.01-.011.019-.023.028-.035L.114,1A2.483,2.483,0,0,1,1.259.076,1.331,1.331,0,0,1,1.712,0a1.654,1.654,0,0,1,.708.164,1.22,1.22,0,0,1,.715.913c.013.105.033.211.059.338.005.03.011.06.018.092l.01.049a2.512,2.512,0,0,1,.06.568,1.038,1.038,0,0,1-.208.62,1.3,1.3,0,0,1-.685.427,2.638,2.638,0,0,1-.719.11ZM1.712.728a.463.463,0,0,0-.155.024,1.637,1.637,0,0,0-.748.615,1.8,1.8,0,0,0,.339.973.6.6,0,0,0,.337.195.892.892,0,0,0,.184.018,1.779,1.779,0,0,0,.479-.077L.81,1.369,2.148,2.476a.518.518,0,0,0,.271-.152A.4.4,0,0,0,2.483,2.1a1.976,1.976,0,0,0-.048-.419l-.012-.059-.009-.041,0-.014V1.559c-.025-.127-.053-.271-.07-.4a.469.469,0,0,0-.3-.348A.777.777,0,0,0,1.712.728Z" transform="translate(132.521 6399.312)"/>
    <path id="Shape-45" data-name="Shape" d="M1.815,3.281A2.31,2.31,0,0,1,.756,3.063a1.316,1.316,0,0,1-.615-.635A2.445,2.445,0,0,1,.116.838.372.372,0,0,1,.27.626L.3.605.327.588A2.753,2.753,0,0,1,1.75,0h0a.63.63,0,0,1,.094,0A1.571,1.571,0,0,1,2.857.4a1.14,1.14,0,0,1,.4,1.07c-.021.1-.034.208-.051.328v.012c0,.029-.007.059-.011.089s0,.036-.007.054a2.587,2.587,0,0,1-.131.561,1.107,1.107,0,0,1-.407.54,1.421,1.421,0,0,1-.811.227ZM1.845.733H1.819a1.826,1.826,0,0,0-.936.393A1.732,1.732,0,0,0,.9,2.151a.562.562,0,0,0,.265.278,1.45,1.45,0,0,0,.646.12h.025a.571.571,0,0,0,.315-.072.417.417,0,0,0,.136-.2,1.969,1.969,0,0,0,.09-.418V1.853c0-.034.009-.07.015-.106.017-.137.037-.283.064-.416A.437.437,0,0,0,2.277.917.7.7,0,0,0,1.845.733Z" transform="translate(112.014 6407.105)"/>
    <path id="Shape-46" data-name="Shape" d="M1.968,3.281H1.887A2.369,2.369,0,0,1,.518,2.9a1.312,1.312,0,0,1-.513-.956A1.225,1.225,0,0,1,.425.88C.507.813.582.742.671.658L.684.646.743.589.789.545A2.849,2.849,0,0,1,1.243.183,1.136,1.136,0,0,1,1.843,0h.036A1.189,1.189,0,0,1,2.59.3a1.935,1.935,0,0,1,.611.8,1.282,1.282,0,0,1,.014.853A2.752,2.752,0,0,1,2.2,3.2.372.372,0,0,1,1.968,3.281ZM1.84.744a.424.424,0,0,0-.212.075,2.2,2.2,0,0,0-.334.271L1.278,1.1l-.044.041-.027.025-.019.019C1.1,1.275,1,1.372.9,1.454h0a.477.477,0,0,0-.148.424.589.589,0,0,0,.2.41,1.559,1.559,0,0,0,.906.241,1.928,1.928,0,0,0,.659-.8.543.543,0,0,0,0-.369A1.209,1.209,0,0,0,2.122.869.473.473,0,0,0,1.855.742Z" transform="translate(118.576 6255.354)"/>
    <path id="Shape-47" data-name="Shape" d="M1.736,3.281a2.2,2.2,0,0,1-.831-.145,1.36,1.36,0,0,1-.682-.585A2.42,2.42,0,0,1,.044.972.355.355,0,0,1,.178.749L.2.728.228.706l0,0A2.75,2.75,0,0,1,1.608.015,1.383,1.383,0,0,1,1.809,0a1.641,1.641,0,0,1,.953.322,1.157,1.157,0,0,1,.51,1.031c-.011.1-.014.194-.018.306V1.7c0,.03,0,.059,0,.09V1.84a2.476,2.476,0,0,1-.073.568,1.085,1.085,0,0,1-.359.569,1.411,1.411,0,0,1-.794.29A2.823,2.823,0,0,1,1.736,3.281ZM1.809.731a.381.381,0,0,0-.06,0,1.819,1.819,0,0,0-.9.463A1.7,1.7,0,0,0,.961,2.218a.587.587,0,0,0,.294.256,1.29,1.29,0,0,0,.477.076c.068,0,.139,0,.21-.009a.571.571,0,0,0,.31-.1.381.381,0,0,0,.117-.208,1.969,1.969,0,0,0,.051-.421c0-.031,0-.063,0-.093V1.7c0-.13.009-.281.025-.418a.451.451,0,0,0-.217-.4A.749.749,0,0,0,1.809.731Z" transform="translate(132.933 6409.975)"/>
    <path id="Shape-48" data-name="Shape" d="M1.476,3.28h0a1.2,1.2,0,0,1-.718-.262A1.928,1.928,0,0,1,.1,2.245a1.281,1.281,0,0,1-.056-.852A2.757,2.757,0,0,1,1,.088.369.369,0,0,1,1.245,0H1.4A2.251,2.251,0,0,1,2.7.306a1.308,1.308,0,0,1,.565.928A1.23,1.23,0,0,1,2.9,2.323c-.079.073-.155.152-.246.246L2.631,2.6c-.024.026-.049.052-.076.079a2.88,2.88,0,0,1-.438.387,1.136,1.136,0,0,1-.629.218ZM1.386.744h0a1.937,1.937,0,0,0-.619.84.539.539,0,0,0,.023.369,1.22,1.22,0,0,0,.413.466.492.492,0,0,0,.275.115.421.421,0,0,0,.22-.088,2.01,2.01,0,0,0,.321-.287l.048-.05,0,0L2.1,2.072l.027-.028c.082-.088.179-.187.274-.274a.472.472,0,0,0,.127-.432.589.589,0,0,0-.223-.4A1.564,1.564,0,0,0,1.386.743Z" transform="translate(95.608 6365.683)"/>
    <path id="Shape-49" data-name="Shape" d="M1.476,3.28h0a1.213,1.213,0,0,1-.719-.261A1.932,1.932,0,0,1,.1,2.246a1.278,1.278,0,0,1-.055-.853A2.75,2.75,0,0,1,1,.088.369.369,0,0,1,1.246,0H1.4A2.256,2.256,0,0,1,2.7.306a1.312,1.312,0,0,1,.563.928A1.223,1.223,0,0,1,2.9,2.323c-.071.064-.14.136-.212.211l-.035.036c-.032.035-.069.073-.1.107a2.909,2.909,0,0,1-.437.386,1.146,1.146,0,0,1-.627.217ZM1.385.744h0L1.2,2.418a.475.475,0,0,0,.274.114.421.421,0,0,0,.22-.088,2.094,2.094,0,0,0,.32-.287L2.1,2.071l.023-.022.025-.026,0,0c.088-.091.168-.173.25-.246h0a.475.475,0,0,0,.125-.432A.574.574,0,0,0,2.3.941,1.564,1.564,0,0,0,1.384.747a1.935,1.935,0,0,0-.617.837.541.541,0,0,0,.022.369,1.23,1.23,0,0,0,.414.466Z" transform="translate(102.581 6371.834)"/>
    <path id="Shape-50" data-name="Shape" d="M1.476,3.279h0a1.209,1.209,0,0,1-.718-.261A1.943,1.943,0,0,1,.1,2.246a1.288,1.288,0,0,1-.056-.854A2.761,2.761,0,0,1,1,.087.372.372,0,0,1,1.245,0h.076A2.362,2.362,0,0,1,2.7.3h0a1.312,1.312,0,0,1,.565.928A1.225,1.225,0,0,1,2.9,2.322c-.074.067-.142.139-.222.223l-.025.026-.062.064-.041.041a2.887,2.887,0,0,1-.437.386,1.136,1.136,0,0,1-.627.217ZM1.3,1.521h0l-.1.9a.476.476,0,0,0,.274.114.422.422,0,0,0,.22-.087,2.13,2.13,0,0,0,.321-.287l.045-.047L2.1,2.07l.029-.03c.079-.082.178-.186.273-.272a.477.477,0,0,0,.126-.432.58.58,0,0,0-.222-.4A1.563,1.563,0,0,0,1.385.741a1.943,1.943,0,0,0-.618.842.539.539,0,0,0,.023.369,1.223,1.223,0,0,0,.413.466Z" transform="translate(91.097 6383.319)"/>
    <path id="Shape-51" data-name="Shape" d="M1.471,3.28A1.193,1.193,0,0,1,.76,3.019,1.928,1.928,0,0,1,.1,2.247a1.281,1.281,0,0,1-.057-.853A2.758,2.758,0,0,1,1,.088.369.369,0,0,1,1.245,0H1.4A2.251,2.251,0,0,1,2.7.306a1.312,1.312,0,0,1,.564.929A1.226,1.226,0,0,1,2.9,2.324c-.08.073-.153.148-.246.246l-.013.014c-.028.03-.057.061-.088.092a2.939,2.939,0,0,1-.438.388,1.121,1.121,0,0,1-.628.216ZM1.363.949h0L1.2,2.421a.483.483,0,0,0,.268.113h0a.4.4,0,0,0,.22-.087,2.3,2.3,0,0,0,.321-.287l.021-.023.016-.016L2.1,2.074c.1-.1.2-.21.3-.3a.479.479,0,0,0,.126-.432.588.588,0,0,0-.222-.4A1.571,1.571,0,0,0,1.384.745a1.935,1.935,0,0,0-.618.84.54.54,0,0,0,.023.369,1.221,1.221,0,0,0,.413.465Z" transform="translate(82.073 6393.162)"/>
    <path id="Shape-52" data-name="Shape" d="M1.471,3.28a1.189,1.189,0,0,1-.71-.261A1.922,1.922,0,0,1,.1,2.247a1.284,1.284,0,0,1-.058-.853A2.734,2.734,0,0,1,1,.088.369.369,0,0,1,1.245,0H1.4A2.263,2.263,0,0,1,2.7.3h0a1.312,1.312,0,0,1,.565.929A1.233,1.233,0,0,1,2.9,2.324c-.079.073-.155.152-.246.246l-.1.106a2.949,2.949,0,0,1-.438.386,1.122,1.122,0,0,1-.628.218ZM1.385.744a1.937,1.937,0,0,0-.618.839.55.55,0,0,0,.022.371,1.223,1.223,0,0,0,.414.464.479.479,0,0,0,.269.115h.005a.4.4,0,0,0,.22-.087,2.245,2.245,0,0,0,.32-.287c.024-.024.05-.05.079-.082l0,0c.087-.091.2-.205.3-.3h0a.484.484,0,0,0,.127-.432A.593.593,0,0,0,2.3.939a1.578,1.578,0,0,0-.92-.195Z" transform="translate(100.53 6356.25)"/>
    <path id="Shape-53" data-name="Shape" d="M1.307,3.281a.971.971,0,0,1-.241-.031,1.162,1.162,0,0,1-.628-.442,1.948,1.948,0,0,1-.426-.917,1.3,1.3,0,0,1,.164-.84A2.713,2.713,0,0,1,1.414.037.351.351,0,0,1,1.571,0a.372.372,0,0,1,.1.013l.06.016.01,0A2.315,2.315,0,0,1,2.971.688a1.334,1.334,0,0,1,.3,1.045,1.23,1.23,0,0,1-.622.959c-.094.049-.186.107-.3.176l-.041.025-.082.051a2.753,2.753,0,0,1-.513.26A1.2,1.2,0,0,1,1.307,3.281Zm.3-2.51a1.9,1.9,0,0,0-.8.653.551.551,0,0,0-.073.364,1.23,1.23,0,0,0,.274.556.465.465,0,0,0,.231.183.262.262,0,0,0,.064.007A.492.492,0,0,0,1.474,2.5a2.037,2.037,0,0,0,.378-.2l.1-.061c.142-.09.257-.158.363-.215a.481.481,0,0,0,.23-.386A.593.593,0,0,0,2.437,1.2,1.534,1.534,0,0,0,1.611.771Z" transform="translate(91.917 6355.018)"/>
    <path id="Shape-54" data-name="Shape" d="M1.308,3.281a.971.971,0,0,1-.241-.031,1.166,1.166,0,0,1-.628-.44,1.981,1.981,0,0,1-.426-.919,1.319,1.319,0,0,1,.164-.84A2.718,2.718,0,0,1,1.415.036.365.365,0,0,1,1.573,0a.357.357,0,0,1,.093.012h.005l.055.015h0A2.327,2.327,0,0,1,2.971.683h0a1.333,1.333,0,0,1,.3,1.044,1.227,1.227,0,0,1-.622.96c-.1.05-.187.107-.3.176l-.123.076a2.776,2.776,0,0,1-.514.26,1.2,1.2,0,0,1-.406.082Zm.3-2.51a1.9,1.9,0,0,0-.8.653.563.563,0,0,0-.073.364,1.245,1.245,0,0,0,.275.557.46.46,0,0,0,.23.182.264.264,0,0,0,.065.008A.492.492,0,0,0,1.474,2.5a2.036,2.036,0,0,0,.378-.2l.027-.016.074-.045.008-.005c.11-.068.235-.146.354-.208h0a.478.478,0,0,0,.23-.385A.592.592,0,0,0,2.435,1.2,1.534,1.534,0,0,0,1.611.771Z" transform="translate(98.479 6346.404)"/>
    <path id="Shape-55" data-name="Shape" d="M2,3.281a1.008,1.008,0,0,1-.339-.059c-.1-.033-.2-.062-.332-.1l-.064-.018-.077-.021a2.741,2.741,0,0,1-.544-.2A1.152,1.152,0,0,1,.146,2.42,1.374,1.374,0,0,1,.01,1.6,2.2,2.2,0,0,1,.345.574a1.266,1.266,0,0,1,.7-.513A1.586,1.586,0,0,1,1.495,0,3.2,3.2,0,0,1,2.628.25a.376.376,0,0,1,.2.178l.031.058A2.728,2.728,0,0,1,3.28,1.949v0a1.45,1.45,0,0,1-.514,1.022A1.2,1.2,0,0,1,2,3.281ZM1.495.8a.908.908,0,0,0-.258.034.544.544,0,0,0-.3.22,1.4,1.4,0,0,0-.194.635.555.555,0,0,0,.037.318.423.423,0,0,0,.183.159,2.047,2.047,0,0,0,.4.142l.038.01.075.02.061.016.012,0c.111.03.225.061.333.1a.337.337,0,0,0,.114.02.492.492,0,0,0,.317-.135.638.638,0,0,0,.234-.422A1.8,1.8,0,0,0,2.259.959,2.4,2.4,0,0,0,1.495.8Z" transform="translate(79.203 6347.225)"/>
    <path id="Shape-56" data-name="Shape" d="M1.723,3.281a1.482,1.482,0,0,1-.174-.01,1.235,1.235,0,0,1-.961-.623c-.05-.094-.107-.185-.172-.291l0,0L.4,2.326c-.02-.032-.041-.064-.061-.1a2.775,2.775,0,0,1-.26-.512,1.081,1.081,0,0,1-.046-.649A1.168,1.168,0,0,1,.472.439,1.96,1.96,0,0,1,1.389.013,1.348,1.348,0,0,1,1.576,0a1.324,1.324,0,0,1,.656.176A2.712,2.712,0,0,1,3.245,1.414a.361.361,0,0,1,.024.253l-.011.041-.005.019A2.315,2.315,0,0,1,2.6,2.971h0a1.3,1.3,0,0,1-.873.31ZM1.574.732a.6.6,0,0,0-.082.005,1.23,1.23,0,0,0-.558.275.463.463,0,0,0-.182.23.394.394,0,0,0,.027.231,2.087,2.087,0,0,0,.2.378c.02.032.041.066.062.1.074.118.151.243.215.363a.485.485,0,0,0,.389.23.783.783,0,0,0,.082,0,.562.562,0,0,0,.363-.115,1.526,1.526,0,0,0,.425-.824,1.912,1.912,0,0,0-.652-.8A.565.565,0,0,0,1.574.732Z" transform="translate(80.432 6325.898)"/>
    <path id="Shape-57" data-name="Shape" d="M1.411,3.281H1.33A1.449,1.449,0,0,1,.307,2.766,1.133,1.133,0,0,1,.061,1.659c.037-.105.066-.215.1-.332l.023-.085.014-.058A2.666,2.666,0,0,1,.394.64,1.148,1.148,0,0,1,.863.147,1.286,1.286,0,0,1,1.487,0a1.907,1.907,0,0,1,.2.01A2.209,2.209,0,0,1,2.709.346a1.267,1.267,0,0,1,.513.7,2.489,2.489,0,0,1-.189,1.582.376.376,0,0,1-.178.2L2.8,2.856a2.78,2.78,0,0,1-1.385.425ZM1.485.734a.44.44,0,0,0-.21.041.418.418,0,0,0-.159.182,2.086,2.086,0,0,0-.144.4l-.015.053-.009.032-.007.03c-.032.12-.071.27-.119.406a.443.443,0,0,0,.115.431.656.656,0,0,0,.423.233h.047a1.848,1.848,0,0,0,.915-.289,1.764,1.764,0,0,0,.123-1.021A.54.54,0,0,0,2.226.932,1.4,1.4,0,0,0,1.591.738a1,1,0,0,0-.106,0Z" transform="translate(85.763 6314.004)"/>
    <path id="Shape-58" data-name="Shape" d="M1.708,3.281a.363.363,0,0,1-.095-.013l-.024-.007-.036-.01A2.311,2.311,0,0,1,.308,2.6a1.339,1.339,0,0,1-.3-1.047A1.23,1.23,0,0,1,.631.589c.1-.05.187-.107.3-.176L1.052.336a2.874,2.874,0,0,1,.514-.26A1.209,1.209,0,0,1,1.976,0a.963.963,0,0,1,.238.03,1.161,1.161,0,0,1,.628.442,1.969,1.969,0,0,1,.426.917,1.324,1.324,0,0,1-.164.842A2.732,2.732,0,0,1,1.865,3.245.353.353,0,0,1,1.708,3.281ZM1.973.747a.484.484,0,0,0-.164.034,1.993,1.993,0,0,0-.378.2l-.1.063-.008.005c-.1.064-.233.145-.355.208a.479.479,0,0,0-.23.386.594.594,0,0,0,.108.446,1.539,1.539,0,0,0,.824.427,1.919,1.919,0,0,0,.8-.652.564.564,0,0,0,.072-.366A1.223,1.223,0,0,0,2.268.936.468.468,0,0,0,2.037.754.253.253,0,0,0,1.973.747Z" transform="translate(103.401 6311.954)"/>
    <path id="Shape-59" data-name="Shape" d="M1.971,3.281a1.038,1.038,0,0,1-.449-.1c-.1-.046-.2-.085-.322-.131l-.063-.025-.071-.03A2.767,2.767,0,0,1,.54,2.74a1.179,1.179,0,0,1-.446-.513,1.343,1.343,0,0,1-.057-.818A2.109,2.109,0,0,1,.469.445,1.247,1.247,0,0,1,1.216.021,1.5,1.5,0,0,1,1.469,0,2.95,2.95,0,0,1,2.775.383a.385.385,0,0,1,.178.2c.009.019.017.041.025.06a2.673,2.673,0,0,1,.283,1.479,1.392,1.392,0,0,1-.61.943A1.23,1.23,0,0,1,1.971,3.281ZM1.469.788A.8.8,0,0,0,1.333.8.527.527,0,0,0,1.008.98a1.34,1.34,0,0,0-.253.6.542.542,0,0,0,.007.314.431.431,0,0,0,.167.176,2.092,2.092,0,0,0,.389.185l.094.037.016.006.024.009h0c.116.045.246.1.367.152a.358.358,0,0,0,.153.034.516.516,0,0,0,.287-.1.617.617,0,0,0,.273-.384,1.758,1.758,0,0,0-.2-.974A2.156,2.156,0,0,0,1.469.788Z" transform="translate(89.046 6341.483)"/>
    <path id="Shape-60" data-name="Shape" d="M1.634,3.281a1.6,1.6,0,0,1-.51-.084A1.241,1.241,0,0,1,.3,2.383c-.026-.1-.058-.194-.1-.3L.2,2.057C.182,2.013.166,1.969.15,1.92a2.707,2.707,0,0,1-.141-.555A1.05,1.05,0,0,1,.117.725,1.21,1.21,0,0,1,.71.216,2.215,2.215,0,0,1,1.608,0a1.021,1.021,0,0,1,.127.005,1.369,1.369,0,0,1,.808.342,2.633,2.633,0,0,1,.729,1.422.346.346,0,0,1-.036.25l-.018.034L3.2,2.074a2.365,2.365,0,0,1-.958,1.061h0a1.294,1.294,0,0,1-.612.146ZM1.611.728a1.44,1.44,0,0,0-.569.146A.489.489,0,0,0,.8,1.057a.38.38,0,0,0-.027.23,1.986,1.986,0,0,0,.107.41L.9,1.745l.022.063.009.025c.039.11.087.246.121.374a.484.484,0,0,0,.334.307.775.775,0,0,0,.246.041.506.506,0,0,0,.23-.048A1.565,1.565,0,0,0,2.486,1.8,1.857,1.857,0,0,0,2.019.88a.588.588,0,0,0-.35-.15Z" transform="translate(82.074 6334.51)"/>
    <path id="Shape-61" data-name="Shape" d="M1.537,3.281a2,2,0,0,1-.711-.128,1.312,1.312,0,0,1-.747-.8A1.193,1.193,0,0,1,.231,1.221C.3,1.135.357,1.044.43.934.456.893.483.852.512.811A2.84,2.84,0,0,1,.874.352,1.16,1.16,0,0,1,1.462.021,1.047,1.047,0,0,1,1.673,0a1.361,1.361,0,0,1,.572.138,1.954,1.954,0,0,1,.808.628,1.253,1.253,0,0,1,.224.822,2.711,2.711,0,0,1-.705,1.455.377.377,0,0,1-.226.133l-.032.006-.032.006a3.926,3.926,0,0,1-.747.093ZM1.674.74A.29.29,0,0,0,1.62.746a.434.434,0,0,0-.205.128,2.074,2.074,0,0,0-.265.342c-.021.032-.041.064-.066.1l-.02.03,0,.006c-.067.1-.143.216-.22.317A.463.463,0,0,0,.8,2.113a.591.591,0,0,0,.3.347,1.194,1.194,0,0,0,.43.082,2.947,2.947,0,0,0,.533-.065,1.906,1.906,0,0,0,.456-.938.537.537,0,0,0-.1-.358A1.242,1.242,0,0,0,1.917.807.589.589,0,0,0,1.674.74Z" transform="translate(92.737 6323.026)"/>
    <path id="Shape-62" data-name="Shape" d="M1.194,3.281H1.162a.346.346,0,0,1-.238-.1L.885,3.142.878,3.135A2.625,2.625,0,0,1,.045,1.878v0A1.592,1.592,0,0,1,.224.7a1.2,1.2,0,0,1,.97-.641A2.958,2.958,0,0,0,1.535.034c.02,0,.041,0,.062-.006L1.679.02A3.315,3.315,0,0,1,2.019,0a1.736,1.736,0,0,1,.229.014,1.063,1.063,0,0,1,.6.273,1.358,1.358,0,0,1,.372.742,2.4,2.4,0,0,1-.011,1.11,1.4,1.4,0,0,1-.506.749,2.444,2.444,0,0,1-1.511.393ZM2.02.818c-.092,0-.2.009-.279.017H1.714l-.09.009L1.566.849c-.118.012-.24.024-.359.027a.466.466,0,0,0-.369.268.7.7,0,0,0-.094.5,1.72,1.72,0,0,0,.555.82,1.733,1.733,0,0,0,1-.25.594.594,0,0,0,.221-.324,1.47,1.47,0,0,0-.007-.682.542.542,0,0,0-.13-.292A.382.382,0,0,0,2.16.827,1.02,1.02,0,0,0,2.02.818Z" transform="translate(100.529 6319.336)"/>
    <path id="Shape-63" data-name="Shape" d="M1.823,3.281H1.8A2.282,2.282,0,0,1,.728,3.045a1.3,1.3,0,0,1-.6-.646A2.441,2.441,0,0,1,.134.81.366.366,0,0,1,.291.6L.317.583.347.563A2.743,2.743,0,0,1,1.779,0c.025,0,.052,0,.077,0A1.547,1.547,0,0,1,2.874.414a1.141,1.141,0,0,1,.38,1.078c-.021.092-.037.189-.053.292l-.007.046-.006.041c0,.034-.01.069-.016.1a2.568,2.568,0,0,1-.137.557,1.123,1.123,0,0,1-.418.533A1.387,1.387,0,0,1,1.823,3.281ZM1.855.733H1.835A1.814,1.814,0,0,0,.9,1.11,1.723,1.723,0,0,0,.888,2.136a.542.542,0,0,0,.259.281,1.435,1.435,0,0,0,.665.132h.01a.559.559,0,0,0,.306-.067.4.4,0,0,0,.139-.2,1.909,1.909,0,0,0,.1-.415c0-.033.011-.072.018-.116l0-.028c.018-.123.039-.261.067-.385A.447.447,0,0,0,2.29.923a.691.691,0,0,0-.435-.19Z" transform="translate(96.839 6334.51)"/>
    <path id="Shape-64" data-name="Shape" d="M1.825,3.281H1.8A2.314,2.314,0,0,1,.727,3.046a1.312,1.312,0,0,1-.6-.646A2.432,2.432,0,0,1,.136.812.369.369,0,0,1,.292.6L.312.587.348.563l0,0A2.763,2.763,0,0,1,1.779,0C1.8,0,1.83,0,1.853,0A1.544,1.544,0,0,1,2.874.415a1.137,1.137,0,0,1,.38,1.076c-.022.094-.037.189-.054.3l-.006.041,0,.034c0,.035-.01.071-.016.109a2.555,2.555,0,0,1-.138.558,1.1,1.1,0,0,1-.418.533,1.384,1.384,0,0,1-.792.215ZM1.855.732h-.02A1.815,1.815,0,0,0,.9,1.111,1.716,1.716,0,0,0,.887,2.136a.551.551,0,0,0,.261.283,1.461,1.461,0,0,0,.665.13h.011a.539.539,0,0,0,.305-.068.413.413,0,0,0,.14-.194,2.01,2.01,0,0,0,.1-.416c0-.033.01-.066.016-.1l0-.014,0-.02V1.729c.018-.123.039-.26.067-.386A.436.436,0,0,0,2.289.926.692.692,0,0,0,1.855.732Z" transform="translate(103.401 6332.05)"/>
    <path id="Shape-65" data-name="Shape" d="M1.2,3.281A1.022,1.022,0,0,1,.607,3.11a1.248,1.248,0,0,1-.459-.65A2.2,2.2,0,0,1,.022,1.4,1.39,1.39,0,0,1,.429.61,2.568,2.568,0,0,1,1.906,0a.331.331,0,0,1,.048,0,.349.349,0,0,1,.2.063c.014.011.033.025.052.037l.006,0a2.426,2.426,0,0,1,.972,1.069v0a1.486,1.486,0,0,1-.031,1.145,1.233,1.233,0,0,1-.878.755c-.1.017-.208.044-.328.075H1.938l-.02.007-.12.03a2.617,2.617,0,0,1-.563.094ZM1.87.8h0a1.809,1.809,0,0,0-.953.389.582.582,0,0,0-.179.34,1.394,1.394,0,0,0,.091.651.5.5,0,0,0,.164.259.359.359,0,0,0,.205.051h.02a2,2,0,0,0,.416-.071l.113-.028.013,0c.116-.03.26-.068.395-.091a.482.482,0,0,0,.333-.31.665.665,0,0,0,.033-.485A1.6,1.6,0,0,0,1.87.8Z" transform="translate(80.432 6359.939)"/>
    <path id="Shape-66" data-name="Shape" d="M1.5,3.281A2.034,2.034,0,0,1,.95,3.206a1.338,1.338,0,0,1-.827-.73A1.171,1.171,0,0,1,.176,1.338c.062-.1.119-.2.175-.3l0-.007C.376.987.4.949.421.905A2.779,2.779,0,0,1,.746.418,1.156,1.156,0,0,1,1.308.043,1.089,1.089,0,0,1,1.616,0a1.467,1.467,0,0,1,.492.092A2.013,2.013,0,0,1,2.98.649a1.24,1.24,0,0,1,.3.8,2.651,2.651,0,0,1-.579,1.5.389.389,0,0,1-.215.152l-.032.008-.032.008a3.363,3.363,0,0,1-.926.163ZM1.617.738a.309.309,0,0,0-.085.011.426.426,0,0,0-.194.143,2.087,2.087,0,0,0-.237.362l-.057.1,0,.005c-.063.116-.135.246-.211.364a.46.46,0,0,0,0,.447.6.6,0,0,0,.335.322,1.252,1.252,0,0,0,.331.046,2.52,2.52,0,0,0,.637-.114,1.876,1.876,0,0,0,.377-.969.531.531,0,0,0-.128-.347A1.279,1.279,0,0,0,1.837.783a.678.678,0,0,0-.22-.045Z" transform="translate(88.636 6302.521)"/>
    <path id="Shape-67" data-name="Shape" d="M1.687,3.281a.344.344,0,0,1-.1-.015l-.01,0-.05-.015a2.321,2.321,0,0,1-1.233-.68h0a1.34,1.34,0,0,1-.281-1.05A1.235,1.235,0,0,1,.652.566C.746.518.839.463.95.4L1.076.32A2.759,2.759,0,0,1,1.592.069,1.212,1.212,0,0,1,1.984,0a.971.971,0,0,1,.259.035,1.159,1.159,0,0,1,.615.451,1.953,1.953,0,0,1,.41.926,1.312,1.312,0,0,1-.176.844,2.707,2.707,0,0,1-1.255.993A.357.357,0,0,1,1.687,3.281Zm.3-2.533A.5.5,0,0,0,1.821.78a2.1,2.1,0,0,0-.382.188L1.428.974,1.405.988l-.068.041-.044.026c-.095.056-.213.126-.322.182a.481.481,0,0,0-.237.381.6.6,0,0,0,.1.451,1.532,1.532,0,0,0,.819.439,1.913,1.913,0,0,0,.811-.639.551.551,0,0,0,.079-.363A1.243,1.243,0,0,0,2.28.943.478.478,0,0,0,2.053.756.278.278,0,0,0,1.985.747Z" transform="translate(99.3 6294.727)"/>
    <path id="Shape-68" data-name="Shape" d="M1.687,3.281a.354.354,0,0,1-.1-.015l-.032-.009L1.526,3.25h0A2.327,2.327,0,0,1,.294,2.568h0a1.328,1.328,0,0,1-.281-1.05A1.23,1.23,0,0,1,.65.566C.738.522.821.472.917.416L.951.4.979.378l.1-.057A2.8,2.8,0,0,1,1.593.069,1.212,1.212,0,0,1,1.984,0a.97.97,0,0,1,.259.035,1.174,1.174,0,0,1,.615.451,1.98,1.98,0,0,1,.41.926,1.319,1.319,0,0,1-.176.844,2.71,2.71,0,0,1-1.255.991.353.353,0,0,1-.152.034Zm.3-2.533A.523.523,0,0,0,1.819.78a2.19,2.19,0,0,0-.38.188L1.416.982,1.4.991l-.063.039c-.118.071-.246.145-.366.205h0a.476.476,0,0,0-.235.381.6.6,0,0,0,.1.451,1.536,1.536,0,0,0,.817.442,1.921,1.921,0,0,0,.81-.64.553.553,0,0,0,.079-.363A1.244,1.244,0,0,0,2.28.943.464.464,0,0,0,2.05.757.249.249,0,0,0,1.983.748Z" transform="translate(102.581 6301.699)"/>
    <path id="Shape-69" data-name="Shape" d="M2.035,3.281H1.959A2.362,2.362,0,0,1,.578,2.974h0a1.312,1.312,0,0,1-.565-.928A1.23,1.23,0,0,1,.377.955C.452.888.521.816.6.731L.625.708.687.644.728.6A2.887,2.887,0,0,1,1.163.216,1.141,1.141,0,0,1,1.791,0h.017A1.2,1.2,0,0,1,2.52.261a1.914,1.914,0,0,1,.656.772,1.286,1.286,0,0,1,.057.854,2.759,2.759,0,0,1-.956,1.305A.379.379,0,0,1,2.035,3.281ZM.877,1.508h0a.479.479,0,0,0-.126.432.582.582,0,0,0,.222.4,1.58,1.58,0,0,0,.921.194,1.944,1.944,0,0,0,.619-.84.544.544,0,0,0-.023-.369A1.21,1.21,0,0,0,2.077.861.479.479,0,0,0,1.809.746h0a.425.425,0,0,0-.22.087,2.129,2.129,0,0,0-.321.287l-.03.028L1.179,1.2l-.008.009c-.09.1-.192.2-.292.294Z" transform="translate(85.355 6283.243)"/>
    <path id="Shape-70" data-name="Shape" d="M1.537,3.281a.354.354,0,0,1-.144-.03l-.029-.014-.027-.012A2.326,2.326,0,0,1,.2,2.383h0a1.383,1.383,0,0,1-.154-1.1A1.242,1.242,0,0,1,.791.41c.1-.037.2-.082.318-.134.036-.018.08-.037.131-.059A2.7,2.7,0,0,1,1.781.029,1.3,1.3,0,0,1,2.045,0a.977.977,0,0,1,.384.076,1.189,1.189,0,0,1,.557.533A2.03,2.03,0,0,1,3.28,1.6a1.346,1.346,0,0,1-.274.824,2.673,2.673,0,0,1-1.358.844.354.354,0,0,1-.111.018ZM2.044.759a.607.607,0,0,0-.121.014,2.145,2.145,0,0,0-.4.143L1.418.964c-.128.058-.263.118-.388.164a.48.48,0,0,0-.278.355A.619.619,0,0,0,.8,1.948a1.527,1.527,0,0,0,.755.547,1.876,1.876,0,0,0,.877-.54A.564.564,0,0,0,2.554,1.6,1.268,1.268,0,0,0,2.36,1a.487.487,0,0,0-.2-.217A.287.287,0,0,0,2.044.759Z" transform="translate(104.222 6286.524)"/>
    <path id="Shape-71" data-name="Shape" d="M1.458,3.281A1.605,1.605,0,0,1,.48,2.929a1.148,1.148,0,0,1-.466-1.05c.017-.107.024-.216.033-.342V1.509c0-.037.007-.073.011-.114a2.506,2.506,0,0,1,.1-.566A1.1,1.1,0,0,1,.531.268a1.417,1.417,0,0,1,.8-.263C1.4,0,1.465,0,1.527,0a2.211,2.211,0,0,1,.91.172,1.35,1.35,0,0,1,.656.607A2.42,2.42,0,0,1,3.21,2.363a.364.364,0,0,1-.141.221l-.053.041a2.742,2.742,0,0,1-1.4.648h0a1.322,1.322,0,0,1-.157.008ZM1.524.732c-.049,0-.094,0-.141,0A.577.577,0,0,0,1.07.82a.4.4,0,0,0-.125.205,1.908,1.908,0,0,0-.066.418c0,.038-.006.076-.009.117v.013c-.009.128-.02.272-.041.406a.445.445,0,0,0,.2.4.722.722,0,0,0,.428.164l.045,0a1.8,1.8,0,0,0,.918-.434,1.712,1.712,0,0,0-.073-1.022A.571.571,0,0,0,2.066.824,1.323,1.323,0,0,0,1.524.732Z" transform="translate(79.201 6287.345)"/>
    <path id="Shape-72" data-name="Shape" d="M1.471,3.281a2.116,2.116,0,0,1-.415-.041h0a1.362,1.362,0,0,1-.887-.672A1.158,1.158,0,0,1,.136,1.432c.057-.1.106-.209.154-.314L.322,1.05.353.984A2.776,2.776,0,0,1,.644.477,1.167,1.167,0,0,1,1.183.067,1.143,1.143,0,0,1,1.574,0a1.55,1.55,0,0,1,.42.062,2.059,2.059,0,0,1,.92.5,1.249,1.249,0,0,1,.361.775A2.606,2.606,0,0,1,2.8,2.866.379.379,0,0,1,2.6,3.03l-.062.022A3.126,3.126,0,0,1,1.471,3.281Zm.1-2.543a.32.32,0,0,0-.113.018.419.419,0,0,0-.185.155,2,2,0,0,0-.212.377c-.01.021-.02.041-.03.063l-.009.02-.012.023c-.061.133-.123.263-.187.381h0a.446.446,0,0,0,.031.443.615.615,0,0,0,.362.3,1.3,1.3,0,0,0,.256.026,2.25,2.25,0,0,0,.719-.159A1.842,1.842,0,0,0,2.5,1.4a.52.52,0,0,0-.154-.336A1.3,1.3,0,0,0,1.773.767a.743.743,0,0,0-.2-.029Z" transform="translate(97.658 6283.243)"/>
    <path id="Shape-73" data-name="Shape" d="M1.71,3.281a1.576,1.576,0,0,1-.42-.061,2.043,2.043,0,0,1-.92-.5A1.242,1.242,0,0,1,.008,1.95,2.616,2.616,0,0,1,.481.415.386.386,0,0,1,.686.251C.707.244.728.236.749.23A3.132,3.132,0,0,1,1.811,0a2.1,2.1,0,0,1,.417.041,1.367,1.367,0,0,1,.887.673A1.157,1.157,0,0,1,3.147,1.85c-.053.094-.1.193-.154.314-.017.034-.034.071-.051.109L2.93,2.3a2.871,2.871,0,0,1-.291.507,1.178,1.178,0,0,1-.539.412A1.16,1.16,0,0,1,1.71,3.281ZM1.09.895a1.842,1.842,0,0,0-.307.992.53.53,0,0,0,.154.336,1.321,1.321,0,0,0,.574.292.733.733,0,0,0,.2.032.345.345,0,0,0,.113-.017.445.445,0,0,0,.185-.155A2.037,2.037,0,0,0,2.22,2l.02-.041.011-.023.006-.021.012-.025c.059-.128.123-.262.187-.382h0a.451.451,0,0,0-.031-.445.6.6,0,0,0-.362-.3A1.3,1.3,0,0,0,1.81.738,2.238,2.238,0,0,0,1.09.9Z" transform="translate(100.528 6395.621)"/>
    <path id="Shape-74" data-name="Shape" d="M1.711,3.281a1.573,1.573,0,0,1-.421-.062,2.051,2.051,0,0,1-.92-.5A1.245,1.245,0,0,1,.008,1.95,2.621,2.621,0,0,1,.481.415.389.389,0,0,1,.686.251L.718.24.749.229A3.136,3.136,0,0,1,1.811,0a2.1,2.1,0,0,1,.417.041h0a1.358,1.358,0,0,1,.886.673,1.155,1.155,0,0,1,.032,1.135c-.053.1-.1.195-.152.309l0,0-.055.119L2.93,2.3A2.789,2.789,0,0,1,2.64,2.8a1.178,1.178,0,0,1-.54.411A1.128,1.128,0,0,1,1.711,3.281ZM1.81.738A2.256,2.256,0,0,0,1.091.9a1.848,1.848,0,0,0-.308.99.531.531,0,0,0,.155.336,1.306,1.306,0,0,0,.574.293.738.738,0,0,0,.2.032.328.328,0,0,0,.113-.018.432.432,0,0,0,.186-.155A2.124,2.124,0,0,0,2.221,2c.016-.034.033-.069.05-.107.049-.107.117-.253.189-.383a.447.447,0,0,0-.031-.443.6.6,0,0,0-.362-.3A1.316,1.316,0,0,0,1.81.738Z" transform="translate(91.916 6409.975)"/>
    <path id="Shape-75" data-name="Shape" d="M1.709,3.281A1.569,1.569,0,0,1,1.29,3.22a2.036,2.036,0,0,1-.92-.5A1.235,1.235,0,0,1,.008,1.95,2.6,2.6,0,0,1,.48.415.379.379,0,0,1,.685.251L.74.231l.008,0,.01,0A3.147,3.147,0,0,1,1.811,0a2.109,2.109,0,0,1,.418.041,1.362,1.362,0,0,1,.887.673A1.142,1.142,0,0,1,3.146,1.85c-.048.086-.089.175-.138.278l-.016.035L2.931,2.3A2.852,2.852,0,0,1,2.64,2.8a1.172,1.172,0,0,1-.541.413,1.152,1.152,0,0,1-.39.066Zm.1-2.545A2.218,2.218,0,0,0,1.091.9a1.839,1.839,0,0,0-.307.988.533.533,0,0,0,.154.338,1.305,1.305,0,0,0,.574.292.746.746,0,0,0,.2.032.339.339,0,0,0,.112-.017.445.445,0,0,0,.185-.155A2.147,2.147,0,0,0,2.22,2l.017-.035.033-.074L2.3,1.831l0-.008c.05-.106.1-.216.157-.318a.451.451,0,0,0-.03-.445.6.6,0,0,0-.363-.3A1.274,1.274,0,0,0,1.808.736Z" transform="translate(101.759 6418.999)"/>
    <path id="Shape-76" data-name="Shape" d="M1.414,3.281c-.037,0-.073,0-.11,0A1.445,1.445,0,0,1,.291,2.748,1.134,1.134,0,0,1,.066,1.635c.038-.1.069-.214.1-.328.009-.033.019-.066.029-.1l.011-.041A2.766,2.766,0,0,1,.418.623,1.162,1.162,0,0,1,.9.137,1.277,1.277,0,0,1,1.494,0a1.864,1.864,0,0,1,.221.014A2.205,2.205,0,0,1,2.731.366a1.262,1.262,0,0,1,.5.709,2.5,2.5,0,0,1-.219,1.579.378.378,0,0,1-.181.194c-.02.009-.041.019-.059.03a2.8,2.8,0,0,1-1.357.4ZM1.491.733a.418.418,0,0,0-.2.041.428.428,0,0,0-.162.179,2.135,2.135,0,0,0-.151.4c-.011.035-.021.073-.032.113-.032.113-.076.268-.126.4a.442.442,0,0,0,.107.433.632.632,0,0,0,.418.237h.077a1.887,1.887,0,0,0,.888-.275A1.764,1.764,0,0,0,2.454,1.25.533.533,0,0,0,2.24.943,1.368,1.368,0,0,0,1.61.738l.647,1.414L1.61.741A.99.99,0,0,0,1.491.733Z" transform="translate(86.994 6266.837)"/>
    <path id="Shape-77" data-name="Shape" d="M1.472,3.281a2.1,2.1,0,0,1-.417-.041h0a1.358,1.358,0,0,1-.886-.673A1.155,1.155,0,0,1,.137,1.432c.051-.093.095-.187.146-.3l.008-.017c.02-.041.041-.087.062-.132A2.824,2.824,0,0,1,.644.479a1.175,1.175,0,0,1,.54-.412A1.13,1.13,0,0,1,1.572,0a1.573,1.573,0,0,1,.421.062,2.051,2.051,0,0,1,.92.495,1.247,1.247,0,0,1,.362.775A2.615,2.615,0,0,1,2.8,2.866.39.39,0,0,1,2.6,3.03c-.021.006-.041.014-.062.021a3.136,3.136,0,0,1-1.063.23Zm.1-2.545a.319.319,0,0,0-.113.018.431.431,0,0,0-.185.155,2.1,2.1,0,0,0-.212.377c-.017.035-.034.071-.05.107-.053.114-.119.257-.188.382a.451.451,0,0,0,.03.445.6.6,0,0,0,.362.3,1.312,1.312,0,0,0,.256.026,2.248,2.248,0,0,0,.719-.158A1.846,1.846,0,0,0,2.5,1.394a.531.531,0,0,0-.155-.336A1.288,1.288,0,0,0,1.77.765.742.742,0,0,0,1.575.736Z" transform="translate(85.764 6252.073)"/>
    <path id="Shape-78" data-name="Shape" d="M1.471,3.28A1.193,1.193,0,0,1,.76,3.019,1.928,1.928,0,0,1,.1,2.247a1.286,1.286,0,0,1-.057-.853A2.758,2.758,0,0,1,1,.088.369.369,0,0,1,1.245,0H1.4A2.258,2.258,0,0,1,2.7.3h0a1.312,1.312,0,0,1,.565.929A1.23,1.23,0,0,1,2.9,2.324c-.082.076-.164.159-.246.246l-.07.073-.032.033a2.838,2.838,0,0,1-.437.386,1.113,1.113,0,0,1-.629.218ZM1.386.744a1.94,1.94,0,0,0-.619.839.546.546,0,0,0,.023.371,1.212,1.212,0,0,0,.413.464.479.479,0,0,0,.268.115h.005a.4.4,0,0,0,.22-.087,2.169,2.169,0,0,0,.321-.287c.026-.028.055-.057.082-.085.092-.1.2-.209.3-.3a.479.479,0,0,0,.126-.432.588.588,0,0,0-.222-.4,1.571,1.571,0,0,0-.92-.192Z" transform="translate(72.23 6366.914)"/>
    <path id="Shape-79" data-name="Shape" d="M1.476,3.279h0a1.209,1.209,0,0,1-.718-.261A1.938,1.938,0,0,1,.1,2.245a1.282,1.282,0,0,1-.056-.853A2.761,2.761,0,0,1,1,.087.372.372,0,0,1,1.245,0h.076A2.362,2.362,0,0,1,2.7.3h0a1.312,1.312,0,0,1,.565.928A1.225,1.225,0,0,1,2.9,2.322c-.067.061-.132.128-.2.2l-.046.048-.1.107a2.887,2.887,0,0,1-.437.386,1.136,1.136,0,0,1-.628.217ZM1.386.743a1.943,1.943,0,0,0-.619.84.539.539,0,0,0,.023.369,1.22,1.22,0,0,0,.413.466.479.479,0,0,0,.275.115.422.422,0,0,0,.22-.087,2.13,2.13,0,0,0,.321-.287l.045-.047L2.1,2.071l.029-.03c.079-.082.178-.186.273-.272a.477.477,0,0,0,.126-.432.58.58,0,0,0-.222-.4A1.563,1.563,0,0,0,1.386.743Z" transform="translate(67.309 6356.25)"/>
    <path id="Shape-80" data-name="Shape" d="M1.471,3.28A1.193,1.193,0,0,1,.76,3.019,1.928,1.928,0,0,1,.1,2.247a1.284,1.284,0,0,1-.057-.853A2.758,2.758,0,0,1,1,.088.369.369,0,0,1,1.245,0H1.4A2.259,2.259,0,0,1,2.7.3h0a1.312,1.312,0,0,1,.564.929A1.23,1.23,0,0,1,2.9,2.324c-.08.073-.153.148-.246.246l-.063.066-.041.041a2.825,2.825,0,0,1-.437.386,1.125,1.125,0,0,1-.626.217ZM1.386.744a1.937,1.937,0,0,0-.619.839.546.546,0,0,0,.023.371,1.212,1.212,0,0,0,.413.464.479.479,0,0,0,.268.115h.005a.4.4,0,0,0,.22-.087,2.3,2.3,0,0,0,.321-.287c.018-.02.037-.041.056-.059l.013-.014L2.1,2.074c.1-.1.2-.21.3-.3a.479.479,0,0,0,.126-.432.588.588,0,0,0-.222-.4,1.571,1.571,0,0,0-.92-.192Z" transform="translate(59.106 6333.281)"/>
    <path id="Shape-81" data-name="Shape" d="M1.471,3.28A1.193,1.193,0,0,1,.76,3.019,1.928,1.928,0,0,1,.1,2.247a1.283,1.283,0,0,1-.057-.853A2.755,2.755,0,0,1,1,.088.369.369,0,0,1,1.245,0H1.4A2.25,2.25,0,0,1,2.7.306h0a1.315,1.315,0,0,1,.563.929A1.226,1.226,0,0,1,2.9,2.324c-.08.073-.153.148-.246.246l-.012.012c-.029.031-.059.062-.091.094a2.942,2.942,0,0,1-.437.388,1.124,1.124,0,0,1-.628.216ZM1.363.949h0L1.2,2.421a.483.483,0,0,0,.267.113h.005a.4.4,0,0,0,.22-.087,2.169,2.169,0,0,0,.321-.287l.018-.018.02-.021h0L2.1,2.076c.091-.1.2-.208.3-.3a.479.479,0,0,0,.126-.432A.588.588,0,0,0,2.3.938,1.571,1.571,0,0,0,1.383.746a1.935,1.935,0,0,0-.616.839.54.54,0,0,0,.023.369,1.221,1.221,0,0,0,.413.465Z" transform="translate(54.595 6346.816)"/>
    <path id="Shape-82" data-name="Shape" d="M1.471,3.28A1.193,1.193,0,0,1,.76,3.019,1.928,1.928,0,0,1,.1,2.247a1.286,1.286,0,0,1-.057-.853A2.74,2.74,0,0,1,1,.088.369.369,0,0,1,1.245,0H1.4A2.259,2.259,0,0,1,2.7.3h0a1.312,1.312,0,0,1,.564.929A1.23,1.23,0,0,1,2.9,2.324c-.08.073-.153.148-.246.246L2.6,2.625l-.049.052a2.925,2.925,0,0,1-.438.386,1.125,1.125,0,0,1-.629.217ZM1.386.744a1.947,1.947,0,0,0-.619.839.551.551,0,0,0,.023.371,1.212,1.212,0,0,0,.413.464.479.479,0,0,0,.268.115h.005a.4.4,0,0,0,.22-.087,2.174,2.174,0,0,0,.321-.287l.045-.046L2.1,2.075c.1-.1.2-.21.3-.3a.479.479,0,0,0,.126-.432.574.574,0,0,0-.222-.4,1.571,1.571,0,0,0-.92-.193Z" transform="translate(51.724 6321.798)"/>
    <path id="Shape-83" data-name="Shape" d="M1.471,3.28A1.193,1.193,0,0,1,.76,3.019,1.928,1.928,0,0,1,.1,2.247a1.281,1.281,0,0,1-.057-.853A2.758,2.758,0,0,1,1,.088.369.369,0,0,1,1.245,0H1.4A2.251,2.251,0,0,1,2.7.306a1.312,1.312,0,0,1,.564.929A1.226,1.226,0,0,1,2.9,2.324c-.08.073-.153.148-.246.246l-.012.012c-.029.031-.059.062-.091.094a2.908,2.908,0,0,1-.437.388,1.121,1.121,0,0,1-.628.216ZM1.363.949h0L1.2,2.421a.483.483,0,0,0,.268.113h0a.4.4,0,0,0,.22-.087,2.3,2.3,0,0,0,.321-.287l.021-.023.016-.016L2.1,2.074c.1-.1.2-.21.3-.3a.479.479,0,0,0,.126-.432.588.588,0,0,0-.222-.4A1.571,1.571,0,0,0,1.384.745a1.935,1.935,0,0,0-.618.84.54.54,0,0,0,.023.369,1.221,1.221,0,0,0,.413.465Z" transform="translate(59.106 6312.365)"/>
    <path id="Shape-84" data-name="Shape" d="M1.476,3.279h0a1.209,1.209,0,0,1-.718-.261A1.94,1.94,0,0,1,.1,2.245a1.282,1.282,0,0,1-.056-.853A2.761,2.761,0,0,1,1,.087.372.372,0,0,1,1.245,0h.075A2.364,2.364,0,0,1,2.7.3h0a1.312,1.312,0,0,1,.564.928A1.225,1.225,0,0,1,2.9,2.322c-.068.063-.135.132-.205.205l-.041.041L2.631,2.6l-.076.082a2.887,2.887,0,0,1-.437.386,1.136,1.136,0,0,1-.629.216ZM1.386.743a1.941,1.941,0,0,0-.619.84.539.539,0,0,0,.023.369,1.22,1.22,0,0,0,.413.466.479.479,0,0,0,.275.115.426.426,0,0,0,.22-.087,2.116,2.116,0,0,0,.321-.287l.032-.036v0L2.1,2.072l.035-.034c.073-.076.173-.18.269-.268a.477.477,0,0,0,.126-.432.581.581,0,0,0-.222-.4A1.565,1.565,0,0,0,1.386.743Z" transform="translate(71 6298.422)"/>
    <path id="Shape-85" data-name="Shape" d="M1.973,3.281a1.029,1.029,0,0,1-.429-.094c-.1-.044-.2-.082-.324-.127l-.073-.026-.066-.024a2.736,2.736,0,0,1-.527-.246A1.16,1.16,0,0,1,.1,2.256,1.345,1.345,0,0,1,.031,1.44,2.122,2.122,0,0,1,.448.463,1.243,1.243,0,0,1,1.189.026,1.51,1.51,0,0,1,1.471,0,3,3,0,0,1,2.751.359a.383.383,0,0,1,.181.193c.009.02.017.041.027.062A2.673,2.673,0,0,1,3.266,2.09h0a1.4,1.4,0,0,1-.595.957A1.237,1.237,0,0,1,1.973,3.281ZM1.473.789A.81.81,0,0,0,1.316.8.529.529,0,0,0,.994.991,1.343,1.343,0,0,0,.751,1.6a.54.54,0,0,0,.012.315.41.41,0,0,0,.169.172,2.023,2.023,0,0,0,.392.18l.045.016.066.024.019.007c.113.041.253.091.377.148a.346.346,0,0,0,.146.031.517.517,0,0,0,.293-.1.617.617,0,0,0,.267-.393,1.767,1.767,0,0,0-.212-.972A2.17,2.17,0,0,0,1.473.789Z" transform="translate(68.949 6343.123)"/>
    <path id="Shape-86" data-name="Shape" d="M1.78,3.281A1.23,1.23,0,0,1,.754,2.774C.692,2.683.62,2.593.545,2.5L.477,2.413.454,2.385A2.89,2.89,0,0,1,.134,1.9a1.107,1.107,0,0,1-.126-.644A1.177,1.177,0,0,1,.366.58,1.928,1.928,0,0,1,1.219.045,1.305,1.305,0,0,1,1.556,0a1.336,1.336,0,0,1,.513.105A2.741,2.741,0,0,1,3.223,1.221a.369.369,0,0,1,.055.25l-.009.062a2.341,2.341,0,0,1-.5,1.322,1.315,1.315,0,0,1-.994.426ZM1.559.738a.538.538,0,0,0-.145.02A1.2,1.2,0,0,0,.9,1.1a.47.47,0,0,0-.151.252A.4.4,0,0,0,.8,1.579a2.138,2.138,0,0,0,.24.354l.073.093.02.024c.072.09.162.2.237.313a.479.479,0,0,0,.41.183.586.586,0,0,0,.427-.164,1.548,1.548,0,0,0,.315-.876A1.932,1.932,0,0,0,1.781.785.569.569,0,0,0,1.559.738Z" transform="translate(66.078 6328.769)"/>
    <path id="Shape-87" data-name="Shape" d="M1.526,3.281A1.679,1.679,0,0,1,.7,3.057a1.193,1.193,0,0,1-.641-.968c0-.111-.015-.228-.027-.341,0-.022,0-.044-.007-.066S.022,1.63.02,1.6a2.53,2.53,0,0,1-.006-.572,1.047,1.047,0,0,1,.273-.6A1.348,1.348,0,0,1,1.028.062,2.946,2.946,0,0,1,1.6,0,1.945,1.945,0,0,1,2.14.072a1.412,1.412,0,0,1,.749.5A2.464,2.464,0,0,1,3.281,2.12a.342.342,0,0,1-.1.236l-.023.022L3.135,2.4a2.606,2.606,0,0,1-1.257.833h0a1.341,1.341,0,0,1-.349.045ZM1.6.729a2.094,2.094,0,0,0-.4.041A.547.547,0,0,0,.913.9a.378.378,0,0,0-.087.219,1.862,1.862,0,0,0,.008.422.688.688,0,0,0,.007.07.456.456,0,0,0,0,.046c.013.123.03.275.033.415a.465.465,0,0,0,.269.374.792.792,0,0,0,.382.107.447.447,0,0,0,.11-.013,1.729,1.729,0,0,0,.82-.557,1.736,1.736,0,0,0-.249-1A.6.6,0,0,0,1.889.763,1.035,1.035,0,0,0,1.6.727Z" transform="translate(73.461 6312.363)"/>
    <path id="Shape-88" data-name="Shape" d="M1.526,3.281A1.679,1.679,0,0,1,.7,3.057a1.194,1.194,0,0,1-.641-.968c0-.1-.013-.206-.025-.325V1.747C.029,1.7.024,1.654.02,1.6a2.5,2.5,0,0,1-.006-.57A1.046,1.046,0,0,1,.287.43,1.353,1.353,0,0,1,1.028.061,3,3,0,0,1,1.6,0,1.942,1.942,0,0,1,2.14.072a1.4,1.4,0,0,1,.749.506A2.458,2.458,0,0,1,3.281,2.12a.343.343,0,0,1-.1.236L3.136,2.4a2.6,2.6,0,0,1-1.258.833,1.368,1.368,0,0,1-.351.045ZM1.6.729A2.063,2.063,0,0,0,1.207.77.557.557,0,0,0,.915.9a.383.383,0,0,0-.087.219,1.894,1.894,0,0,0,.008.423c0,.037.007.076.012.115.012.109.03.273.033.417a.463.463,0,0,0,.268.369.788.788,0,0,0,.381.107.448.448,0,0,0,.111-.01,1.718,1.718,0,0,0,.82-.557,1.738,1.738,0,0,0-.249-1,.589.589,0,0,0-.323-.22A1.063,1.063,0,0,0,1.6.729Z" transform="translate(66.488 6315.644)"/>
    <path id="Shape-89" data-name="Shape" d="M1.238,3.281A.98.98,0,0,1,.852,3.2,1.172,1.172,0,0,1,.3,2.67,2.034,2.034,0,0,1,0,1.684,1.353,1.353,0,0,1,.274.861,2.68,2.68,0,0,1,1.633.018.356.356,0,0,1,1.745,0a.334.334,0,0,1,.141.03l.027.011.028.012A2.328,2.328,0,0,1,3.08.9a1.39,1.39,0,0,1,.153,1.1,1.242,1.242,0,0,1-.744.876c-.1.037-.2.082-.315.132h0l-.132.059a2.907,2.907,0,0,1-.541.188,1.312,1.312,0,0,1-.262.03Zm.489-2.5h0l-.8,1.5a.47.47,0,0,0,.2.217.287.287,0,0,0,.111.02.6.6,0,0,0,.12-.014,1.965,1.965,0,0,0,.4-.143l.023-.01L1.8,2.347l.065-.029L1.892,2.3l.006,0c.11-.05.234-.105.352-.148A.483.483,0,0,0,2.529,1.8a.615.615,0,0,0-.046-.465A1.528,1.528,0,0,0,1.727.785a1.89,1.89,0,0,0-.878.542.572.572,0,0,0-.121.356,1.276,1.276,0,0,0,.194.6Z" transform="translate(71.41 6380.035)"/>
    <path id="Shape-90" data-name="Shape" d="M1.4,3.28a2.272,2.272,0,0,1-.465-.041,1.072,1.072,0,0,1-.585-.325,1.407,1.407,0,0,1-.324-.782A2.426,2.426,0,0,1,.11,1.008,1.39,1.39,0,0,1,.661.291,2.092,2.092,0,0,1,1.838,0c.123,0,.251.006.39.018a.353.353,0,0,1,.23.12L2.5.187a2.716,2.716,0,0,1,.753,1.34v0A1.616,1.616,0,0,1,3,2.7a1.163,1.163,0,0,1-.952.573H1.994c-.044,0-.089,0-.137,0s-.128,0-.205,0c-.044,0-.089,0-.144,0ZM1.836.83a1.486,1.486,0,0,0-.808.18.589.589,0,0,0-.241.309,1.536,1.536,0,0,0-.036.693.564.564,0,0,0,.111.306.383.383,0,0,0,.212.1,1.545,1.545,0,0,0,.333.028h.237c.066,0,.14,0,.215,0s.119,0,.172,0h.019a.467.467,0,0,0,.369-.243.713.713,0,0,0,.123-.492,1.78,1.78,0,0,0-.5-.876A1.775,1.775,0,0,0,1.836.83Z" transform="translate(54.185 6370.604)"/>
    <path id="Shape-91" data-name="Shape" d="M1.485,3.281A1.693,1.693,0,0,1,.577,3,1.173,1.173,0,0,1,0,2c.006-.107,0-.216,0-.341v0C0,1.607,0,1.558,0,1.509A2.5,2.5,0,0,1,.04.938,1.06,1.06,0,0,1,.365.354,1.394,1.394,0,0,1,1.144.03,3.276,3.276,0,0,1,1.572,0a2.082,2.082,0,0,1,.7.11,1.394,1.394,0,0,1,.718.552,2.412,2.412,0,0,1,.274,1.565.346.346,0,0,1-.12.231l-.02.017-.03.026a2.712,2.712,0,0,1-1.34.754h0A1.37,1.37,0,0,1,1.485,3.281ZM1.567.73a2.352,2.352,0,0,0-.3.021A.574.574,0,0,0,.962.862a.385.385,0,0,0-.105.212A1.958,1.958,0,0,0,.831,1.5c0,.034,0,.07,0,.106v.029c0,.126.007.269,0,.4a.456.456,0,0,0,.241.387.775.775,0,0,0,.41.132.415.415,0,0,0,.082-.008,1.782,1.782,0,0,0,.878-.5,1.7,1.7,0,0,0-.174-1.01.585.585,0,0,0-.31-.241A1.2,1.2,0,0,0,1.567.73Z" transform="translate(50.493 6299.649)"/>
    <path id="Shape-92" data-name="Shape" d="M1.463,3.281a2.165,2.165,0,0,1-.354-.03h0A1.38,1.38,0,0,1,.194,2.61,1.148,1.148,0,0,1,.119,1.476c.05-.1.093-.2.142-.315v0c.018-.041.037-.087.057-.134A2.777,2.777,0,0,1,.592.509,1.171,1.171,0,0,1,1.12.08,1.168,1.168,0,0,1,1.553,0a1.616,1.616,0,0,1,.381.049,2.072,2.072,0,0,1,.943.463,1.246,1.246,0,0,1,.392.759,2.589,2.589,0,0,1-.418,1.55.381.381,0,0,1-.2.171l-.057.022h0a3.031,3.031,0,0,1-1.127.267ZM1.552.735a.338.338,0,0,0-.127.022.429.429,0,0,0-.181.16,2.113,2.113,0,0,0-.2.384l-.014.031-.017.041L1,1.412l0,.009C.95,1.527.888,1.673.823,1.8a.446.446,0,0,0,.048.441.615.615,0,0,0,.374.287,1.317,1.317,0,0,0,.218.018,2.12,2.12,0,0,0,.757-.185,1.823,1.823,0,0,0,.272-1,.529.529,0,0,0-.168-.331A1.3,1.3,0,0,0,1.737.761.773.773,0,0,0,1.552.735Z" transform="translate(66.488 6288.166)"/>
    <path id="Shape-93" data-name="Shape" d="M1.259,3.281a.969.969,0,0,1-.328-.057,1.165,1.165,0,0,1-.585-.5A1.992,1.992,0,0,1,0,1.764,1.335,1.335,0,0,1,.234.933,2.7,2.7,0,0,1,1.551.024.349.349,0,0,1,1.679,0,.36.36,0,0,1,1.8.023l.022.009.036.014h0A2.314,2.314,0,0,1,3.041.818h0a1.363,1.363,0,0,1,.205,1.076,1.237,1.237,0,0,1-.7.912c-.1.041-.2.093-.31.149l-.014.007c-.037.019-.075.041-.115.059a2.823,2.823,0,0,1-.533.216A1.257,1.257,0,0,1,1.259,3.281Zm.422-2.5a1.9,1.9,0,0,0-.848.584.57.57,0,0,0-.1.36,1.261,1.261,0,0,0,.224.585.476.476,0,0,0,.214.205.282.282,0,0,0,.093.014A.557.557,0,0,0,1.4,2.508a2.245,2.245,0,0,0,.392-.164l.024-.012.025-.013h0l.025-.013L1.9,2.293l.02-.01c.105-.054.237-.121.36-.172a.485.485,0,0,0,.26-.369.608.608,0,0,0-.07-.458A1.526,1.526,0,0,0,1.681.779Z" transform="translate(65.259 6383.318)"/>
    <path id="Shape-94" data-name="Shape" d="M1.252,3.28a1.677,1.677,0,0,1-.194-.011,1.041,1.041,0,0,1-.607-.26A1.33,1.33,0,0,1,.069,2.28,2.355,2.355,0,0,1,.063,1.173,1.413,1.413,0,0,1,.555.418,2.488,2.488,0,0,1,2.092,0a.345.345,0,0,1,.238.1l.032.027.017.017A2.575,2.575,0,0,1,3.23,1.374a1.576,1.576,0,0,1-.16,1.172,1.2,1.2,0,0,1-.958.656c-.1,0-.205.017-.34.034l-.059.007-.082.009a3.174,3.174,0,0,1-.378.027ZM1.969.816a1.745,1.745,0,0,0-.991.268.6.6,0,0,0-.216.328,1.468,1.468,0,0,0,.018.678.544.544,0,0,0,.133.287.381.381,0,0,0,.22.082,1.016,1.016,0,0,0,.116.006,2.681,2.681,0,0,0,.306-.022l.116-.014c.123-.015.273-.034.416-.041a.464.464,0,0,0,.367-.273.7.7,0,0,0,.086-.492A1.71,1.71,0,0,0,1.969.816Z" transform="translate(55.415 6359.941)"/>
    <path id="Shape-95" data-name="Shape" d="M1.761,3.281H1.714A1.23,1.23,0,0,1,.706,2.741C.652,2.655.593,2.576.525,2.483L.506,2.458.42,2.34a2.916,2.916,0,0,1-.3-.489,1.11,1.11,0,0,1-.1-.649A1.169,1.169,0,0,1,.4.539,1.928,1.928,0,0,1,1.266.033,1.34,1.34,0,0,1,1.559,0a1.318,1.318,0,0,1,.556.123A2.725,2.725,0,0,1,3.23,1.278a.362.362,0,0,1,.046.25l-.006.031-.005.031a2.34,2.34,0,0,1-.543,1.3A1.317,1.317,0,0,1,1.761,3.281ZM1.559.735a.562.562,0,0,0-.123.014,1.235,1.235,0,0,0-.528.324.469.469,0,0,0-.16.246.406.406,0,0,0,.047.23,2.191,2.191,0,0,0,.228.362l.024.032L1.092,2c.087.117.172.232.246.345a.482.482,0,0,0,.4.2h.022a.578.578,0,0,0,.41-.148,1.549,1.549,0,0,0,.349-.861A1.919,1.919,0,0,0,1.8.794.566.566,0,0,0,1.559.735Z" transform="translate(49.672 6313.183)"/>
    <path id="Shape-96" data-name="Shape" d="M1.617,3.281a1.605,1.605,0,0,1-.559-.1,1.239,1.239,0,0,1-.8-.842C.238,2.23.2,2.118.168,2.01L.127,1.871A2.671,2.671,0,0,1,0,1.312,1.044,1.044,0,0,1,.136.677,1.23,1.23,0,0,1,.753.187,2.3,2.3,0,0,1,1.612,0a1.616,1.616,0,0,1,.18.01,1.39,1.39,0,0,1,.8.369,2.614,2.614,0,0,1,.68,1.444.344.344,0,0,1-.046.249L3.212,2.1,3.2,2.126a2.389,2.389,0,0,1-1,1.029h0a1.308,1.308,0,0,1-.574.127Zm0-2.554a1.5,1.5,0,0,0-.551.128.489.489,0,0,0-.246.175.387.387,0,0,0-.037.23,2.08,2.08,0,0,0,.094.41l.035.112c.035.111.082.262.116.4a.479.479,0,0,0,.325.319.775.775,0,0,0,.267.049.492.492,0,0,0,.212-.041,1.57,1.57,0,0,0,.656-.684A1.848,1.848,0,0,0,2.046.893.59.59,0,0,0,1.7.732a.8.8,0,0,0-.086,0Z" transform="translate(61.567 6296.779)"/>
    <path id="Shape-97" data-name="Shape" d="M1.507,3.281a1.223,1.223,0,0,1-.675-.224,1.94,1.94,0,0,1-.7-.736,1.284,1.284,0,0,1-.1-.851A2.748,2.748,0,0,1,.922.119a.376.376,0,0,1,.238-.1.453.453,0,0,0,.063,0C1.347.007,1.474,0,1.6,0A2.058,2.058,0,0,1,2.64.246a1.312,1.312,0,0,1,.615.9A1.219,1.219,0,0,1,2.946,2.25c-.08.082-.155.168-.235.26l-.067.077-.03.033a2.9,2.9,0,0,1-.418.41,1.134,1.134,0,0,1-.619.246A.457.457,0,0,1,1.507,3.281Zm.1-2.535c-.094,0-.192,0-.267.008a1.94,1.94,0,0,0-.577.87A.544.544,0,0,0,.8,1.993a1.227,1.227,0,0,0,.441.442.517.517,0,0,0,.268.1h.014a.436.436,0,0,0,.216-.1,2.187,2.187,0,0,0,.308-.306l.037-.041.041-.046c.1-.112.19-.22.287-.319a.475.475,0,0,0,.1-.438A.583.583,0,0,0,2.274.9,1.28,1.28,0,0,0,1.607.746Z" transform="translate(71 6405.055)"/>
    <path id="Shape-98" data-name="Shape" d="M1.316,3.281a.968.968,0,0,1-.224-.026,1.173,1.173,0,0,1-.633-.429,1.955,1.955,0,0,1-.442-.908,1.312,1.312,0,0,1,.147-.844A2.715,2.715,0,0,1,1.387.041.356.356,0,0,1,1.551,0a.374.374,0,0,1,.09.011l.029.007L1.7.026h.007a2.322,2.322,0,0,1,1.25.635h0A1.328,1.328,0,0,1,3.272,1.7a1.23,1.23,0,0,1-.606.972c-.093.051-.18.107-.294.18l-.041.026-.082.053A2.843,2.843,0,0,1,1.74,3.2,1.189,1.189,0,0,1,1.316,3.281ZM1.6.768a1.912,1.912,0,0,0-.79.667A.553.553,0,0,0,.74,1.8a1.224,1.224,0,0,0,.283.551.472.472,0,0,0,.235.178.249.249,0,0,0,.058.006A.494.494,0,0,0,1.488,2.5a2.211,2.211,0,0,0,.374-.2l.1-.064c.109-.071.237-.153.36-.221a.479.479,0,0,0,.223-.389.6.6,0,0,0-.116-.445A1.544,1.544,0,0,0,1.6.768Z" transform="translate(51.723 6395.621)"/>
    <path id="Shape-99" data-name="Shape" d="M1.64,3.281A1.593,1.593,0,0,1,1.156,3.2a1.24,1.24,0,0,1-.832-.8C.3,2.3.259,2.206.217,2.092L.212,2.08C.2,2.036.179,1.991.163,1.944a2.68,2.68,0,0,1-.151-.55,1.046,1.046,0,0,1,.1-.644A1.2,1.2,0,0,1,.689.231,2.188,2.188,0,0,1,1.608,0a.962.962,0,0,1,.1,0,1.381,1.381,0,0,1,.812.328A2.643,2.643,0,0,1,3.27,1.742a.346.346,0,0,1-.031.25l-.018.034-.011.021a2.355,2.355,0,0,1-.935,1.077h0a1.29,1.29,0,0,1-.634.157ZM1.608.728a1.392,1.392,0,0,0-.577.156A.48.48,0,0,0,.8,1.071a.381.381,0,0,0-.024.23,2.072,2.072,0,0,0,.115.406l.041.111c.051.136.1.268.137.4a.481.481,0,0,0,.338.3.76.76,0,0,0,.235.037A.5.5,0,0,0,1.88,2.5a1.554,1.554,0,0,0,.607-.716A1.87,1.87,0,0,0,2.005.873.58.58,0,0,0,1.654.729Z" transform="translate(48.853 6284.064)"/>
    <path id="Shape-100" data-name="Shape" d="M1.495,3.281a1.7,1.7,0,0,1-.887-.264,1.178,1.178,0,0,1-.59-1c0-.108,0-.216-.007-.342,0-.047,0-.1-.006-.144A2.512,2.512,0,0,1,.032.962,1.059,1.059,0,0,1,.345.372,1.39,1.39,0,0,1,1.116.036,3.216,3.216,0,0,1,1.581,0a2.066,2.066,0,0,1,.656.1,1.4,1.4,0,0,1,.728.541A2.424,2.424,0,0,1,3.27,2.2a.347.347,0,0,1-.115.232l-.023.021-.025.023h0a2.69,2.69,0,0,1-1.319.774h0A1.36,1.36,0,0,1,1.495,3.281ZM1.251.756a.558.558,0,0,0-.3.115.381.381,0,0,0-.1.213,1.956,1.956,0,0,0-.017.423v.034a.446.446,0,0,0,0,.052v.03c.006.13.013.278.009.418a.463.463,0,0,0,.249.384.783.783,0,0,0,.405.125.451.451,0,0,0,.087-.008,1.778,1.778,0,0,0,.865-.518,1.711,1.711,0,0,0-.192-1.007A.589.589,0,0,0,1.943.779,1.171,1.171,0,0,0,1.579.728a2.237,2.237,0,0,0-.328.026L2.429,2Z" transform="translate(66.489 6272.99)"/>
    <path id="Shape-101" data-name="Shape" d="M1.435,3.281H1.4a1.18,1.18,0,0,1-.711-.3,1.928,1.928,0,0,1-.612-.8,1.283,1.283,0,0,1-.013-.853A2.748,2.748,0,0,1,1.085.076.376.376,0,0,1,1.312,0h.019a.444.444,0,0,1,.062,0H1.4A2.359,2.359,0,0,1,2.764.38h0a1.31,1.31,0,0,1,.512.955A1.225,1.225,0,0,1,2.857,2.4c-.079.065-.153.134-.238.215l-.02.018-.056.054,0,0-.047.045a2.938,2.938,0,0,1-.454.361A1.142,1.142,0,0,1,1.435,3.281Zm0-2.531h0a1.931,1.931,0,0,0-.659.8.541.541,0,0,0,0,.369,1.214,1.214,0,0,0,.386.486.471.471,0,0,0,.267.128h.012a.423.423,0,0,0,.212-.075,2.226,2.226,0,0,0,.334-.271l.05-.047,0,0,.017-.016.017-.016L2.079,2.1c.1-.09.205-.192.31-.278h0A.477.477,0,0,0,2.536,1.4a.58.58,0,0,0-.2-.41A1.549,1.549,0,0,0,1.43.751Z" transform="translate(68.949 6416.128)"/>
    <path id="Shape-102" data-name="Shape" d="M1.467,3.281A1.634,1.634,0,0,1,.517,2.96,1.16,1.16,0,0,1,.008,1.925c.012-.109.016-.222.02-.342,0-.041,0-.085,0-.131V1.439A2.529,2.529,0,0,1,.106.871,1.084,1.084,0,0,1,.464.3a1.424,1.424,0,0,1,.8-.287c.1-.009.2-.014.29-.014a2.158,2.158,0,0,1,.824.146A1.361,1.361,0,0,1,3.055.73a2.408,2.408,0,0,1,.18,1.578.358.358,0,0,1-.133.225l-.029.023-.023.018a2.733,2.733,0,0,1-1.378.691,1.386,1.386,0,0,1-.205.016ZM1.549.732c-.065,0-.135,0-.21.009a.574.574,0,0,0-.311.1.394.394,0,0,0-.117.208,1.869,1.869,0,0,0-.05.421c0,.037,0,.075,0,.116C.853,1.7.848,1.859.832,2a.449.449,0,0,0,.217.4.747.747,0,0,0,.424.151.4.4,0,0,0,.057,0,1.8,1.8,0,0,0,.9-.465A1.7,1.7,0,0,0,2.32,1.064.58.58,0,0,0,2.026.808,1.292,1.292,0,0,0,1.547.732Z" transform="translate(54.183 6261.097)"/>
    <path id="Shape-103" data-name="Shape" d="M1.961,3.281a1.047,1.047,0,0,1-.485-.118c-.095-.049-.194-.091-.308-.14l-.009,0-.135-.056a2.789,2.789,0,0,1-.515-.274,1.164,1.164,0,0,1-.43-.526,1.33,1.33,0,0,1-.031-.815A2.083,2.083,0,0,1,.513.4,1.238,1.238,0,0,1,1.274.013,1.466,1.466,0,0,1,1.468,0,2.88,2.88,0,0,1,2.822.431a.381.381,0,0,1,.172.2l.023.061a2.649,2.649,0,0,1,.235,1.481,1.375,1.375,0,0,1-.641.915A1.244,1.244,0,0,1,1.961,3.281ZM1.469.783a.792.792,0,0,0-.1.007.527.527,0,0,0-.331.168,1.324,1.324,0,0,0-.273.588.522.522,0,0,0,0,.312.42.42,0,0,0,.161.18,1.945,1.945,0,0,0,.383.2c.037.017.076.034.109.047.13.054.267.113.387.175a.369.369,0,0,0,.167.041.537.537,0,0,0,.276-.086.6.6,0,0,0,.287-.376,1.734,1.734,0,0,0-.164-.973,2.072,2.072,0,0,0-.9-.281Z" transform="translate(42.7 6359.939)"/>
    <path id="Shape-104" data-name="Shape" d="M1.85,3.281A1.184,1.184,0,0,1,.956,2.9C.888,2.828.817,2.76.733,2.681L.708,2.657l0,0-.1-.1a2.827,2.827,0,0,1-.386-.437A1.139,1.139,0,0,1,0,1.49,1.194,1.194,0,0,1,.261.76,1.953,1.953,0,0,1,1.033.1a1.277,1.277,0,0,1,.5-.1,1.356,1.356,0,0,1,.35.047A2.751,2.751,0,0,1,3.191,1a.374.374,0,0,1,.09.243v.062A2.383,2.383,0,0,1,2.974,2.7a1.32,1.32,0,0,1-.928.565A1.425,1.425,0,0,1,1.85,3.281ZM1.537.745A.533.533,0,0,0,1.325.79,1.221,1.221,0,0,0,.861,1.2a.474.474,0,0,0-.114.274.413.413,0,0,0,.087.22,2.155,2.155,0,0,0,.287.32l.055.053,0,0,.028.027.013.013c.088.082.2.189.287.29a.451.451,0,0,0,.34.133.725.725,0,0,0,.093-.006.586.586,0,0,0,.4-.224,1.568,1.568,0,0,0,.193-.921A1.943,1.943,0,0,0,1.7.767.61.61,0,0,0,1.537.745Z" transform="translate(37.779 6335.741)"/>
    <path id="Shape-105" data-name="Shape" d="M1.669,3.281a1.547,1.547,0,0,1-.382-.048A1.237,1.237,0,0,1,.41,2.489c-.037-.1-.082-.2-.135-.315L.257,2.133v0C.242,2.1.229,2.07.216,2.04A2.762,2.762,0,0,1,.028,1.5,1.06,1.06,0,0,1,.075.852,1.176,1.176,0,0,1,.611.3,2.021,2.021,0,0,1,1.6,0a1.35,1.35,0,0,1,.823.274,2.68,2.68,0,0,1,.844,1.36.351.351,0,0,1-.013.252l-.025.057a2.341,2.341,0,0,1-.843,1.138A1.284,1.284,0,0,1,1.669,3.281ZM1.6.729a1.267,1.267,0,0,0-.6.2.466.466,0,0,0-.217.2.391.391,0,0,0-.007.232,2.2,2.2,0,0,0,.143.4l.023.052.019.043.006.013c.051.113.115.254.164.388a.484.484,0,0,0,.356.278.755.755,0,0,0,.185.023.52.52,0,0,0,.28-.07A1.544,1.544,0,0,0,2.5,1.727,1.893,1.893,0,0,0,1.954.849.568.568,0,0,0,1.6.729Z" transform="translate(41.06 6316.055)"/>
    <path id="Shape-106" data-name="Shape" d="M1.993,3.281a1.013,1.013,0,0,1-.337-.058c-.1-.036-.205-.064-.332-.1L1.242,3.1l-.059-.016a2.675,2.675,0,0,1-.545-.2A1.155,1.155,0,0,1,.146,2.42,1.38,1.38,0,0,1,.01,1.6,2.209,2.209,0,0,1,.345.574a1.275,1.275,0,0,1,.7-.514A1.593,1.593,0,0,1,1.492,0,3.228,3.228,0,0,1,2.628.25a.381.381,0,0,1,.2.178l.013.024.019.035v0A2.724,2.724,0,0,1,3.28,1.95a1.451,1.451,0,0,1-.514,1.025A1.2,1.2,0,0,1,1.993,3.281ZM1.782,1.189h0l-1.045.5a.548.548,0,0,0,.037.316.416.416,0,0,0,.183.159,2.058,2.058,0,0,0,.4.144l.023.006.018,0,.073.02c.135.035.277.073.406.119a.342.342,0,0,0,.112.018.5.5,0,0,0,.319-.134.647.647,0,0,0,.234-.423A1.788,1.788,0,0,0,2.255.96,2.362,2.362,0,0,0,1.493.8a.908.908,0,0,0-.258.034.529.529,0,0,0-.3.221,1.391,1.391,0,0,0-.193.634Z" transform="translate(44.752 6351.326)"/>
    <path id="Shape-107" data-name="Shape" d="M1.906,3.281A1.119,1.119,0,0,1,1.2,3.038c-.089-.07-.185-.136-.285-.205L.791,2.751a2.916,2.916,0,0,1-.454-.369,1.171,1.171,0,0,1-.318-.593,1.237,1.237,0,0,1,.13-.779A1.96,1.96,0,0,1,.791.215,1.248,1.248,0,0,1,1.5,0a.894.894,0,0,1,.121.005A2.72,2.72,0,0,1,3.061.735a.381.381,0,0,1,.13.228l.009.063v0a2.485,2.485,0,0,1-.06,1.451,1.318,1.318,0,0,1-.812.731A1.337,1.337,0,0,1,1.906,3.281ZM1.5.76a.519.519,0,0,0-.3.091,1.23,1.23,0,0,0-.384.5.5.5,0,0,0-.065.3.425.425,0,0,0,.123.205,2.236,2.236,0,0,0,.338.271l.1.067.048.033c.1.069.205.141.3.217a.4.4,0,0,0,.256.082.6.6,0,0,0,.19-.032.589.589,0,0,0,.356-.295,1.636,1.636,0,0,0,.03-.958,1.9,1.9,0,0,0-.932-.47c-.022,0-.043,0-.061,0Z" transform="translate(43.93 6331.64)"/>
    <path id="Shape-108" data-name="Shape" d="M1.2,3.281a1.018,1.018,0,0,1-.547-.148,1.23,1.23,0,0,1-.479-.628A2.159,2.159,0,0,1,.014,1.458,1.385,1.385,0,0,1,.4.66,2.6,2.6,0,0,1,1.851,0a.345.345,0,0,1,.062,0A.338.338,0,0,1,2.1.056c.016.009.034.021.053.034A2.417,2.417,0,0,1,3.165,1.116a1.471,1.471,0,0,1,.005,1.14,1.235,1.235,0,0,1-.853.782c-.113.025-.226.057-.331.089l-.075.022-.065.018a2.576,2.576,0,0,1-.56.111A.831.831,0,0,1,1.2,3.281ZM1.842.8h0A1.843,1.843,0,0,0,.9,1.22a.6.6,0,0,0-.167.345,1.359,1.359,0,0,0,.111.641.5.5,0,0,0,.172.252A.347.347,0,0,0,1.2,2.5h.041a2.068,2.068,0,0,0,.414-.086l.112-.033.019-.006h0c.119-.035.254-.075.379-.1h0a.477.477,0,0,0,.323-.32.653.653,0,0,0,.016-.481A1.577,1.577,0,0,0,1.842.8Z" transform="translate(36.958 6379.626)"/>
    <path id="Shape-109" data-name="Shape" d="M2.037,3.281A.982.982,0,0,1,1.9,3.271c-.1-.013-.205-.019-.342-.026H1.531c-.037,0-.075,0-.116-.005a2.54,2.54,0,0,1-.568-.086,1.085,1.085,0,0,1-.564-.369,1.414,1.414,0,0,1-.276-.8A2.4,2.4,0,0,1,.157.878a1.361,1.361,0,0,1,.6-.67A1.911,1.911,0,0,1,1.683,0a3.983,3.983,0,0,1,.651.059A.359.359,0,0,1,2.557.2L2.6.249a2.743,2.743,0,0,1,.67,1.388v0a1.58,1.58,0,0,1-.324,1.144A1.165,1.165,0,0,1,2.037,3.281ZM1.681.825a1.256,1.256,0,0,0-.6.123.564.564,0,0,0-.26.287,1.508,1.508,0,0,0-.08.685.584.584,0,0,0,.091.315.415.415,0,0,0,.205.12,1.871,1.871,0,0,0,.42.058l.107.006h.01c.13.007.281.015.418.033l.041,0a.471.471,0,0,0,.36-.211.7.7,0,0,0,.155-.478,1.815,1.815,0,0,0-.451-.91A3.093,3.093,0,0,0,1.681.825Z" transform="translate(27.526 6361.99)"/>
    <path id="Shape-110" data-name="Shape" d="M1.968,3.281a1.034,1.034,0,0,1-.447-.1c-.093-.044-.187-.082-.3-.123L1.2,3.047,1.064,3a2.784,2.784,0,0,1-.524-.256,1.162,1.162,0,0,1-.447-.514,1.335,1.335,0,0,1-.057-.816A2.113,2.113,0,0,1,.469.443,1.246,1.246,0,0,1,1.216.021,1.5,1.5,0,0,1,1.469,0,2.949,2.949,0,0,1,2.775.383a.386.386,0,0,1,.177.2l.013.031L2.978.64v0A2.666,2.666,0,0,1,3.26,2.119a1.4,1.4,0,0,1-.611.943A1.238,1.238,0,0,1,1.968,3.281ZM1.472.788A.8.8,0,0,0,1.332.8a.525.525,0,0,0-.325.181,1.324,1.324,0,0,0-.253.6.545.545,0,0,0,.007.315.422.422,0,0,0,.167.175,2.015,2.015,0,0,0,.388.187c.031.013.066.026.1.038l.013,0,.036.014c.107.041.24.093.358.148a.355.355,0,0,0,.152.033.526.526,0,0,0,.287-.1.611.611,0,0,0,.273-.388,1.752,1.752,0,0,0-.194-.972A2.133,2.133,0,0,0,1.472.788Z" transform="translate(23.424 6340.253)"/>
    <path id="Shape-111" data-name="Shape" d="M1.891,3.281A1.138,1.138,0,0,1,1.128,3c-.086-.076-.182-.149-.275-.219L.8,2.741.736,2.694A3.043,3.043,0,0,1,.3,2.3,1.148,1.148,0,0,1,.01,1.7,1.223,1.223,0,0,1,.179.932,1.932,1.932,0,0,1,.864.178,1.248,1.248,0,0,1,1.51,0,1.387,1.387,0,0,1,1.7.014a2.74,2.74,0,0,1,1.407.8.379.379,0,0,1,.118.234l.008.063A2.446,2.446,0,0,1,3.1,2.55a1.312,1.312,0,0,1-.85.682A1.362,1.362,0,0,1,1.891,3.281ZM1.507.755a.518.518,0,0,0-.27.075,1.221,1.221,0,0,0-.41.473.492.492,0,0,0-.082.29.419.419,0,0,0,.113.21,2.267,2.267,0,0,0,.324.287c.032.025.066.051.1.072.1.077.228.172.335.267a.413.413,0,0,0,.277.1A.634.634,0,0,0,2.057,2.5a.582.582,0,0,0,.369-.273,1.612,1.612,0,0,0,.08-.949A1.917,1.917,0,0,0,1.6.762.639.639,0,0,0,1.507.755Z" transform="translate(25.063 6319.336)"/>
    <path id="Shape-112" data-name="Shape" d="M1.761,3.281H1.714A1.226,1.226,0,0,1,.707,2.739c-.059-.092-.128-.185-.2-.282L.419,2.341a2.858,2.858,0,0,1-.3-.492,1.1,1.1,0,0,1-.1-.646A1.173,1.173,0,0,1,.4.538a1.941,1.941,0,0,1,.872-.5,1.292,1.292,0,0,1,.848.091A2.73,2.73,0,0,1,3.23,1.276a.369.369,0,0,1,.046.251l-.005.031-.006.031a2.334,2.334,0,0,1-.542,1.3h0A1.312,1.312,0,0,1,1.761,3.281ZM1.559.736A.574.574,0,0,0,1.433.75,1.209,1.209,0,0,0,.9,1.072a.467.467,0,0,0-.16.246.407.407,0,0,0,.047.23,2.174,2.174,0,0,0,.228.36c.014.019.028.039.041.059l0,.007L1.087,2l.019.025c.069.093.155.208.226.32a.478.478,0,0,0,.4.2h.03A.566.566,0,0,0,2.17,2.4a1.543,1.543,0,0,0,.349-.861A1.935,1.935,0,0,0,1.8.79.58.58,0,0,0,1.559.736Z" transform="translate(34.908 6299.649)"/>
    <path id="Shape-113" data-name="Shape" d="M1.223,3.281A.976.976,0,0,1,.8,3.189a1.189,1.189,0,0,1-.538-.558,2.041,2.041,0,0,1-.262-1A1.353,1.353,0,0,1,.3.812a2.654,2.654,0,0,1,1.386-.8A.348.348,0,0,1,1.786,0,.355.355,0,0,1,1.94.035L2,.063A2.329,2.329,0,0,1,3.1.952,1.4,1.4,0,0,1,3.22,2.06a1.24,1.24,0,0,1-.773.855c-.1.034-.2.074-.321.123l-.067.027-.067.027a2.641,2.641,0,0,1-.547.169,1.335,1.335,0,0,1-.223.021ZM1.756.789A1.88,1.88,0,0,0,.861,1.3a.577.577,0,0,0-.132.354A1.3,1.3,0,0,0,.9,2.267a.476.476,0,0,0,.2.226.3.3,0,0,0,.128.024.626.626,0,0,0,.1-.009,2.026,2.026,0,0,0,.4-.129l.016-.006.064-.026.028-.012.019-.008c.11-.045.246-.1.374-.142a.482.482,0,0,0,.29-.347.625.625,0,0,0-.031-.469A1.547,1.547,0,0,0,1.754.79Z" transform="translate(40.24 6400.133)"/>
    <path id="Shape-114" data-name="Shape" d="M2.039,3.281a.984.984,0,0,1-.112-.007c-.115-.013-.233-.017-.342-.02l-.087,0H1.44a2.48,2.48,0,0,1-.568-.073A1.086,1.086,0,0,1,.3,2.818a1.415,1.415,0,0,1-.287-.8A2.4,2.4,0,0,1,.144.909,1.362,1.362,0,0,1,.729.228,1.951,1.951,0,0,1,1.715,0a4,4,0,0,1,.593.048A.349.349,0,0,1,2.532.18l.021.026.021.027h0a2.736,2.736,0,0,1,.691,1.378,1.589,1.589,0,0,1-.306,1.154A1.167,1.167,0,0,1,2.039,3.281ZM1.711.827a1.3,1.3,0,0,0-.65.137.566.566,0,0,0-.256.293,1.524,1.524,0,0,0-.066.687.568.568,0,0,0,.1.312.4.4,0,0,0,.208.117,1.979,1.979,0,0,0,.421.05l.069,0,.048,0c.131,0,.283.008.419.025h.034a.472.472,0,0,0,.364-.22.707.707,0,0,0,.147-.482,1.8,1.8,0,0,0-.464-.9A3.245,3.245,0,0,0,1.713.827Z" transform="translate(19.323 6373.884)"/>
    <path id="Shape-115" data-name="Shape" d="M1.654,3.281a1.577,1.577,0,0,1-.433-.061,1.238,1.238,0,0,1-.856-.773c-.032-.1-.071-.191-.116-.3L.243,2.127.207,2.038.189,1.993a2.711,2.711,0,0,1-.169-.546A1.057,1.057,0,0,1,.091.8,1.192,1.192,0,0,1,.649.263,2.111,2.111,0,0,1,1.608,0h.041a1.36,1.36,0,0,1,.82.3,2.652,2.652,0,0,1,.8,1.386.348.348,0,0,1-.022.252l-.01.021L3.218,2V2a2.338,2.338,0,0,1-.889,1.1h0A1.29,1.29,0,0,1,1.654,3.281ZM1.6.728A1.333,1.333,0,0,0,1.013.9a.478.478,0,0,0-.225.2.389.389,0,0,0-.015.231,2.033,2.033,0,0,0,.129.4c.013.033.027.068.041.1l0,.006c.053.127.107.262.15.392a.485.485,0,0,0,.347.291.742.742,0,0,0,.208.03.515.515,0,0,0,.262-.062,1.539,1.539,0,0,0,.578-.735,1.878,1.878,0,0,0-.511-.9A.574.574,0,0,0,1.625.729Z" transform="translate(28.346 6282.013)"/>
  </g>
</svg>
