<svg xmlns="http://www.w3.org/2000/svg" width="143.136" height="105.055" viewBox="0 0 143.136 105.055">
  <g id="Group_1391" data-name="Group 1391" transform="translate(-106.179 -2149.455)">
    <path id="Shape" d="M.549,43.893c-.87-6.68-.516-16.055-.229-21.03a17.359,17.359,0,0,1,1.3-6.579C6.195,6.906,21.7,2,29.933,2c27.7,0,42.9-4.509,70.554,0,6.84,1.116,19.386,5.159,23.439,15.707,11.709,30.475-2.806,41.371-20,46.606-9.787,2.98-19.5-2.98-29.443-2.98-13.647,0-27.322.516-40.936-.794-6.694-.643-13.858-.52-20.453-2.025C5.888,56.872,1.885,54.129.549,43.893Z" transform="translate(106.179 2193.288) rotate(-20)" fill="#b6418f" opacity="0.45"/>
    <path id="Shape-2" data-name="Shape" d="M2.106,4.04a1.944,1.944,0,0,1-.519-.076,2.513,2.513,0,0,1-1.132-.61A1.53,1.53,0,0,1,.008,2.4,3.225,3.225,0,0,1,.591.511a.474.474,0,0,1,.253-.2L.883.295.921.282h0A3.858,3.858,0,0,1,2.228,0a2.58,2.58,0,0,1,.513.051h0A1.667,1.667,0,0,1,3.833.879a1.419,1.419,0,0,1,.04,1.4c-.069.127-.132.261-.19.386-.025.058-.051.109-.077.163a3.464,3.464,0,0,1-.357.624,1.461,1.461,0,0,1-.665.508,1.386,1.386,0,0,1-.478.082ZM2.227.909a2.77,2.77,0,0,0-.884.195,2.278,2.278,0,0,0-.38,1.219.657.657,0,0,0,.192.414,1.61,1.61,0,0,0,.707.361.9.9,0,0,0,.242.039.41.41,0,0,0,.139-.023.527.527,0,0,0,.228-.19,2.7,2.7,0,0,0,.261-.465l.018-.038.006-.013L2.762,2.4c.011-.022.021-.044.032-.069.075-.164.152-.323.232-.472a.552.552,0,0,0-.038-.546A.73.73,0,0,0,2.543.941,1.621,1.621,0,0,0,2.227.909Z" transform="translate(194.774 2207.697)"/>
    <path id="Shape-3" data-name="Shape" d="M2.1,4.04a1.932,1.932,0,0,1-.516-.075A2.507,2.507,0,0,1,.455,3.354,1.52,1.52,0,0,1,.008,2.4,3.206,3.206,0,0,1,.589.511a.467.467,0,0,1,.253-.2L.909.285l.01,0,.012,0A3.875,3.875,0,0,1,2.228,0a2.6,2.6,0,0,1,.515.051A1.677,1.677,0,0,1,3.835.879a1.406,1.406,0,0,1,.038,1.4c-.059.106-.11.216-.17.343l-.02.043-.075.163a3.512,3.512,0,0,1-.359.624,1.443,1.443,0,0,1-.666.508,1.419,1.419,0,0,1-.48.081ZM2.225.907a2.731,2.731,0,0,0-.884.2A2.264,2.264,0,0,0,.963,2.32a.657.657,0,0,0,.19.416,1.608,1.608,0,0,0,.707.359.918.918,0,0,0,.244.039.418.418,0,0,0,.138-.021.547.547,0,0,0,.228-.19,2.643,2.643,0,0,0,.261-.465l.021-.043.04-.091.032-.069,0-.01c.062-.131.125-.266.194-.392a.556.556,0,0,0-.036-.548A.743.743,0,0,0,2.539.939,1.569,1.569,0,0,0,2.225.907Z" transform="translate(206.896 2217.293)"/>
    <path id="Shape-4" data-name="Shape" d="M1.856,4.04a1.5,1.5,0,0,1-.831-.276,2.374,2.374,0,0,1-.862-.907A1.575,1.575,0,0,1,.038,1.811,3.375,3.375,0,0,1,1.135.147.46.46,0,0,1,1.429.021a.584.584,0,0,0,.078,0C1.658.009,1.814,0,1.97,0A2.537,2.537,0,0,1,3.247.3a1.622,1.622,0,0,1,.758,1.1,1.5,1.5,0,0,1-.38,1.364c-.092.093-.178.191-.277.306l-.013.015c-.038.046-.079.092-.118.136a3.6,3.6,0,0,1-.515.505,1.41,1.41,0,0,1-.762.3A.522.522,0,0,1,1.856,4.04ZM1.978.919c-.116,0-.236.005-.328.01A2.392,2.392,0,0,0,.94,2a.677.677,0,0,0,.051.455A1.532,1.532,0,0,0,1.533,3a.632.632,0,0,0,.331.126h.017A.533.533,0,0,0,2.146,3a2.6,2.6,0,0,0,.379-.377c.031-.035.063-.071.1-.11v0c.095-.111.225-.262.35-.388h0A.582.582,0,0,0,3.1,1.586a.716.716,0,0,0-.3-.479A1.577,1.577,0,0,0,1.978.919Z" transform="translate(168.512 2201.636)"/>
    <path id="Shape-5" data-name="Shape" d="M2.056,4.04A2.2,2.2,0,0,1,1.608,4a1.729,1.729,0,0,1-.96-.548A3.12,3.12,0,0,1,0,1.595a.415.415,0,0,1,.09-.3c.013-.014.024-.029.035-.043l.016-.018A3.057,3.057,0,0,1,1.55.094,1.639,1.639,0,0,1,2.108,0,2.037,2.037,0,0,1,2.98.2a1.5,1.5,0,0,1,.88,1.124c.016.13.04.26.073.416.007.037.014.074.022.113l.012.061a3.093,3.093,0,0,1,.074.7,1.278,1.278,0,0,1-.256.764,1.6,1.6,0,0,1-.843.525,3.248,3.248,0,0,1-.886.136ZM2.109.9a.571.571,0,0,0-.191.03A2.016,2.016,0,0,0,1,1.684a2.215,2.215,0,0,0,.418,1.2.736.736,0,0,0,.415.24,1.1,1.1,0,0,0,.226.022,2.191,2.191,0,0,0,.589-.095L1,1.686,2.646,3.049a.637.637,0,0,0,.334-.187.487.487,0,0,0,.079-.276A2.434,2.434,0,0,0,3,2.071L2.984,2l-.011-.051,0-.018V1.919c-.031-.156-.066-.333-.086-.5A.578.578,0,0,0,2.52.992.957.957,0,0,0,2.109.9Z" transform="translate(244.27 2193.556)"/>
    <path id="Shape-6" data-name="Shape" d="M2.236,4.04a2.844,2.844,0,0,1-1.3-.269,1.621,1.621,0,0,1-.758-.782,3.011,3.011,0,0,1-.03-1.958A.458.458,0,0,1,.333.771L.37.745.4.724A3.39,3.39,0,0,1,2.156.006h0A.776.776,0,0,1,2.273,0,1.935,1.935,0,0,1,3.52.491a1.4,1.4,0,0,1,.493,1.318c-.025.128-.042.256-.063.4v.015c0,.036-.009.072-.013.11,0,.022-.006.044-.009.067a3.186,3.186,0,0,1-.162.691,1.364,1.364,0,0,1-.5.665,1.75,1.75,0,0,1-1,.279ZM2.273.9H2.241a2.248,2.248,0,0,0-1.152.483,2.133,2.133,0,0,0,.016,1.263.692.692,0,0,0,.326.343,1.786,1.786,0,0,0,.795.148h.03a.7.7,0,0,0,.388-.089.513.513,0,0,0,.167-.245,2.424,2.424,0,0,0,.111-.515V2.282c.006-.042.011-.086.018-.13.021-.169.045-.348.079-.512a.538.538,0,0,0-.216-.51A.859.859,0,0,0,2.273.9Z" transform="translate(220.532 2204.161)"/>
    <path id="Shape-7" data-name="Shape" d="M1.768,4.04H1.727a1.452,1.452,0,0,1-.876-.369A2.374,2.374,0,0,1,.1,2.684,1.581,1.581,0,0,1,.082,1.633,3.389,3.389,0,0,1,1.336.094.457.457,0,0,1,1.616,0h.023a.607.607,0,0,1,.079,0h.009A2.9,2.9,0,0,1,3.4.468h0a1.619,1.619,0,0,1,.63,1.176,1.509,1.509,0,0,1-.517,1.313c-.1.082-.193.17-.3.272L3.2,3.244c-.026.025-.051.051-.08.077l-.051.047a3.661,3.661,0,0,1-.561.444,1.4,1.4,0,0,1-.739.227ZM1.762.923h0L1.431,2.967a.585.585,0,0,0,.329.157h.015a.522.522,0,0,0,.261-.092A2.73,2.73,0,0,0,2.447,2.7l.019-.018L2.52,2.63,2.553,2.6l.023-.023c.112-.106.238-.225.361-.325h0a.587.587,0,0,0,.183-.521.718.718,0,0,0-.246-.505,1.911,1.911,0,0,0-1.112-.3Zm0,0a2.374,2.374,0,0,0-.811.99.669.669,0,0,0,.006.455,1.5,1.5,0,0,0,.474.6L1.762.922Z" transform="translate(167.501 2214.768)"/>
    <path id="Shape-8" data-name="Shape" d="M1.506,4.04a1.207,1.207,0,0,1-.521-.113A1.465,1.465,0,0,1,.322,3.24,2.512,2.512,0,0,1,0,2.007,1.659,1.659,0,0,1,.372,1,3.266,3.266,0,0,1,2.078.017.437.437,0,0,1,2.2,0a.431.431,0,0,1,.189.043L2.4.051l.057.028A2.874,2.874,0,0,1,3.82,1.174h0a1.724,1.724,0,0,1,.141,1.361,1.521,1.521,0,0,1-.949,1.055c-.122.04-.241.088-.394.152l-.062.025-.1.041a3.247,3.247,0,0,1-.673.209,1.634,1.634,0,0,1-.276.026ZM2.163.971a2.3,2.3,0,0,0-1.1.631A.7.7,0,0,0,.9,2.038a1.6,1.6,0,0,0,.216.754.586.586,0,0,0,.24.278.371.371,0,0,0,.158.03.773.773,0,0,0,.127-.012,2.537,2.537,0,0,0,.5-.159l.038-.017.043-.018.051-.021c.141-.058.318-.131.482-.184a.6.6,0,0,0,.359-.427.773.773,0,0,0-.038-.578A1.911,1.911,0,0,0,2.159.971Z" transform="translate(131.138 2195.576)"/>
    <path id="Shape-9" data-name="Shape" d="M2.142,4.04a2.7,2.7,0,0,1-1.023-.178,1.674,1.674,0,0,1-.839-.72A2.98,2.98,0,0,1,.058,1.2.437.437,0,0,1,.223.922L.252.9.284.87l.006,0A3.387,3.387,0,0,1,1.983.018,1.7,1.7,0,0,1,2.231,0,2.02,2.02,0,0,1,3.4.4a1.425,1.425,0,0,1,.628,1.27c-.013.12-.018.239-.023.377v.044c0,.037,0,.073,0,.111v.067a3.048,3.048,0,0,1-.089.7,1.336,1.336,0,0,1-.442.7,1.738,1.738,0,0,1-.978.357A3.477,3.477,0,0,1,2.142,4.04ZM2.231.9a.47.47,0,0,0-.074.006,2.239,2.239,0,0,0-1.111.571,2.1,2.1,0,0,0,.14,1.255.723.723,0,0,0,.363.315,1.588,1.588,0,0,0,.587.094c.084,0,.171,0,.259-.012a.7.7,0,0,0,.382-.119.469.469,0,0,0,.144-.256,2.424,2.424,0,0,0,.063-.518c0-.038,0-.078,0-.115v-.03c0-.16.011-.346.03-.515a.556.556,0,0,0-.267-.489A.923.923,0,0,0,2.231.9Z" transform="translate(245.28 2207.697)"/>
  </g>
</svg>
