<svg id="share" xmlns="http://www.w3.org/2000/svg" width="21.667" height="23.637" viewBox="0 0 21.667 23.637">
  <path id="Path_3704" data-name="Path 3704" d="M313.025,7.387a3.693,3.693,0,1,1,3.693-3.693A3.7,3.7,0,0,1,313.025,7.387Zm0-5.909a2.216,2.216,0,1,0,2.216,2.216A2.219,2.219,0,0,0,313.025,1.477Zm0,0" transform="translate(-295.051)" fill="#fff"/>
  <path id="Path_3705" data-name="Path 3705" d="M313.025,359.387a3.693,3.693,0,1,1,3.693-3.693A3.7,3.7,0,0,1,313.025,359.387Zm0-5.909a2.216,2.216,0,1,0,2.216,2.216A2.219,2.219,0,0,0,313.025,353.477Zm0,0" transform="translate(-295.051 -335.749)" fill="#fff"/>
  <path id="Path_3706" data-name="Path 3706" d="M3.693,183.387a3.693,3.693,0,1,1,3.693-3.693A3.7,3.7,0,0,1,3.693,183.387Zm0-5.909a2.216,2.216,0,1,0,2.216,2.216A2.219,2.219,0,0,0,3.693,177.477Zm0,0" transform="translate(0 -167.875)" fill="#fff"/>
  <path id="Path_3707" data-name="Path 3707" d="M120.429,102.247a.738.738,0,0,1-.366-1.38l9.139-5.21a.738.738,0,0,1,.731,1.283l-9.139,5.21a.74.74,0,0,1-.364.1Zm0,0" transform="translate(-114.164 -91.148)" fill="#fff"/>
  <path id="Path_3708" data-name="Path 3708" d="M129.587,278.237a.732.732,0,0,1-.364-.1l-9.139-5.21a.738.738,0,0,1,.731-1.283l9.139,5.21a.739.739,0,0,1-.366,1.381Zm0,0" transform="translate(-114.184 -259.012)" fill="#fff"/>
</svg>
