<svg xmlns="http://www.w3.org/2000/svg" width="39.997" height="58.492" viewBox="0 0 39.997 58.492">
  <g id="skills" transform="translate(-40.903 -0.63)">
    <path id="Path_10847" data-name="Path 10847" d="M44.9,218.369v-7.2a1.253,1.253,0,0,1,1.335-1.148H80.568a5.761,5.761,0,0,1,0,9.494H46.238A1.252,1.252,0,0,1,44.9,218.369Z" transform="translate(-3.082 -161.314)" fill="#b6418f"/>
    <path id="Path_10848" data-name="Path 10848" d="M81.489,133.873V122.311H76.952l-.011-.03-.011.03H72.364v11.547A2.582,2.582,0,0,1,70.922,136L62.1,141.186c-.806.474-.315,1.375.75,1.375H91.018c1.066,0,1.556-.9.748-1.376l-8.826-5.161A2.586,2.586,0,0,1,81.489,133.873Z" transform="translate(-16.023 -93.718)" fill="#f9d335"/>
    <path id="Path_10849" data-name="Path 10849" d="M128.034,122.28l.009.03h-.021Z" transform="translate(-67.116 -93.718)" fill="#f2c300"/>
    <path id="Path_10850" data-name="Path 10850" d="M145.846,142.66H142.4c1.068,0,1.557-.9.749-1.375l-8.826-5.162a2.581,2.581,0,0,1-1.449-2.149l0-11.563h3.444l0,11.563a2.581,2.581,0,0,0,1.449,2.149l8.826,5.162C147.4,141.757,146.914,142.66,145.846,142.66Z" transform="translate(-70.852 -93.818)" fill="#f2c300"/>
    <path id="Path_10851" data-name="Path 10851" d="M113.044,122.31h-.021l.011-.03Z" transform="translate(-55.56 -93.718)" fill="#f2c300"/>
    <path id="Path_10852" data-name="Path 10852" d="M72.364,122.41h3.444v11.547a2.578,2.578,0,0,1-1.442,2.145l-8.817,5.182c-.808.475-.315,1.375.749,1.375H62.854c-1.063,0-1.557-.9-.749-1.375l8.817-5.182a2.578,2.578,0,0,0,1.442-2.145Z" transform="translate(-16.024 -93.818)" fill="#f9e27d"/>
    <path id="Path_10853" data-name="Path 10853" d="M128.044,122.31h-.021l.011-.03Z" transform="translate(-67.116 -93.718)" fill="#f9e27d"/>
    <path id="Path_10854" data-name="Path 10854" d="M143.044,122.31h-.021l.011-.03Z" transform="translate(-78.672 -93.718)" fill="#f9e27d"/>
    <path id="Path_10855" data-name="Path 10855" d="M56.037,80.127H51.111a5.74,5.74,0,0,1-5.74-5.74V71.07a5.74,5.74,0,0,1,5.74-5.74h4.925Z" transform="translate(-3.442 -49.844)" fill="#f9d335"/>
    <path id="Path_10856" data-name="Path 10856" d="M169.11,80.255h-4.925v-14.8h4.925a5.74,5.74,0,0,1,5.74,5.74v3.317A5.74,5.74,0,0,1,169.11,80.255Z" transform="translate(-94.975 -49.942)" fill="#f9d335"/>
    <path id="Path_10857" data-name="Path 10857" d="M179.817,71.2v3.316a5.739,5.739,0,0,1-5.74,5.74h-3.444a5.739,5.739,0,0,0,5.74-5.74V71.2a5.739,5.739,0,0,0-5.74-5.74h3.444a5.739,5.739,0,0,1,5.74,5.74Z" transform="translate(-99.942 -49.944)" fill="#f2c300"/>
    <path id="Path_10858" data-name="Path 10858" d="M54.558,80.129H51.113a5.741,5.741,0,0,1-5.74-5.74V71.07a5.739,5.739,0,0,1,5.74-5.74h3.444a5.739,5.739,0,0,0-5.74,5.74v3.318A5.741,5.741,0,0,0,54.558,80.129Z" transform="translate(-3.444 -49.844)" fill="#f9e27d"/>
    <path id="Path_10859" data-name="Path 10859" d="M89.037,73.511H81.665a9.042,9.042,0,0,1-9.042-9.042V54.379a2.3,2.3,0,0,1,2.3-2.3H95.783a2.3,2.3,0,0,1,2.3,2.3V64.469A9.042,9.042,0,0,1,89.037,73.511Z" transform="translate(-24.437 -39.639)" fill="#f9d335"/>
    <path id="Path_10860" data-name="Path 10860" d="M141.6,54.376V64.465a9.043,9.043,0,0,1-9.042,9.042h-3.444a9.043,9.043,0,0,0,9.042-9.042V54.376a2.3,2.3,0,0,0-2.3-2.3H139.3a2.3,2.3,0,0,1,2.3,2.3Z" transform="translate(-67.956 -39.636)" fill="#f2c300"/>
    <path id="Path_10861" data-name="Path 10861" d="M85.109,73.507H81.665a9.042,9.042,0,0,1-9.042-9.042V54.376a2.3,2.3,0,0,1,2.3-2.3h3.444a2.3,2.3,0,0,0-2.3,2.3V64.465A9.042,9.042,0,0,0,85.109,73.507Z" transform="translate(-24.437 -39.636)" fill="#f9e27d"/>
    <path id="Path_10872" data-name="Path 10872" d="M8.44,0A8.44,8.44,0,1,1,0,8.44,8.44,8.44,0,0,1,8.44,0Z" transform="translate(52.472 1.548)" fill="#b6418f"/>
    <path id="Path_10862" data-name="Path 10862" d="M114.3,22.5l.977,1.979a.334.334,0,0,0,.251.183l2.184.317a.459.459,0,0,1,.254.783l-1.581,1.541a.334.334,0,0,0-.1.3l.373,2.175a.459.459,0,0,1-.666.484l-1.954-1.027a.334.334,0,0,0-.31,0l-1.954,1.027a.459.459,0,0,1-.666-.484l.373-2.175a.333.333,0,0,0-.1-.3l-1.581-1.541a.459.459,0,0,1,.254-.783l2.184-.317a.334.334,0,0,0,.251-.183l.977-1.979A.46.46,0,0,1,114.3,22.5Z" transform="translate(-52.98 -16.655)" fill="#f9d335"/>
    <path id="Path_10863" data-name="Path 10863" d="M113.26,25.768l1.58,1.541a.333.333,0,0,1,.1.3l-.328,1.924-.558-.292a.336.336,0,0,0-.31,0l-1.954,1.026a.459.459,0,0,1-.666-.484l.372-2.174a.333.333,0,0,0-.1-.3l-1.58-1.541a.459.459,0,0,1,.255-.783l2.184-.317a.334.334,0,0,0,.25-.184l.978-1.979a.461.461,0,0,1,.824,0l.976,1.979a.334.334,0,0,0,.25.184l.083.011-2.1.305a.459.459,0,0,0-.255.783Z" transform="translate(-52.982 -16.656)" fill="#f9e27d"/>
    <path id="Path_10864" data-name="Path 10864" d="M130.706,13.068a8.441,8.441,0,0,1-8.441,8.441,8.346,8.346,0,0,1-1.722-.177,8.44,8.44,0,0,0,0-16.525,8.346,8.346,0,0,1,1.722-.177A8.439,8.439,0,0,1,130.706,13.068Z" transform="translate(-61.354 -3.082)" fill="#ea2a6a"/>
    <path id="Path_10865" data-name="Path 10865" d="M101.453,21.332a8.346,8.346,0,0,1-1.722.177,8.439,8.439,0,0,1,0-16.879,8.346,8.346,0,0,1,1.722.177,8.441,8.441,0,0,0,0,16.525Z" transform="translate(-38.82 -3.082)" fill="#f973a3"/>
    <path id="Path_10866" data-name="Path 10866" d="M191.173,214.766a5.686,5.686,0,0,1-2.5,4.748h-3.444a5.763,5.763,0,0,0,0-9.494h3.444A5.685,5.685,0,0,1,191.173,214.766Z" transform="translate(-111.19 -161.311)" fill="#ea2a6a"/>
    <path id="Path_10867" data-name="Path 10867" d="M49.684,219.514H46.239a1.252,1.252,0,0,1-1.336-1.148v-7.2a1.252,1.252,0,0,1,1.336-1.148h3.444a1.252,1.252,0,0,0-1.336,1.148v7.2A1.252,1.252,0,0,0,49.684,219.514Z" transform="translate(-3.082 -161.311)" fill="#f973a3"/>
    <g id="Group_1318" data-name="Group 1318" transform="translate(40.903 0.63)">
      <path id="Path_10868" data-name="Path 10868" d="M78,47.949a.911.911,0,0,0-.512-.158h-.45a1.664,1.664,0,0,0-.831-1.116L67.38,41.513a1.711,1.711,0,0,1-.994-1.357V34.629a9.958,9.958,0,0,0,5.841-3.4h1.908a6.667,6.667,0,0,0,6.659-6.659V21.256a6.663,6.663,0,0,0-6.236-6.643,3.214,3.214,0,0,0-3.21-3.088h-1.2a9.358,9.358,0,1,0-18.463,0h-1.2a3.218,3.218,0,0,0-3.21,3.056,6.664,6.664,0,0,0-6.262,6.645v3.318A6.667,6.667,0,0,0,47.67,31.2h1.91a9.957,9.957,0,0,0,5.841,3.421v5.515a1.708,1.708,0,0,1-.987,1.355l-8.819,5.182a1.658,1.658,0,0,0-.829,1.114H43.158A2.169,2.169,0,0,0,40.9,49.857v7.2a2.167,2.167,0,0,0,2.255,2.067H77.487A.928.928,0,0,0,78,58.965,6.682,6.682,0,0,0,78,47.949ZM43.158,57.285c-.259,0-.418-.147-.418-.23v-2.68h19.3a.918.918,0,0,0,0-1.837H42.74V49.857c0-.08.158-.23.418-.23H77.191a4.847,4.847,0,0,1,0,7.658Zm14.1-17.145V34.79h7.288l0,5.366a3.467,3.467,0,0,0,1.9,2.941l8.027,4.693H47.344l8.02-4.714A3.462,3.462,0,0,0,57.258,40.139ZM49.1,24.829c0-10.828-.007-10.1.011-10.261a1.377,1.377,0,0,1,1.366-1.205h1.7a9.358,9.358,0,0,0,17.457,0h1.706A1.383,1.383,0,0,1,72.718,14.6c.012.119.007,10.112.007,10.232a8.123,8.123,0,0,1-8.179,8.124H57.228a7.972,7.972,0,0,1-1.807-.2A8.131,8.131,0,0,1,49.1,24.829ZM47.67,29.366a4.829,4.829,0,0,1-4.822-4.822V21.226a4.825,4.825,0,0,1,4.42-4.8v8.406a9.893,9.893,0,0,0,1.1,4.537ZM53.392,9.987a7.521,7.521,0,1,1,7.52,7.522,7.528,7.528,0,0,1-7.52-7.522ZM78.957,24.572a4.827,4.827,0,0,1-4.822,4.822h-.682a9.916,9.916,0,0,0,1.109-4.565V16.455a4.827,4.827,0,0,1,4.395,4.8Z" transform="translate(-40.903 -0.63)" fill="#4d2c76"/>
      <path id="Path_10869" data-name="Path 10869" d="M107.452,24.673a9.862,9.862,0,0,0-.333,2.266A1.379,1.379,0,0,0,109.13,28l1.681-.884,1.683.884a1.379,1.379,0,0,0,2.009-1.059,9.811,9.811,0,0,0-.333-2.266l1.362-1.325A1.38,1.38,0,0,0,114.767,21l-1.881-.273-.84-1.7a1.379,1.379,0,0,0-2.471,0l-.84,1.7L106.855,21a1.379,1.379,0,0,0-.762,2.351Zm2.794-2.861.565-1.143.565,1.143a1.257,1.257,0,0,0,.944.687l1.263.184-.914.891a1.248,1.248,0,0,0-.36,1.107c.093.532.045.256.216,1.258l-1.13-.592a1.248,1.248,0,0,0-1.166,0l-1.13.592c.174-1,.126-.727.216-1.256a1.244,1.244,0,0,0-.36-1.109l-.914-.891L109.3,22.5A1.253,1.253,0,0,0,110.246,21.812Z" transform="translate(-90.803 -14.207)" fill="#4d2c76"/>
      <path id="Path_10870" data-name="Path 10870" d="M112.561,127.592c.184.016.374.028.567.034a.919.919,0,0,0,.064-1.837c-.163,0-.319-.014-.473-.028a.918.918,0,1,0-.158,1.83Z" transform="translate(-95.457 -97.026)" fill="#4d2c76"/>
      <path id="Path_10871" data-name="Path 10871" d="M89.979,98a.423.423,0,0,0-.051-.039c-2.269-1.543-2.471-5.034-2.294-6.1a.919.919,0,0,0-1.825-.209c-.241,1.924.228,5.876,3.084,7.823A.918.918,0,0,0,89.979,98Z" transform="translate(-75.456 -70.135)" fill="#4d2c76"/>
    </g>
  </g>
</svg>
