<svg xmlns="http://www.w3.org/2000/svg" width="14.363" height="11.948" viewBox="0 0 14.363 11.948">
  <g id="twitter" transform="translate(-5.56 -6.768)">
    <path id="Path_10711" data-name="Path 10711" d="M123.6,135.5a5.676,5.676,0,0,1-.99.334,3.087,3.087,0,0,0,.815-1.3.162.162,0,0,0-.237-.189,5.713,5.713,0,0,1-1.514.625.383.383,0,0,1-.095.012.4.4,0,0,1-.265-.1,3.1,3.1,0,0,0-2.049-.773,3.309,3.309,0,0,0-.981.151,3,3,0,0,0-2.022,2.161,3.3,3.3,0,0,0-.073,1.14.111.111,0,0,1-.028.087.115.115,0,0,1-.086.039h-.011a8.119,8.119,0,0,1-5.581-2.982.162.162,0,0,0-.265.021,3.1,3.1,0,0,0,.5,3.764,2.775,2.775,0,0,1-.706-.274.162.162,0,0,0-.241.14,3.1,3.1,0,0,0,1.809,2.856h-.066a2.773,2.773,0,0,1-.522-.05.162.162,0,0,0-.185.208,3.1,3.1,0,0,0,2.452,2.111,5.714,5.714,0,0,1-3.2.972H109.7a.237.237,0,0,0-.232.179.245.245,0,0,0,.117.271,8.5,8.5,0,0,0,4.271,1.151,8.613,8.613,0,0,0,3.65-.774,8.059,8.059,0,0,0,2.67-2,8.772,8.772,0,0,0,1.635-2.739,8.651,8.651,0,0,0,.556-3V137.5a.527.527,0,0,1,.2-.41,6.123,6.123,0,0,0,1.231-1.351.162.162,0,0,0-.2-.238Z" transform="translate(-103.905 -127.346)" fill="#fff"/>
    <path id="Path_10712" data-name="Path 10712" d="M262.405,135.5a5.681,5.681,0,0,1-.99.334,3.087,3.087,0,0,0,.815-1.3.162.162,0,0,0-.237-.189,5.713,5.713,0,0,1-1.514.625.383.383,0,0,1-.095.012.4.4,0,0,1-.265-.1,3.1,3.1,0,0,0-2.049-.773,3.309,3.309,0,0,0-.981.151,3,3,0,0,0-1.666,1.3v10.07a8.023,8.023,0,0,0,3.562-2.351,8.772,8.772,0,0,0,1.635-2.739,8.652,8.652,0,0,0,.556-3V137.5a.527.527,0,0,1,.2-.41,6.122,6.122,0,0,0,1.231-1.351A.162.162,0,0,0,262.405,135.5Z" transform="translate(-242.71 -127.346)" fill="#d1d1d1"/>
  </g>
</svg>
