<svg xmlns="http://www.w3.org/2000/svg" width="277.345" height="34.157" viewBox="0 0 277.345 34.157"><g transform="translate(1.837 2.504)"><path d="M817-1120.713s19.547-21.174,37.518,0,43.012,0,43.012,0" transform="translate(-817 1131.067)" fill="none" stroke="#4d2c76" stroke-width="5"/><path d="M816.361-1120.552c6.2-4.594,20.006-21.707,37.976-.533s43.012,0,43.012,0" transform="translate(-752.304 1131.439)" fill="none" stroke="#4d2c76" stroke-width="5"/><path d="M816.361-1120.552c6.2-4.594,20.006-21.707,37.976-.533s43.012,0,43.012,0" transform="translate(-623.456 1131.439)" fill="none" stroke="#4d2c76" stroke-width="5"/><path d="M816.361-1120.552c6.2-4.594,20.006-21.707,37.976-.533s43.012,0,43.012,0" transform="translate(-687.88 1131.439)" fill="none" stroke="#4d2c76" stroke-width="5"/><g transform="translate(0 9.322)" opacity="0.06"><path d="M817-1120.713s19.547-21.174,37.518,0,43.012,0,43.012,0" transform="translate(-817 1131.067)" fill="none" stroke="#b6418f" stroke-width="5"/><path d="M816.361-1120.552c6.2-4.594,20.006-21.707,37.976-.533s43.012,0,43.012,0" transform="translate(-752.304 1131.439)" fill="none" stroke="#b6418f" stroke-width="5"/><path d="M816.361-1120.552c6.2-4.594,20.006-21.707,37.976-.533s43.012,0,43.012,0" transform="translate(-623.456 1131.439)" fill="none" stroke="#b6418f" stroke-width="5"/><path d="M816.361-1120.552c6.2-4.594,20.006-21.707,37.976-.533s43.012,0,43.012,0" transform="translate(-687.88 1131.439)" fill="none" stroke="#b6418f" stroke-width="5"/></g></g></svg>