<svg xmlns="http://www.w3.org/2000/svg" width="277.344" height="34.157" viewBox="0 0 277.344 34.157">
  <g id="Group_1231" data-name="Group 1231" transform="translate(1.837 2.504)">
    <g id="Group_964" data-name="Group 964">
      <path id="Path_4074" data-name="Path 4074" d="M817-1120.713s19.547-21.174,37.518,0,43.012,0,43.012,0" transform="translate(-817 1131.067)" fill="none" stroke="#fff" stroke-width="5"/>
      <path id="Path_4075" data-name="Path 4075" d="M816.361-1120.552c6.2-4.594,20.006-21.707,37.976-.533s43.012,0,43.012,0" transform="translate(-752.304 1131.439)" fill="none" stroke="#fff" stroke-width="5"/>
      <path id="Path_4075-2" data-name="Path 4075" d="M816.361-1120.552c6.2-4.594,20.006-21.707,37.976-.533s43.012,0,43.012,0" transform="translate(-623.456 1131.439)" fill="none" stroke="#fff" stroke-width="5"/>
      <path id="Path_4075-3" data-name="Path 4075" d="M816.361-1120.552c6.2-4.594,20.006-21.707,37.976-.533s43.012,0,43.012,0" transform="translate(-687.88 1131.439)" fill="none" stroke="#fff" stroke-width="5"/>
    </g>
    <g id="Group_965" data-name="Group 965" transform="translate(0 9.322)" opacity="0.06">
      <path id="Path_4074-2" data-name="Path 4074" d="M817-1120.713s19.547-21.174,37.518,0,43.012,0,43.012,0" transform="translate(-817 1131.067)" fill="none" stroke="#fff" stroke-width="5"/>
      <path id="Path_4075-4" data-name="Path 4075" d="M816.361-1120.552c6.2-4.594,20.006-21.707,37.976-.533s43.012,0,43.012,0" transform="translate(-752.304 1131.439)" fill="none" stroke="#fff" stroke-width="5"/>
      <path id="Path_4075-5" data-name="Path 4075" d="M816.361-1120.552c6.2-4.594,20.006-21.707,37.976-.533s43.012,0,43.012,0" transform="translate(-623.456 1131.439)" fill="none" stroke="#fff" stroke-width="5"/>
      <path id="Path_4075-6" data-name="Path 4075" d="M816.361-1120.552c6.2-4.594,20.006-21.707,37.976-.533s43.012,0,43.012,0" transform="translate(-687.88 1131.439)" fill="none" stroke="#fff" stroke-width="5"/>
    </g>
  </g>
</svg>
