<svg xmlns="http://www.w3.org/2000/svg" width="36.332" height="36.713" viewBox="0 0 36.332 36.713"><path d="M8.04,6H41.749a.809.809,0,0,1,.728.87V31.064a.809.809,0,0,1-.728.87H8.04a.809.809,0,0,1-.728-.87V6.873A.809.809,0,0,1,8.04,6Z" transform="translate(-6.729 -5.419)" fill="#b6418f" opacity="0.2"/><path d="M32.021,200.127v2.623a.67.67,0,0,1-.67.67H23.388a.67.67,0,0,1-.67-.67v-2.623a4.651,4.651,0,0,1,9.3,0Z" transform="translate(-19.89 -167.289)" fill="#fff"/><path d="M106.457,201.783v2.738a.67.67,0,0,1-.67.67H98.658a.67.67,0,0,1-.67-.67v-2.738a4.234,4.234,0,0,1,8.469,0Z" transform="translate(-84.195 -169.06)" fill="#ccc"/><path d="M180.256,199.79v2.778a.67.67,0,0,1-.67.67h-7.715a.67.67,0,0,1-.67-.67V199.79a4.527,4.527,0,0,1,9.054,0Z" transform="translate(-146.742 -167.108)" fill="#fff"/><path d="M47.64,80.474v4.089a.815.815,0,0,1-.749.869H36.314a.816.816,0,0,1-.749-.869V80.474a7.574,7.574,0,0,1,1.717-4.888A5.646,5.646,0,0,1,41.6,73.47a5.71,5.71,0,0,1,4.454,2.277A7.632,7.632,0,0,1,47.64,80.474Z" transform="translate(-30.866 -63.058)" fill="#ccc"/><path d="M154.9,44.38H144.4a.729.729,0,0,1-.728-.728v-10.5a.729.729,0,0,1,.728-.728h10.5a.729.729,0,0,1,.728.728v10.5A.728.728,0,0,1,154.9,44.38Z" transform="translate(-123.219 -27.986)" fill="#fff"/><path d="M231.6,6.871v24.19a.81.81,0,0,1-.728.871H228.69a.81.81,0,0,0,.728-.871V6.871A.81.81,0,0,0,228.69,6h2.185a.81.81,0,0,1,.728.871Z" transform="translate(-195.855 -5.417)" fill="#b6418f" opacity="0.7"/><path d="M10.224,31.933H8.038a.81.81,0,0,1-.728-.871V6.871A.81.81,0,0,1,8.038,6h2.185a.81.81,0,0,0-.728.871v24.19A.81.81,0,0,0,10.224,31.933Z" transform="translate(-6.727 -5.417)" fill="#ffefee"/><path d="M42.7,73.585a5.821,5.821,0,0,0-3.227,2,7.573,7.573,0,0,0-1.716,4.888v4.089a.816.816,0,0,0,.749.87H36.319a.816.816,0,0,1-.749-.87V80.473a7.573,7.573,0,0,1,1.716-4.888,5.649,5.649,0,0,1,4.32-2.115A5.217,5.217,0,0,1,42.7,73.585Z" transform="translate(-30.87 -63.058)" fill="#999"/><path d="M64.155,77.595c-.268.638-.656,1.56-1.279,3.051a1.392,1.392,0,0,1-2.713,0L58.88,77.58a3.557,3.557,0,0,0,2.64,1.12A3.664,3.664,0,0,0,64.155,77.595Z" transform="translate(-50.784 -66.569)" fill="#ffbb98"/><path d="M62.394,81.361c-.712.663-1.754.424-2.23-.715L58.88,77.58a3.51,3.51,0,0,0,2.207,1.1c.221.53.491,1.174.825,1.97A2.036,2.036,0,0,0,62.394,81.361Z" transform="translate(-50.784 -66.569)" fill="#ffcaa6"/><path d="M58.966,37.423a3.7,3.7,0,0,0-7.271.046,3.746,3.746,0,0,0,3.639,4.378A3.706,3.706,0,0,0,58.966,37.423Z" transform="translate(-44.599 -29.716)" fill="#ffbb98"/><path d="M70.516,41.845a3.747,3.747,0,0,1-1.106-.16,3.7,3.7,0,0,0,.013-7.08,3.66,3.66,0,0,1,1.093-.165,3.7,3.7,0,0,1,0,7.405Z" transform="translate(-59.78 -29.714)" fill="#ffaa80"/><path d="M56.414,41.685a3.637,3.637,0,0,1-1.08.16,3.745,3.745,0,0,1-3.639-4.378,3.7,3.7,0,0,1,3.639-3.027,3.66,3.66,0,0,1,1.093.165,3.7,3.7,0,0,0-2.547,2.863A3.815,3.815,0,0,0,56.414,41.685Z" transform="translate(-44.598 -29.714)" fill="#ffcaa6"/><path d="M43.345,24.423v.468h.925a1.781,1.781,0,0,0,1.562-.987l.518-.987.52.987a1.783,1.783,0,0,0,1.562.987h4.72v-.468a4.9,4.9,0,0,0-9.808,0Z" transform="translate(-37.512 -16.968)" fill="#87828e"/><path d="M75.515,24.424v.468H73.33v-.468a4.9,4.9,0,0,0-3.81-4.781,4.906,4.906,0,0,1,6,4.781Z" transform="translate(-59.874 -16.968)" fill="#796e84"/><path d="M49.339,19.642a4.9,4.9,0,0,0-3.813,4.687,1.725,1.725,0,0,1-1.26.562H43.34v-.468a4.91,4.91,0,0,1,6-4.781Z" transform="translate(-37.508 -16.968)" fill="#a4a4a5"/><path d="M52.884,200.13v2.622a.67.67,0,0,1-.67.67H50.029a.67.67,0,0,0,.67-.67V200.13a4.654,4.654,0,0,0-3.3-4.449c-.087-.026-.175-.051-.264-.071a4.577,4.577,0,0,1,1.093-.13,4.648,4.648,0,0,1,4.652,4.65Z" transform="translate(-40.754 -167.292)" fill="#ccc"/><path d="M28.463,195.61c-.089.02-.178.045-.265.071a4.657,4.657,0,0,0-3.293,4.449v2.622a.67.67,0,0,0,.669.67H23.389a.67.67,0,0,1-.669-.67V200.13a4.652,4.652,0,0,1,5.743-4.521Z" transform="translate(-19.892 -167.292)" fill="#ccc"/><path d="M29.758,136.325a3.888,3.888,0,0,0-1.771.425.763.763,0,0,0-.229-.667c-.39-.326-1.131-.083-1.655.543a1.711,1.711,0,0,0-.456,1.35,1.389,1.389,0,0,0-.606,1.292c0,.738.363,1.337.811,1.337h.11a3.512,3.512,0,1,0,6.782-.014,7.848,7.848,0,0,0,.924.013v-.373A3.907,3.907,0,0,0,29.758,136.325Z" transform="translate(-21.874 -116.424)" fill="#87828e"/><path d="M124.878,201.784v2.737a.67.67,0,0,1-.67.67h-2.185a.67.67,0,0,0,.67-.67v-2.737a4.238,4.238,0,0,0-3.143-4.091,4.237,4.237,0,0,1,5.328,4.091Z" transform="translate(-102.615 -169.061)" fill="#f5f5f5"/><path d="M100.175,201.784v2.737a.67.67,0,0,0,.67.67H98.66a.67.67,0,0,1-.67-.67v-2.737a4.236,4.236,0,0,1,5.326-4.091A4.238,4.238,0,0,0,100.175,201.784Z" transform="translate(-84.196 -169.061)" fill="#f5f5f5"/><path d="M104.579,154.9a3.836,3.836,0,0,1-3.836-3.836v-3.446a3.836,3.836,0,1,1,7.671,0v3.446A3.835,3.835,0,0,1,104.579,154.9Z" transform="translate(-86.548 -123.129)" fill="#87828e"/><path d="M200.391,199.787v2.778a.67.67,0,0,1-.67.67h-2.185a.67.67,0,0,0,.67-.67v-2.778a4.531,4.531,0,0,0-3.435-4.393,4.527,4.527,0,0,1,5.621,4.393Z" transform="translate(-166.876 -167.104)" fill="#ccc"/><path d="M173.385,199.787v2.778a.67.67,0,0,0,.67.67H171.87a.67.67,0,0,1-.67-.67v-2.778a4.526,4.526,0,0,1,5.619-4.393,4.529,4.529,0,0,0-3.434,4.392Z" transform="translate(-146.74 -167.104)" fill="#f5f5f5"/><path d="M180.257,141.849a4.527,4.527,0,0,0-9.054,0v.432h.854a1.534,1.534,0,0,0,.291-.029,3.418,3.418,0,1,0,6.768.029h1.142Z" transform="translate(-146.743 -117.607)" fill="#87828e"/><path d="M52.546,142.506v.374a7.415,7.415,0,0,1-.925-.015,3.513,3.513,0,0,1-4.481,4.258,3.508,3.508,0,0,0,2.3-4.258,7.415,7.415,0,0,0,.925.015v-.374a3.905,3.905,0,0,0-2.816-3.75,3.861,3.861,0,0,1,1.093-.156A3.907,3.907,0,0,1,52.546,142.506Z" transform="translate(-40.754 -118.699)" fill="#796e84"/><path d="M30.445,144.848a3.51,3.51,0,0,1-4.484-4.244H25.85c-.447,0-.81-.6-.81-1.337a1.389,1.389,0,0,1,.606-1.292,1.715,1.715,0,0,1,.456-1.351c.524-.626,1.265-.87,1.655-.543a.765.765,0,0,1,.23.667c.1-.052.21-.1.318-.144l-.017.02a1.715,1.715,0,0,0-.456,1.351,1.389,1.389,0,0,0-.606,1.292c0,.739.363,1.337.81,1.337h.111a3.51,3.51,0,0,0,2.3,4.244Z" transform="translate(-21.874 -116.422)" fill="#a4a4a5"/><path d="M124.5,147.625v3.447a3.836,3.836,0,0,1-4.929,3.677,3.837,3.837,0,0,0,2.743-3.677v-3.447a3.835,3.835,0,0,0-2.743-3.676,3.836,3.836,0,0,1,4.929,3.676Z" transform="translate(-102.632 -123.133)" fill="#796e84"/><path d="M105.669,154.749a3.836,3.836,0,0,1-4.929-3.677v-3.447a3.836,3.836,0,0,1,4.929-3.676,3.834,3.834,0,0,0-2.743,3.676v3.447A3.837,3.837,0,0,0,105.669,154.749Z" transform="translate(-86.546 -123.133)" fill="#a4a4a5"/><path d="M200.391,142.279h-1.142a3.418,3.418,0,0,1-3.386,3.884,3.384,3.384,0,0,1-1.093-.179,3.416,3.416,0,0,0,2.293-3.7h1.142v-.433a4.528,4.528,0,0,0-3.434-4.392,4.526,4.526,0,0,1,5.619,4.392Z" transform="translate(-166.876 -117.605)" fill="#796e84"/><path d="M176.819,145.984a3.382,3.382,0,0,1-1.093.179,3.421,3.421,0,0,1-3.381-3.913,1.482,1.482,0,0,1-.29.029H171.2v-.433a4.527,4.527,0,0,1,5.621-4.393,4.528,4.528,0,0,0-3.435,4.393v.433h.855a1.483,1.483,0,0,0,.29-.029A3.423,3.423,0,0,0,176.819,145.984Z" transform="translate(-146.74 -117.605)" fill="#a4a4a5"/><g transform="translate(0 0)"><path d="M38.331,2H4.621A1.39,1.39,0,0,0,3.31,3.454v24.19A1.389,1.389,0,0,0,4.621,29.1h2.6a4.087,4.087,0,0,0,1,1.179,5.268,5.268,0,0,0-2.67,4.562v2.622a1.254,1.254,0,0,0,1.253,1.253H14.77a1.255,1.255,0,0,0,1.253-1.253V34.838a5.208,5.208,0,0,0-2.669-4.563,4.076,4.076,0,0,0,1-1.177h2.567v.841a4.361,4.361,0,0,0,.484,2,4.8,4.8,0,0,0-.884,2.78v2.737a1.254,1.254,0,0,0,1.253,1.253H24.9a1.255,1.255,0,0,0,1.253-1.253V34.723a4.786,4.786,0,0,0-.883-2.775,4.363,4.363,0,0,0,.487-2.009V29.1h3.052a3.975,3.975,0,0,0,.962,1.144,5.11,5.11,0,0,0-2.586,4.441v2.778a1.255,1.255,0,0,0,1.253,1.253h7.714a1.255,1.255,0,0,0,1.253-1.253V34.682a5.109,5.109,0,0,0-2.587-4.441,3.941,3.941,0,0,0,.966-1.144h2.545a1.389,1.389,0,0,0,1.311-1.454V3.454A1.39,1.39,0,0,0,38.331,2Zm.146,25.644c0,.188-.1.288-.146.288H36.218a3.755,3.755,0,0,0,.079-.676h.527a.582.582,0,0,0,.583-.583v-.433a5.11,5.11,0,0,0-10.22,0v.433a.583.583,0,0,0,.583.583H28.3a3.875,3.875,0,0,0,.079.676H25.759V26.492a4.423,4.423,0,0,0-4.419-4.417,4.483,4.483,0,0,0-.675.051v-2.71a8.229,8.229,0,0,0-1.707-5.087,6.85,6.85,0,0,0-1.45-1.378,4.225,4.225,0,0,0,.829-2.443h.613a.583.583,0,0,0,.583-.583V9.455a5.487,5.487,0,0,0-10.975,0v.469a.584.584,0,0,0,.583.583H9.77a4.562,4.562,0,0,0,.833,2.43,6.7,6.7,0,0,0-1.321,1.215,8.145,8.145,0,0,0-1.855,5.264v2.072a2.864,2.864,0,0,0-.337.341,2.476,2.476,0,0,0-.61,1.435,2.169,2.169,0,0,0-.587,1.581,1.994,1.994,0,0,0,.829,1.767,4.018,4.018,0,0,0-.028.476,4.136,4.136,0,0,0,.087.845H4.621c-.042,0-.146-.1-.146-.288V3.454c0-.186.1-.288.146-.288H38.331c.042,0,.146.1.146.288ZM32.3,29.975a2.841,2.841,0,0,1-2.8-3.247.584.584,0,0,0-.577-.666,3.4,3.4,0,0,1-.559.029,3.944,3.944,0,0,1,7.883,0h-.557a.584.584,0,0,0-.577.663A2.838,2.838,0,0,1,32.3,29.975Zm3.945,7.485a.088.088,0,0,1-.087.087H28.44a.088.088,0,0,1-.087-.087V34.682a3.948,3.948,0,0,1,2.7-3.741,3.987,3.987,0,0,0,2.491,0,3.95,3.95,0,0,1,2.7,3.741Zm-11.252,0a.088.088,0,0,1-.087.087H17.774a.088.088,0,0,1-.087-.087V34.723a3.619,3.619,0,0,1,.447-1.75,4.41,4.41,0,0,0,6.41,0,3.627,3.627,0,0,1,.446,1.747Zm-.4-7.522c0,4.287-6.506,4.294-6.506,0V26.492c0-4.265,6.506-4.321,6.506,0Zm-13.805.077a2.929,2.929,0,0,1-2.829-3.684A.582.582,0,0,0,7.4,25.6H7.3a1,1,0,0,1-.245-.755.961.961,0,0,1,.253-.758.58.58,0,0,0,.339-.654,1.479,1.479,0,0,1,.941-1.3h0a.34.34,0,0,1,.221-.022.291.291,0,0,1,.023.176.583.583,0,0,0,.845.564,3.28,3.28,0,0,1,1.506-.361A3.327,3.327,0,0,1,14.512,25.6H14.5a1.531,1.531,0,0,1-.24-.009.585.585,0,0,0-.645.73,2.925,2.925,0,0,1-2.826,3.7Zm4.069,7.445a.088.088,0,0,1-.087.087H6.808a.088.088,0,0,1-.087-.087V34.838a4.088,4.088,0,0,1,2.791-3.862,4.067,4.067,0,0,0,2.552,0,4.052,4.052,0,0,1,2.793,3.862ZM14.231,9.341a1.206,1.206,0,0,1-1.048-.676l-.52-.986a.583.583,0,0,0-1.031,0l-.517.986a1.209,1.209,0,0,1-1.046.676H9.728a4.321,4.321,0,0,1,8.639,0Zm-2.085-.133,0-.006,0,.006a2.366,2.366,0,0,0,2.078,1.3h2.941a3.121,3.121,0,1,1-6.24-.176,2.423,2.423,0,0,0,1.214-1.122Zm3.291,5.275c-.166.395-.354.846-.573,1.368-.4.963-1.235.962-1.638,0l-.57-1.359.01,0a4.378,4.378,0,0,0,2.77-.01ZM12.152,16.3a1.965,1.965,0,0,0,3.788,0c.424-1.013.739-1.761.979-2.338a5.74,5.74,0,0,1,1.123,1.088A7.049,7.049,0,0,1,19.5,19.416v3.062a4.407,4.407,0,0,0-1.654,1.314H15.205a4.494,4.494,0,0,0-4.012-2.474,4.449,4.449,0,0,0-1.361.21,1.149,1.149,0,0,0-.265-.316,1.272,1.272,0,0,0-.975-.271V19.416A6.983,6.983,0,0,1,10.175,14.9a5.606,5.606,0,0,1,1-.938ZM14.87,26.764H15.1a.584.584,0,0,0,.583-.583v-.374a4.419,4.419,0,0,0-.082-.849H17.2a4.393,4.393,0,0,0-.275,1.534v1.441H14.8a4.135,4.135,0,0,0,.087-.845Q14.883,26.926,14.87,26.764Z" transform="translate(-3.31 -2)" fill="#5f266d"/><path d="M151.485,28.42h-10.5a1.312,1.312,0,0,0-1.311,1.311v10.5a1.311,1.311,0,0,0,1.311,1.311h10.5a1.311,1.311,0,0,0,1.311-1.311v-10.5A1.312,1.312,0,0,0,151.485,28.42Zm.146,11.815a.145.145,0,0,1-.146.146h-10.5a.145.145,0,0,1-.146-.146v-10.5a.146.146,0,0,1,.146-.146h10.5a.146.146,0,0,1,.146.146Z" transform="translate(-119.804 -24.571)" fill="#5f266d"/><path d="M165.975,50.52h-6.314a.583.583,0,0,0,0,1.166h6.314A.583.583,0,0,0,165.975,50.52Z" transform="translate(-136.389 -43.451)" fill="#5f266d"/><path d="M165.975,69.47h-6.314a.583.583,0,0,0,0,1.165h6.314A.583.583,0,0,0,165.975,69.47Z" transform="translate(-136.389 -59.64)" fill="#5f266d"/><path d="M165.975,88.42h-6.314a.583.583,0,0,0,0,1.165h6.314A.583.583,0,0,0,165.975,88.42Z" transform="translate(-136.389 -75.83)" fill="#5f266d"/><path d="M59.629,232h-.168a.583.583,0,0,0,0,1.165h.168A.583.583,0,0,0,59.629,232Z" transform="translate(-50.788 -198.492)" fill="#5f266d"/><path d="M36.5,218.164h-.737a.219.219,0,0,1-.032,0v-1.78a.583.583,0,0,0-1.166,0v1.927a1.108,1.108,0,0,0,1.2,1.02H36.5A.583.583,0,0,0,36.5,218.164Z" transform="translate(-30.016 -184.656)" fill="#5f266d"/></g></svg>