<svg xmlns="http://www.w3.org/2000/svg" width="14.127" height="14.242" viewBox="0 0 14.127 14.242">
  <g id="whatsapp" transform="translate(-5.196 -5.139)">
    <g id="Group_1291" data-name="Group 1291" transform="translate(5.196 5.138)">
      <path id="Path_10702" data-name="Path 10702" d="M116.186,108.284a7.066,7.066,0,0,0-5.949,10.263l-.75,3.64a.275.275,0,0,0,.333.323l3.567-.845a7.064,7.064,0,1,0,2.8-13.381Zm4.256,10.966a5.535,5.535,0,0,1-6.373,1.043l-.5-.247-2.187.518.46-2.235-.245-.479a5.535,5.535,0,0,1,1.019-6.422,5.531,5.531,0,0,1,7.822,7.822Z" transform="translate(-109.467 -108.276)" fill="#fff"/>
      <path id="Path_10703" data-name="Path 10703" d="M189.16,189.112l-1.368-.393a.51.51,0,0,0-.5.133l-.335.341a.5.5,0,0,1-.542.114,7.3,7.3,0,0,1-2.356-2.078.5.5,0,0,1,.039-.553l.292-.378a.51.51,0,0,0,.063-.518l-.576-1.3a.51.51,0,0,0-.8-.182,2.3,2.3,0,0,0-.89,1.357c-.1.959.314,2.167,1.869,3.618,1.8,1.676,3.234,1.9,4.171,1.671a2.3,2.3,0,0,0,1.223-1.067.51.51,0,0,0-.289-.765Z" transform="translate(-178.668 -180.517)" fill="#fff"/>
    </g>
    <g id="Group_1292" data-name="Group 1292" transform="translate(5.223 7.039)">
      <path id="Path_10704" data-name="Path 10704" d="M121.885,147.708l-1.071,1.1c.055.05.109.1.162.154a5.532,5.532,0,0,1-6.373,8.865l-.5-.247-2.187.518.045-.219-1.937,1.985a.275.275,0,0,0,.325.181l3.567-.845a7.064,7.064,0,0,0,7.966-11.489Z" transform="translate(-110.028 -147.708)" fill="#d1d1d1"/>
      <path id="Path_10705" data-name="Path 10705" d="M224.368,268.642,223,268.249a.51.51,0,0,0-.5.133l-.335.341a.5.5,0,0,1-.542.114,6.242,6.242,0,0,1-1.5-1.1l-.951.975.1.094c1.8,1.676,3.234,1.9,4.171,1.671a2.3,2.3,0,0,0,1.223-1.067A.51.51,0,0,0,224.368,268.642Z" transform="translate(-213.903 -261.947)" fill="#d1d1d1"/>
    </g>
  </g>
</svg>
